%TF.GenerationSoftware,KiCad,Pcbnew,10.0.2*%
%TF.CreationDate,2026-05-16T20:22:56-04:00*%
%TF.ProjectId,gtPaddle,67745061-6464-46c6-952e-6b696361645f,rev?*%
%TF.SameCoordinates,Original*%
%TF.FileFunction,Legend,Top*%
%TF.FilePolarity,Positive*%
%FSLAX46Y46*%
G04 Gerber Fmt 4.6, Leading zero omitted, Abs format (unit mm)*
G04 Created by KiCad (PCBNEW 10.0.2) date 2026-05-16 20:22:56*
%MOMM*%
%LPD*%
G01*
G04 APERTURE LIST*
G04 Aperture macros list*
%AMRoundRect*
0 Rectangle with rounded corners*
0 $1 Rounding radius*
0 $2 $3 $4 $5 $6 $7 $8 $9 X,Y pos of 4 corners*
0 Add a 4 corners polygon primitive as box body*
4,1,4,$2,$3,$4,$5,$6,$7,$8,$9,$2,$3,0*
0 Add four circle primitives for the rounded corners*
1,1,$1+$1,$2,$3*
1,1,$1+$1,$4,$5*
1,1,$1+$1,$6,$7*
1,1,$1+$1,$8,$9*
0 Add four rect primitives between the rounded corners*
20,1,$1+$1,$2,$3,$4,$5,0*
20,1,$1+$1,$4,$5,$6,$7,0*
20,1,$1+$1,$6,$7,$8,$9,0*
20,1,$1+$1,$8,$9,$2,$3,0*%
G04 Aperture macros list end*
%ADD10C,0.300000*%
%ADD11C,0.142240*%
%ADD12C,0.150000*%
%ADD13C,0.127000*%
%ADD14C,0.114300*%
%ADD15C,0.100000*%
%ADD16C,0.120000*%
%ADD17C,0.152400*%
%ADD18C,1.600000*%
%ADD19O,2.844800X1.524000*%
%ADD20RoundRect,0.250000X1.050000X1.050000X-1.050000X1.050000X-1.050000X-1.050000X1.050000X-1.050000X0*%
%ADD21RoundRect,0.343749X0.481251X0.656251X-0.481251X0.656251X-0.481251X-0.656251X0.481251X-0.656251X0*%
%ADD22O,1.650000X2.000000*%
%ADD23C,3.000000*%
%ADD24RoundRect,0.250000X-1.050000X-1.050000X1.050000X-1.050000X1.050000X1.050000X-1.050000X1.050000X0*%
%ADD25R,1.100000X1.800000*%
%ADD26RoundRect,0.275000X0.275000X0.625000X-0.275000X0.625000X-0.275000X-0.625000X0.275000X-0.625000X0*%
%ADD27C,3.500000*%
%ADD28C,1.500000*%
%ADD29RoundRect,0.343749X-0.481251X-0.656251X0.481251X-0.656251X0.481251X0.656251X-0.481251X0.656251X0*%
%ADD30C,3.810000*%
%ADD31RoundRect,0.102000X-0.838200X-0.838200X0.838200X-0.838200X0.838200X0.838200X-0.838200X0.838200X0*%
%ADD32RoundRect,0.100500X-1.031500X-0.301500X1.031500X-0.301500X1.031500X0.301500X-1.031500X0.301500X0*%
%ADD33C,1.880400*%
G04 APERTURE END LIST*
D10*
X147654510Y-135515114D02*
X147868796Y-135586542D01*
X147868796Y-135586542D02*
X147940225Y-135657971D01*
X147940225Y-135657971D02*
X148011653Y-135800828D01*
X148011653Y-135800828D02*
X148011653Y-136015114D01*
X148011653Y-136015114D02*
X147940225Y-136157971D01*
X147940225Y-136157971D02*
X147868796Y-136229400D01*
X147868796Y-136229400D02*
X147725939Y-136300828D01*
X147725939Y-136300828D02*
X147154510Y-136300828D01*
X147154510Y-136300828D02*
X147154510Y-134800828D01*
X147154510Y-134800828D02*
X147654510Y-134800828D01*
X147654510Y-134800828D02*
X147797368Y-134872257D01*
X147797368Y-134872257D02*
X147868796Y-134943685D01*
X147868796Y-134943685D02*
X147940225Y-135086542D01*
X147940225Y-135086542D02*
X147940225Y-135229400D01*
X147940225Y-135229400D02*
X147868796Y-135372257D01*
X147868796Y-135372257D02*
X147797368Y-135443685D01*
X147797368Y-135443685D02*
X147654510Y-135515114D01*
X147654510Y-135515114D02*
X147154510Y-135515114D01*
X139708082Y-135872257D02*
X140422368Y-135872257D01*
X139565225Y-136300828D02*
X140065225Y-134800828D01*
X140065225Y-134800828D02*
X140565225Y-136300828D01*
D11*
G36*
X144831442Y-110001222D02*
G01*
X144913761Y-110030338D01*
X144988347Y-110078974D01*
X145056651Y-110149521D01*
X145056651Y-110014699D01*
X145226735Y-110014699D01*
X145226735Y-110955431D01*
X145219308Y-111126702D01*
X145200582Y-111241875D01*
X145174986Y-111315567D01*
X145134248Y-111380712D01*
X145080158Y-111436297D01*
X145011038Y-111483087D01*
X144933901Y-111516186D01*
X144842781Y-111537176D01*
X144734891Y-111544637D01*
X144637156Y-111538407D01*
X144553526Y-111520810D01*
X144481833Y-111493014D01*
X144420276Y-111455519D01*
X144369055Y-111406538D01*
X144332835Y-111347145D01*
X144310907Y-111275110D01*
X144304505Y-111187065D01*
X144483840Y-111210512D01*
X144496781Y-111266492D01*
X144517831Y-111307990D01*
X144546305Y-111338190D01*
X144594905Y-111367023D01*
X144656306Y-111385514D01*
X144733884Y-111392229D01*
X144818065Y-111385800D01*
X144882573Y-111368425D01*
X144931629Y-111342037D01*
X144972718Y-111304609D01*
X145004039Y-111258365D01*
X145025968Y-111201720D01*
X145035444Y-111131648D01*
X145039248Y-110970177D01*
X144974272Y-111029765D01*
X144903406Y-111071330D01*
X144825317Y-111096398D01*
X144738005Y-111105000D01*
X144628811Y-111094191D01*
X144536609Y-111063422D01*
X144457919Y-111013503D01*
X144390509Y-110942975D01*
X144337376Y-110859160D01*
X144299170Y-110767445D01*
X144275696Y-110666405D01*
X144267594Y-110554262D01*
X144268428Y-110540982D01*
X144457187Y-110540982D01*
X144463709Y-110650925D01*
X144481370Y-110736826D01*
X144507944Y-110803264D01*
X144542184Y-110854040D01*
X144604335Y-110909222D01*
X144674421Y-110941553D01*
X144755316Y-110952592D01*
X144835681Y-110941650D01*
X144905798Y-110909522D01*
X144968449Y-110854590D01*
X145003323Y-110803906D01*
X145030220Y-110738257D01*
X145048002Y-110654095D01*
X145054544Y-110547118D01*
X145048004Y-110445633D01*
X145030001Y-110363740D01*
X145002338Y-110297927D01*
X144965884Y-110245326D01*
X144901441Y-110187944D01*
X144831118Y-110154814D01*
X144752294Y-110143660D01*
X144674787Y-110154664D01*
X144605960Y-110187296D01*
X144543191Y-110243769D01*
X144507872Y-110295519D01*
X144481029Y-110360314D01*
X144463543Y-110440985D01*
X144457187Y-110540982D01*
X144268428Y-110540982D01*
X144274045Y-110451520D01*
X144292937Y-110356013D01*
X144323922Y-110266666D01*
X144368177Y-110183926D01*
X144422540Y-110116703D01*
X144487412Y-110063060D01*
X144561692Y-110023674D01*
X144644863Y-109999590D01*
X144739013Y-109991252D01*
X144831442Y-110001222D01*
G37*
G36*
X145907532Y-110937021D02*
G01*
X145934185Y-111099962D01*
X145858050Y-111112815D01*
X145794875Y-111116723D01*
X145701048Y-111107794D01*
X145639078Y-111084941D01*
X145591358Y-111047431D01*
X145561226Y-111001227D01*
X145545971Y-110935065D01*
X145538695Y-110782965D01*
X145538695Y-110155383D01*
X145403415Y-110155383D01*
X145403415Y-110014699D01*
X145538695Y-110014699D01*
X145538695Y-109745239D01*
X145722060Y-109634505D01*
X145722060Y-110014699D01*
X145907532Y-110014699D01*
X145907532Y-110155383D01*
X145722060Y-110155383D01*
X145722060Y-110790476D01*
X145725249Y-110862296D01*
X145731769Y-110891775D01*
X145744526Y-110911895D01*
X145763551Y-110927588D01*
X145788426Y-110937128D01*
X145826565Y-110940868D01*
X145907532Y-110937021D01*
G37*
G36*
X145917973Y-111521189D02*
G01*
X145917973Y-111392229D01*
X147140439Y-111392229D01*
X147140439Y-111521189D01*
X145917973Y-111521189D01*
G37*
G36*
X147828916Y-109999490D02*
G01*
X147910236Y-110023456D01*
X147984084Y-110062968D01*
X148048583Y-110116541D01*
X148102074Y-110183352D01*
X148145010Y-110265293D01*
X148174836Y-110353834D01*
X148193079Y-110448944D01*
X148199323Y-110551698D01*
X148192346Y-110661719D01*
X148172129Y-110761463D01*
X148139331Y-110852391D01*
X148092461Y-110935833D01*
X148034598Y-111003500D01*
X147965125Y-111057281D01*
X147886594Y-111097248D01*
X147806936Y-111120666D01*
X147724882Y-111128447D01*
X147636318Y-111118414D01*
X147559377Y-111089337D01*
X147492058Y-111044480D01*
X147439026Y-110990419D01*
X147439026Y-111521189D01*
X147254562Y-111521189D01*
X147254562Y-110566627D01*
X147421624Y-110566627D01*
X147428061Y-110673548D01*
X147445592Y-110758113D01*
X147472156Y-110824460D01*
X147506620Y-110876022D01*
X147568719Y-110932538D01*
X147636521Y-110965089D01*
X147712609Y-110976039D01*
X147771490Y-110969657D01*
X147825397Y-110950804D01*
X147875676Y-110918975D01*
X147923176Y-110872450D01*
X147958682Y-110819081D01*
X147986080Y-110750290D01*
X148004179Y-110662483D01*
X148010829Y-110551331D01*
X148004427Y-110445722D01*
X147986897Y-110361205D01*
X147960166Y-110293990D01*
X147925283Y-110240929D01*
X147862721Y-110182346D01*
X147795422Y-110148946D01*
X147720852Y-110137798D01*
X147664993Y-110144325D01*
X147612395Y-110163892D01*
X147561767Y-110197537D01*
X147512299Y-110247616D01*
X147474961Y-110304164D01*
X147446653Y-110374196D01*
X147428278Y-110460541D01*
X147421624Y-110566627D01*
X147254562Y-110566627D01*
X147254562Y-110014699D01*
X147422631Y-110014699D01*
X147422631Y-110159230D01*
X147487439Y-110084312D01*
X147556812Y-110033292D01*
X147608294Y-110010579D01*
X147668216Y-109996295D01*
X147738254Y-109991252D01*
X147828916Y-109999490D01*
G37*
G36*
X149013491Y-110000324D02*
G01*
X149107632Y-110023950D01*
X149186263Y-110062859D01*
X149235676Y-110106199D01*
X149269879Y-110160824D01*
X149293104Y-110231404D01*
X149299481Y-110287821D01*
X149302355Y-110401031D01*
X149302355Y-110646403D01*
X149306258Y-110880175D01*
X149314078Y-110972284D01*
X149331556Y-111039844D01*
X149360698Y-111105000D01*
X149168082Y-111105000D01*
X149144961Y-111044084D01*
X149131171Y-110970177D01*
X149027063Y-111046457D01*
X148933975Y-111092726D01*
X148836584Y-111119364D01*
X148730552Y-111128447D01*
X148640428Y-111122164D01*
X148566206Y-111104678D01*
X148505093Y-111077413D01*
X148454863Y-111040886D01*
X148412674Y-110993917D01*
X148382954Y-110941742D01*
X148364858Y-110883279D01*
X148358600Y-110816946D01*
X148359259Y-110811450D01*
X148555338Y-110811450D01*
X148561592Y-110857666D01*
X148579902Y-110897728D01*
X148611117Y-110933266D01*
X148651187Y-110958959D01*
X148704392Y-110975709D01*
X148774607Y-110981901D01*
X148844446Y-110976500D01*
X148907243Y-110960841D01*
X148964200Y-110935281D01*
X149015292Y-110899932D01*
X149055546Y-110857939D01*
X149086108Y-110808702D01*
X149107206Y-110739132D01*
X149115784Y-110626619D01*
X149115784Y-110559849D01*
X149002245Y-110594583D01*
X148814541Y-110628818D01*
X148709430Y-110647926D01*
X148653615Y-110665362D01*
X148611471Y-110690715D01*
X148580892Y-110724713D01*
X148561763Y-110765783D01*
X148555338Y-110811450D01*
X148359259Y-110811450D01*
X148367820Y-110740017D01*
X148394962Y-110671041D01*
X148437300Y-110611079D01*
X148490217Y-110564979D01*
X148552318Y-110530113D01*
X148622932Y-110504528D01*
X148786880Y-110476868D01*
X148995053Y-110444832D01*
X149115784Y-110413304D01*
X149116883Y-110365127D01*
X149109936Y-110291788D01*
X149091761Y-110240826D01*
X149064584Y-110206216D01*
X149013738Y-110173249D01*
X148945482Y-110151670D01*
X148854566Y-110143660D01*
X148768445Y-110149717D01*
X148706310Y-110165614D01*
X148662408Y-110188906D01*
X148627141Y-110223500D01*
X148596321Y-110275131D01*
X148570725Y-110348824D01*
X148390382Y-110325376D01*
X148411446Y-110250163D01*
X148438640Y-110188707D01*
X148471349Y-110138897D01*
X148512795Y-110096602D01*
X148566343Y-110060121D01*
X148634198Y-110029629D01*
X148745889Y-110001378D01*
X148881219Y-109991252D01*
X149013491Y-110000324D01*
G37*
G36*
X150464737Y-111105000D02*
G01*
X150293645Y-111105000D01*
X150293645Y-110965781D01*
X150235291Y-111037443D01*
X150166653Y-111087326D01*
X150085803Y-111117773D01*
X149989288Y-111128447D01*
X149904649Y-111120439D01*
X149825359Y-111096690D01*
X149749960Y-111056731D01*
X149683372Y-111003265D01*
X149627178Y-110937040D01*
X149580883Y-110856421D01*
X149548283Y-110768811D01*
X149528028Y-110670871D01*
X149520983Y-110560857D01*
X149521010Y-110560399D01*
X149710576Y-110560399D01*
X149717158Y-110666679D01*
X149735188Y-110751688D01*
X149762706Y-110819280D01*
X149798687Y-110872633D01*
X149862867Y-110931402D01*
X149931370Y-110964887D01*
X150006690Y-110976039D01*
X150082843Y-110965192D01*
X150150461Y-110933016D01*
X150212129Y-110877304D01*
X150246556Y-110826322D01*
X150272964Y-110761299D01*
X150290317Y-110679044D01*
X150296667Y-110575695D01*
X150290066Y-110461194D01*
X150272172Y-110371377D01*
X150245236Y-110301625D01*
X150210572Y-110248073D01*
X150163805Y-110201368D01*
X150113570Y-110169278D01*
X150058965Y-110150166D01*
X149998538Y-110143660D01*
X149939473Y-110149954D01*
X149886397Y-110168393D01*
X149837875Y-110199256D01*
X149793008Y-110244043D01*
X149759879Y-110295447D01*
X149734084Y-110362649D01*
X149716917Y-110449453D01*
X149710576Y-110560399D01*
X149521010Y-110560399D01*
X149527291Y-110453366D01*
X149545598Y-110355292D01*
X149575296Y-110265384D01*
X149618519Y-110182289D01*
X149672669Y-110115168D01*
X149738237Y-110061960D01*
X149813283Y-110022763D01*
X149893697Y-109999247D01*
X149981045Y-109991252D01*
X150075330Y-110001911D01*
X150156258Y-110032651D01*
X150226403Y-110080728D01*
X150281280Y-110140546D01*
X150281280Y-109598510D01*
X150464737Y-109598510D01*
X150464737Y-111105000D01*
G37*
G36*
X151631241Y-111105000D02*
G01*
X151460149Y-111105000D01*
X151460149Y-110965781D01*
X151401794Y-111037443D01*
X151333157Y-111087326D01*
X151252307Y-111117773D01*
X151155792Y-111128447D01*
X151071153Y-111120439D01*
X150991863Y-111096690D01*
X150916464Y-111056731D01*
X150849876Y-111003265D01*
X150793681Y-110937040D01*
X150747387Y-110856421D01*
X150714787Y-110768811D01*
X150694532Y-110670871D01*
X150687486Y-110560857D01*
X150687513Y-110560399D01*
X150877080Y-110560399D01*
X150883662Y-110666679D01*
X150901691Y-110751688D01*
X150929209Y-110819280D01*
X150965191Y-110872633D01*
X151029371Y-110931402D01*
X151097874Y-110964887D01*
X151173194Y-110976039D01*
X151249347Y-110965192D01*
X151316965Y-110933016D01*
X151378633Y-110877304D01*
X151413060Y-110826322D01*
X151439468Y-110761299D01*
X151456821Y-110679044D01*
X151463171Y-110575695D01*
X151456570Y-110461194D01*
X151438676Y-110371377D01*
X151411740Y-110301625D01*
X151377076Y-110248073D01*
X151330309Y-110201368D01*
X151280074Y-110169278D01*
X151225468Y-110150166D01*
X151165042Y-110143660D01*
X151105977Y-110149954D01*
X151052901Y-110168393D01*
X151004379Y-110199256D01*
X150959512Y-110244043D01*
X150926383Y-110295447D01*
X150900588Y-110362649D01*
X150883421Y-110449453D01*
X150877080Y-110560399D01*
X150687513Y-110560399D01*
X150693795Y-110453366D01*
X150712102Y-110355292D01*
X150741800Y-110265384D01*
X150785023Y-110182289D01*
X150839173Y-110115168D01*
X150904740Y-110061960D01*
X150979787Y-110022763D01*
X151060201Y-109999247D01*
X151147548Y-109991252D01*
X151241833Y-110001911D01*
X151322762Y-110032651D01*
X151392907Y-110080728D01*
X151447784Y-110140546D01*
X151447784Y-109598510D01*
X151631241Y-109598510D01*
X151631241Y-111105000D01*
G37*
G36*
X151916547Y-111105000D02*
G01*
X151916547Y-109598510D01*
X152100920Y-109598510D01*
X152100920Y-111105000D01*
X151916547Y-111105000D01*
G37*
G36*
X152939954Y-110001002D02*
G01*
X153033329Y-110029098D01*
X153116060Y-110075008D01*
X153189938Y-110139813D01*
X153248079Y-110217504D01*
X153291127Y-110310801D01*
X153318536Y-110422827D01*
X153328332Y-110557560D01*
X153327233Y-110606744D01*
X152515736Y-110606744D01*
X152526981Y-110696393D01*
X152548286Y-110770316D01*
X152578469Y-110831143D01*
X152617127Y-110880968D01*
X152682968Y-110933796D01*
X152757827Y-110965223D01*
X152844639Y-110976039D01*
X152910532Y-110969834D01*
X152967689Y-110952006D01*
X153017838Y-110922916D01*
X153060147Y-110883075D01*
X153098181Y-110827706D01*
X153131594Y-110753290D01*
X153322195Y-110776737D01*
X153282428Y-110882210D01*
X153226836Y-110967662D01*
X153155133Y-111036215D01*
X153092335Y-111075368D01*
X153020582Y-111104101D01*
X152938315Y-111122118D01*
X152843632Y-111128447D01*
X152725932Y-111118470D01*
X152625572Y-111090117D01*
X152539365Y-111044585D01*
X152464994Y-110981443D01*
X152406074Y-110904323D01*
X152362596Y-110812052D01*
X152334986Y-110701607D01*
X152325135Y-110569100D01*
X152333493Y-110454337D01*
X152525994Y-110454337D01*
X153133609Y-110454337D01*
X153118937Y-110364988D01*
X153095125Y-110298393D01*
X153063908Y-110249631D01*
X153016149Y-110202923D01*
X152963016Y-110170278D01*
X152903377Y-110150493D01*
X152835480Y-110143660D01*
X152754174Y-110153318D01*
X152683815Y-110181342D01*
X152621798Y-110228198D01*
X152573591Y-110289364D01*
X152541513Y-110363645D01*
X152525994Y-110454337D01*
X152333493Y-110454337D01*
X152335139Y-110431735D01*
X152363136Y-110317470D01*
X152407122Y-110222259D01*
X152466551Y-110142927D01*
X152542060Y-110076884D01*
X152626977Y-110029998D01*
X152723185Y-110001247D01*
X152833374Y-109991252D01*
X152939954Y-110001002D01*
G37*
G36*
X154438690Y-111105000D02*
G01*
X154024699Y-110014699D01*
X154219421Y-110014699D01*
X154452978Y-110667652D01*
X154522679Y-110887379D01*
X154591372Y-110680017D01*
X154833173Y-110014699D01*
X155022766Y-110014699D01*
X154610790Y-111105000D01*
X154438690Y-111105000D01*
G37*
G36*
X155703632Y-109598373D02*
G01*
X155773821Y-109614824D01*
X155836278Y-109641374D01*
X155893191Y-109678361D01*
X155943246Y-109724920D01*
X155986946Y-109781967D01*
X156038662Y-109880636D01*
X156080185Y-110005632D01*
X156104398Y-110148932D01*
X156113982Y-110361097D01*
X156106973Y-110538055D01*
X156087984Y-110678444D01*
X156059669Y-110788369D01*
X156015683Y-110891966D01*
X155961466Y-110974685D01*
X155897278Y-111039695D01*
X155820905Y-111088063D01*
X155731050Y-111117934D01*
X155624245Y-111128447D01*
X155518547Y-111118106D01*
X155428350Y-111088554D01*
X155350510Y-111040469D01*
X155282977Y-110972467D01*
X155234883Y-110898342D01*
X155194461Y-110804435D01*
X155162875Y-110686775D01*
X155142020Y-110540729D01*
X155134416Y-110361097D01*
X155134438Y-110360547D01*
X155324009Y-110360547D01*
X155331610Y-110558261D01*
X155351161Y-110697660D01*
X155378488Y-110792231D01*
X155410563Y-110853490D01*
X155458745Y-110909301D01*
X155509712Y-110946764D01*
X155564337Y-110968662D01*
X155624245Y-110976039D01*
X155684120Y-110968636D01*
X155738716Y-110946655D01*
X155789664Y-110909031D01*
X155837835Y-110852941D01*
X155869980Y-110791463D01*
X155897335Y-110696826D01*
X155916886Y-110557633D01*
X155924480Y-110360547D01*
X155916858Y-110162212D01*
X155897266Y-110022631D01*
X155869910Y-109928158D01*
X155837835Y-109867146D01*
X155789743Y-109811716D01*
X155738503Y-109774373D01*
X155683219Y-109752461D01*
X155622230Y-109745055D01*
X155561433Y-109751891D01*
X155508409Y-109771726D01*
X155461359Y-109804763D01*
X155419264Y-109852766D01*
X155383184Y-109921454D01*
X155353156Y-110022116D01*
X155332085Y-110164647D01*
X155324009Y-110360547D01*
X155134438Y-110360547D01*
X155141503Y-110182638D01*
X155160669Y-110041624D01*
X155189187Y-109931718D01*
X155233518Y-109828130D01*
X155287919Y-109745608D01*
X155352128Y-109680942D01*
X155428507Y-109632793D01*
X155518084Y-109603089D01*
X155624245Y-109592648D01*
X155703632Y-109598373D01*
G37*
G36*
X156404418Y-111105000D02*
G01*
X156404418Y-110899836D01*
X156614436Y-110899836D01*
X156614436Y-111105000D01*
X156404418Y-111105000D01*
G37*
G36*
X157578890Y-111105000D02*
G01*
X157394426Y-111105000D01*
X157394426Y-109926589D01*
X157321023Y-109987660D01*
X157219761Y-110053992D01*
X157113194Y-110111654D01*
X157025588Y-110149521D01*
X157025588Y-109970736D01*
X157125937Y-109917795D01*
X157215818Y-109858887D01*
X157296057Y-109794057D01*
X157369668Y-109721227D01*
X157423219Y-109654376D01*
X157460005Y-109592648D01*
X157578890Y-109592648D01*
X157578890Y-111105000D01*
G37*
G36*
X145044268Y-112124798D02*
G01*
X145146776Y-112140125D01*
X145230078Y-112165905D01*
X145303088Y-112201890D01*
X145367144Y-112248019D01*
X145439054Y-112320593D01*
X145498163Y-112405833D01*
X145544831Y-112505390D01*
X145576815Y-112611432D01*
X145596832Y-112730200D01*
X145603816Y-112863511D01*
X145599028Y-112977574D01*
X145585383Y-113078502D01*
X145563790Y-113167777D01*
X145516508Y-113292532D01*
X145461392Y-113387137D01*
X145394417Y-113466240D01*
X145324555Y-113523791D01*
X145244729Y-113566684D01*
X145145219Y-113599354D01*
X145036083Y-113618193D01*
X144903968Y-113625000D01*
X144361933Y-113625000D01*
X144361933Y-113449145D01*
X144560685Y-113449145D01*
X144881437Y-113449145D01*
X145021813Y-113441209D01*
X145114536Y-113421301D01*
X145192391Y-113386687D01*
X145249267Y-113342991D01*
X145291435Y-113292260D01*
X145328250Y-113229202D01*
X145359359Y-113151748D01*
X145380369Y-113070695D01*
X145393963Y-112974378D01*
X145398835Y-112860397D01*
X145393014Y-112738588D01*
X145377032Y-112639612D01*
X145352743Y-112559806D01*
X145321441Y-112495956D01*
X145263685Y-112417613D01*
X145201258Y-112361906D01*
X145133496Y-112325322D01*
X145078588Y-112309899D01*
X144995796Y-112298738D01*
X144876308Y-112294364D01*
X144560685Y-112294364D01*
X144560685Y-113449145D01*
X144361933Y-113449145D01*
X144361933Y-112118510D01*
X144879422Y-112118510D01*
X145044268Y-112124798D01*
G37*
G36*
X146446010Y-112520324D02*
G01*
X146540151Y-112543950D01*
X146618782Y-112582859D01*
X146668196Y-112626199D01*
X146702398Y-112680824D01*
X146725623Y-112751404D01*
X146732000Y-112807821D01*
X146734874Y-112921031D01*
X146734874Y-113166403D01*
X146738777Y-113400175D01*
X146746598Y-113492284D01*
X146764076Y-113559844D01*
X146793217Y-113625000D01*
X146600601Y-113625000D01*
X146577480Y-113564084D01*
X146563690Y-113490177D01*
X146459582Y-113566457D01*
X146366495Y-113612726D01*
X146269104Y-113639364D01*
X146163071Y-113648447D01*
X146072948Y-113642164D01*
X145998726Y-113624678D01*
X145937613Y-113597413D01*
X145887382Y-113560886D01*
X145845193Y-113513917D01*
X145815473Y-113461742D01*
X145797377Y-113403279D01*
X145791120Y-113336946D01*
X145791779Y-113331450D01*
X145987857Y-113331450D01*
X145994111Y-113377666D01*
X146012422Y-113417728D01*
X146043636Y-113453266D01*
X146083707Y-113478959D01*
X146136912Y-113495709D01*
X146207126Y-113501901D01*
X146276966Y-113496500D01*
X146339762Y-113480841D01*
X146396720Y-113455281D01*
X146447812Y-113419932D01*
X146488065Y-113377939D01*
X146518627Y-113328702D01*
X146539725Y-113259132D01*
X146548303Y-113146619D01*
X146548303Y-113079849D01*
X146434764Y-113114583D01*
X146247060Y-113148818D01*
X146141949Y-113167926D01*
X146086134Y-113185362D01*
X146043990Y-113210715D01*
X146013411Y-113244713D01*
X145994282Y-113285783D01*
X145987857Y-113331450D01*
X145791779Y-113331450D01*
X145800340Y-113260017D01*
X145827481Y-113191041D01*
X145869820Y-113131079D01*
X145922736Y-113084979D01*
X145984837Y-113050113D01*
X146055451Y-113024528D01*
X146219399Y-112996868D01*
X146427572Y-112964832D01*
X146548303Y-112933304D01*
X146549402Y-112885127D01*
X146542455Y-112811788D01*
X146524281Y-112760826D01*
X146497103Y-112726216D01*
X146446257Y-112693249D01*
X146378002Y-112671670D01*
X146287085Y-112663660D01*
X146200964Y-112669717D01*
X146138829Y-112685614D01*
X146094927Y-112708906D01*
X146059660Y-112743500D01*
X146028840Y-112795131D01*
X146003244Y-112868824D01*
X145822902Y-112845376D01*
X145843965Y-112770163D01*
X145871159Y-112708707D01*
X145903868Y-112658897D01*
X145945314Y-112616602D01*
X145998862Y-112580121D01*
X146066717Y-112549629D01*
X146178408Y-112521378D01*
X146313738Y-112511252D01*
X146446010Y-112520324D01*
G37*
G36*
X147020088Y-113625000D02*
G01*
X147020088Y-112534699D01*
X147186143Y-112534699D01*
X147186143Y-112689397D01*
X147238841Y-112624781D01*
X147298634Y-112575691D01*
X147366372Y-112540533D01*
X147443602Y-112518827D01*
X147532449Y-112511252D01*
X147627851Y-112520314D01*
X147713250Y-112546698D01*
X147787267Y-112589003D01*
X147836714Y-112639480D01*
X147871113Y-112701165D01*
X147894142Y-112775859D01*
X147901242Y-112836742D01*
X147904400Y-112955286D01*
X147904400Y-113625000D01*
X147719936Y-113625000D01*
X147719936Y-112961331D01*
X147713618Y-112855614D01*
X147698412Y-112792345D01*
X147668875Y-112742347D01*
X147622025Y-112702952D01*
X147563628Y-112678172D01*
X147493523Y-112669521D01*
X147417761Y-112678037D01*
X147350644Y-112702901D01*
X147290099Y-112744535D01*
X147256328Y-112784479D01*
X147229655Y-112841554D01*
X147211453Y-112920929D01*
X147204553Y-113029108D01*
X147204553Y-113625000D01*
X147020088Y-113625000D01*
G37*
G36*
X148725789Y-113138468D02*
G01*
X148913367Y-113120882D01*
X148926964Y-113195867D01*
X148947874Y-113257795D01*
X148975283Y-113308736D01*
X149012070Y-113352904D01*
X149061679Y-113392451D01*
X149126500Y-113427346D01*
X149196155Y-113452070D01*
X149272629Y-113467324D01*
X149357035Y-113472592D01*
X149466580Y-113463576D01*
X149557802Y-113438245D01*
X149613055Y-113411238D01*
X149655572Y-113379819D01*
X149687404Y-113344090D01*
X149719509Y-113281474D01*
X149729993Y-113215221D01*
X149719599Y-113149190D01*
X149688961Y-113092855D01*
X149638370Y-113047093D01*
X149553772Y-113004653D01*
X149474889Y-112979561D01*
X149286326Y-112931289D01*
X149095783Y-112878077D01*
X148996349Y-112837316D01*
X148928492Y-112795042D01*
X148875732Y-112748366D01*
X148835973Y-112697182D01*
X148806777Y-112639445D01*
X148789203Y-112577373D01*
X148783217Y-112509787D01*
X148790348Y-112435707D01*
X148811654Y-112365134D01*
X148847788Y-112296837D01*
X148896439Y-112237064D01*
X148958576Y-112187045D01*
X149036283Y-112146445D01*
X149120377Y-112118327D01*
X149211888Y-112101020D01*
X149311972Y-112095062D01*
X149422262Y-112101477D01*
X149519873Y-112119839D01*
X149606529Y-112149193D01*
X149686442Y-112191829D01*
X149751204Y-112244735D01*
X149802717Y-112308378D01*
X149841234Y-112381042D01*
X149865844Y-112459913D01*
X149876539Y-112546423D01*
X149685938Y-112558147D01*
X149666353Y-112467689D01*
X149631452Y-112397563D01*
X149581891Y-112343549D01*
X149518695Y-112305432D01*
X149433605Y-112280284D01*
X149320123Y-112270917D01*
X149201080Y-112279811D01*
X149116300Y-112303066D01*
X149057257Y-112337137D01*
X149010395Y-112385729D01*
X148983728Y-112438232D01*
X148974825Y-112496689D01*
X148981480Y-112548122D01*
X149000773Y-112591947D01*
X149033260Y-112630046D01*
X149077254Y-112658298D01*
X149168610Y-112693818D01*
X149332946Y-112737390D01*
X149555499Y-112794130D01*
X149665422Y-112833195D01*
X149748572Y-112879231D01*
X149812080Y-112930236D01*
X149859045Y-112986152D01*
X149893528Y-113050298D01*
X149914425Y-113120833D01*
X149921602Y-113199376D01*
X149914057Y-113277205D01*
X149891430Y-113351975D01*
X149852909Y-113424965D01*
X149801452Y-113489356D01*
X149736359Y-113544123D01*
X149655713Y-113589645D01*
X149568213Y-113621798D01*
X149472187Y-113641609D01*
X149366194Y-113648447D01*
X149231018Y-113641079D01*
X149118265Y-113620573D01*
X149024467Y-113588821D01*
X148938310Y-113541799D01*
X148866778Y-113482254D01*
X148808221Y-113409394D01*
X148764481Y-113326590D01*
X148737008Y-113236843D01*
X148725789Y-113138468D01*
G37*
G36*
X150169356Y-113625000D02*
G01*
X150169356Y-112118510D01*
X150353820Y-112118510D01*
X150353820Y-112660362D01*
X150423505Y-112594448D01*
X150499919Y-112548504D01*
X150584558Y-112520780D01*
X150679701Y-112511252D01*
X150759133Y-112516901D01*
X150828611Y-112533051D01*
X150889719Y-112558971D01*
X150944452Y-112595537D01*
X150986479Y-112639246D01*
X151017306Y-112690771D01*
X151037011Y-112748387D01*
X151050613Y-112827789D01*
X151055774Y-112934769D01*
X151055774Y-113625000D01*
X150871310Y-113625000D01*
X150871310Y-112934311D01*
X150863415Y-112843700D01*
X150842556Y-112778608D01*
X150811318Y-112732628D01*
X150767588Y-112698532D01*
X150712227Y-112677202D01*
X150641782Y-112669521D01*
X150562454Y-112680109D01*
X150487543Y-112712111D01*
X150443452Y-112744347D01*
X150409451Y-112782623D01*
X150384503Y-112827608D01*
X150362511Y-112907879D01*
X150353820Y-113028742D01*
X150353820Y-113625000D01*
X150169356Y-113625000D01*
G37*
G36*
X151336959Y-112323674D02*
G01*
X151336959Y-112118510D01*
X151521331Y-112118510D01*
X151521331Y-112323674D01*
X151336959Y-112323674D01*
G37*
G36*
X151336959Y-113625000D02*
G01*
X151336959Y-112534699D01*
X151521331Y-112534699D01*
X151521331Y-113625000D01*
X151336959Y-113625000D01*
G37*
G36*
X151801875Y-113625000D02*
G01*
X151801875Y-112534699D01*
X151966922Y-112534699D01*
X151966922Y-112687015D01*
X152026274Y-112615806D01*
X152103118Y-112559521D01*
X152161539Y-112533025D01*
X152225706Y-112516829D01*
X152296833Y-112511252D01*
X152376117Y-112517355D01*
X152441317Y-112534373D01*
X152495036Y-112561078D01*
X152541512Y-112598648D01*
X152577669Y-112644672D01*
X152604213Y-112700388D01*
X152661363Y-112629829D01*
X152722717Y-112577424D01*
X152788822Y-112540826D01*
X152860820Y-112518787D01*
X152940352Y-112511252D01*
X153020934Y-112517565D01*
X153087704Y-112535238D01*
X153143188Y-112563101D01*
X153189296Y-112601011D01*
X153225104Y-112647972D01*
X153252239Y-112707628D01*
X153269941Y-112782875D01*
X153276400Y-112877342D01*
X153276400Y-113625000D01*
X153093034Y-113625000D01*
X153093034Y-112937700D01*
X153087618Y-112834542D01*
X153075082Y-112777965D01*
X153050112Y-112734256D01*
X153009961Y-112699380D01*
X152959669Y-112677233D01*
X152899319Y-112669521D01*
X152826008Y-112678315D01*
X152763307Y-112703722D01*
X152708718Y-112746092D01*
X152669113Y-112802101D01*
X152642812Y-112881180D01*
X152632881Y-112991098D01*
X152632881Y-113625000D01*
X152448508Y-113625000D01*
X152448508Y-112916085D01*
X152442563Y-112834737D01*
X152426791Y-112774737D01*
X152403353Y-112731162D01*
X152368817Y-112698140D01*
X152321167Y-112677236D01*
X152255892Y-112669521D01*
X152180894Y-112679805D01*
X152111819Y-112710646D01*
X152072189Y-112741872D01*
X152040394Y-112781494D01*
X152016015Y-112830813D01*
X151994912Y-112918946D01*
X151986339Y-113058875D01*
X151986339Y-113625000D01*
X151801875Y-113625000D01*
G37*
G36*
X153550165Y-113625000D02*
G01*
X153550165Y-112534699D01*
X153715212Y-112534699D01*
X153715212Y-112687015D01*
X153774564Y-112615806D01*
X153851408Y-112559521D01*
X153909829Y-112533025D01*
X153973997Y-112516829D01*
X154045123Y-112511252D01*
X154124408Y-112517355D01*
X154189607Y-112534373D01*
X154243326Y-112561078D01*
X154289802Y-112598648D01*
X154325959Y-112644672D01*
X154352503Y-112700388D01*
X154409654Y-112629829D01*
X154471007Y-112577424D01*
X154537112Y-112540826D01*
X154609110Y-112518787D01*
X154688642Y-112511252D01*
X154769224Y-112517565D01*
X154835994Y-112535238D01*
X154891478Y-112563101D01*
X154937587Y-112601011D01*
X154973394Y-112647972D01*
X155000530Y-112707628D01*
X155018231Y-112782875D01*
X155024690Y-112877342D01*
X155024690Y-113625000D01*
X154841325Y-113625000D01*
X154841325Y-112937700D01*
X154835908Y-112834542D01*
X154823373Y-112777965D01*
X154798402Y-112734256D01*
X154758251Y-112699380D01*
X154707959Y-112677233D01*
X154647609Y-112669521D01*
X154574298Y-112678315D01*
X154511597Y-112703722D01*
X154457008Y-112746092D01*
X154417403Y-112802101D01*
X154391102Y-112881180D01*
X154381171Y-112991098D01*
X154381171Y-113625000D01*
X154196798Y-113625000D01*
X154196798Y-112916085D01*
X154190854Y-112834737D01*
X154175081Y-112774737D01*
X154151644Y-112731162D01*
X154117108Y-112698140D01*
X154069458Y-112677236D01*
X154004182Y-112669521D01*
X153929184Y-112679805D01*
X153860109Y-112710646D01*
X153820479Y-112741872D01*
X153788684Y-112781494D01*
X153764305Y-112830813D01*
X153743202Y-112918946D01*
X153734630Y-113058875D01*
X153734630Y-113625000D01*
X153550165Y-113625000D01*
G37*
G36*
X155290304Y-114042563D02*
G01*
X155269788Y-113872387D01*
X155328683Y-113885033D01*
X155375300Y-113888782D01*
X155433083Y-113883108D01*
X155473669Y-113868174D01*
X155507122Y-113843689D01*
X155534211Y-113810746D01*
X155552833Y-113772437D01*
X155590539Y-113672993D01*
X155606934Y-113627839D01*
X155193950Y-112534699D01*
X155392794Y-112534699D01*
X155619207Y-113161732D01*
X155660613Y-113283049D01*
X155698067Y-113412600D01*
X155732778Y-113292282D01*
X155773905Y-113170983D01*
X156006546Y-112534699D01*
X156191010Y-112534699D01*
X155777019Y-113644142D01*
X155712254Y-113807704D01*
X155673521Y-113889515D01*
X155618548Y-113970567D01*
X155560772Y-114022322D01*
X155516718Y-114045435D01*
X155466645Y-114059675D01*
X155409189Y-114064637D01*
X155354823Y-114059486D01*
X155290304Y-114042563D01*
G37*
G36*
X156899290Y-112520959D02*
G01*
X156995464Y-112548885D01*
X157080484Y-112594363D01*
X157156197Y-112658256D01*
X157216552Y-112735593D01*
X157260787Y-112827078D01*
X157288706Y-112935491D01*
X157298621Y-113064462D01*
X157290471Y-113203935D01*
X157268499Y-113312052D01*
X157235607Y-113394923D01*
X157187164Y-113469247D01*
X157126417Y-113531200D01*
X157052150Y-113581860D01*
X156969753Y-113618752D01*
X156882593Y-113640929D01*
X156789375Y-113648447D01*
X156677193Y-113638680D01*
X156579955Y-113610707D01*
X156494885Y-113565379D01*
X156419988Y-113501993D01*
X156361026Y-113425111D01*
X156317212Y-113331577D01*
X156289184Y-113217954D01*
X156279121Y-113079849D01*
X156279156Y-113079300D01*
X156468623Y-113079300D01*
X156475398Y-113185373D01*
X156493990Y-113270451D01*
X156522460Y-113338345D01*
X156559848Y-113392175D01*
X156608987Y-113438057D01*
X156662835Y-113470070D01*
X156722437Y-113489397D01*
X156789375Y-113496039D01*
X156855746Y-113489388D01*
X156915005Y-113470003D01*
X156968713Y-113437831D01*
X157017895Y-113391625D01*
X157055124Y-113337626D01*
X157083606Y-113268896D01*
X157102289Y-113182097D01*
X157109119Y-113073163D01*
X157102399Y-112971175D01*
X157083848Y-112888433D01*
X157055230Y-112821508D01*
X157017345Y-112767616D01*
X156967961Y-112721564D01*
X156914259Y-112689534D01*
X156855237Y-112670262D01*
X156789375Y-112663660D01*
X156722410Y-112670278D01*
X156662798Y-112689531D01*
X156608959Y-112721408D01*
X156559848Y-112767066D01*
X156522477Y-112820635D01*
X156494008Y-112888317D01*
X156475405Y-112973256D01*
X156468623Y-113079300D01*
X156279156Y-113079300D01*
X156286964Y-112956582D01*
X156308937Y-112853056D01*
X156343335Y-112766107D01*
X156389364Y-112693119D01*
X156447191Y-112632152D01*
X156520537Y-112579643D01*
X156601021Y-112542144D01*
X156690030Y-112519179D01*
X156789375Y-112511252D01*
X156899290Y-112520959D01*
G37*
G36*
X145602808Y-116145000D02*
G01*
X145376304Y-116145000D01*
X145201090Y-115687777D01*
X144572958Y-115687777D01*
X144408003Y-116145000D01*
X144196885Y-116145000D01*
X144434842Y-115523646D01*
X144630386Y-115523646D01*
X145139632Y-115523646D01*
X144982828Y-115110753D01*
X144917384Y-114928485D01*
X144876308Y-114796779D01*
X144841819Y-114942532D01*
X144795341Y-115087031D01*
X144630386Y-115523646D01*
X144434842Y-115523646D01*
X144773818Y-114638510D01*
X144987957Y-114638510D01*
X145602808Y-116145000D01*
G37*
G36*
X146312168Y-115039490D02*
G01*
X146393488Y-115063456D01*
X146467336Y-115102968D01*
X146531835Y-115156541D01*
X146585326Y-115223352D01*
X146628262Y-115305293D01*
X146658088Y-115393834D01*
X146676331Y-115488944D01*
X146682575Y-115591698D01*
X146675598Y-115701719D01*
X146655381Y-115801463D01*
X146622583Y-115892391D01*
X146575713Y-115975833D01*
X146517850Y-116043500D01*
X146448377Y-116097281D01*
X146369846Y-116137248D01*
X146290188Y-116160666D01*
X146208134Y-116168447D01*
X146119570Y-116158414D01*
X146042629Y-116129337D01*
X145975310Y-116084480D01*
X145922278Y-116030419D01*
X145922278Y-116561189D01*
X145737814Y-116561189D01*
X145737814Y-115606627D01*
X145904876Y-115606627D01*
X145911313Y-115713548D01*
X145928844Y-115798113D01*
X145955408Y-115864460D01*
X145989872Y-115916022D01*
X146051970Y-115972538D01*
X146119773Y-116005089D01*
X146195860Y-116016039D01*
X146254742Y-116009657D01*
X146308649Y-115990804D01*
X146358927Y-115958975D01*
X146406428Y-115912450D01*
X146441934Y-115859081D01*
X146469332Y-115790290D01*
X146487431Y-115702483D01*
X146494081Y-115591331D01*
X146487679Y-115485722D01*
X146470149Y-115401205D01*
X146443418Y-115333990D01*
X146408535Y-115280929D01*
X146345973Y-115222346D01*
X146278674Y-115188946D01*
X146204104Y-115177798D01*
X146148245Y-115184325D01*
X146095647Y-115203892D01*
X146045019Y-115237537D01*
X145995551Y-115287616D01*
X145958213Y-115344164D01*
X145929905Y-115414196D01*
X145911530Y-115500541D01*
X145904876Y-115606627D01*
X145737814Y-115606627D01*
X145737814Y-115054699D01*
X145905883Y-115054699D01*
X145905883Y-115199230D01*
X145970691Y-115124312D01*
X146040064Y-115073292D01*
X146091546Y-115050579D01*
X146151468Y-115036295D01*
X146221506Y-115031252D01*
X146312168Y-115039490D01*
G37*
G36*
X146902302Y-116145000D02*
G01*
X146902302Y-115054699D01*
X147068265Y-115054699D01*
X147068265Y-115223685D01*
X147134898Y-115119047D01*
X147185594Y-115068713D01*
X147242168Y-115040583D01*
X147303929Y-115031252D01*
X147364577Y-115037443D01*
X147427392Y-115056630D01*
X147493523Y-115090420D01*
X147430050Y-115260688D01*
X147361331Y-115233412D01*
X147294770Y-115224692D01*
X147237378Y-115233786D01*
X147186143Y-115261054D01*
X147145374Y-115303635D01*
X147117450Y-115361713D01*
X147094677Y-115462836D01*
X147086767Y-115576494D01*
X147086767Y-116145000D01*
X146902302Y-116145000D01*
G37*
G36*
X147604439Y-114843674D02*
G01*
X147604439Y-114638510D01*
X147788812Y-114638510D01*
X147788812Y-114843674D01*
X147604439Y-114843674D01*
G37*
G36*
X147604439Y-116145000D02*
G01*
X147604439Y-115054699D01*
X147788812Y-115054699D01*
X147788812Y-116145000D01*
X147604439Y-116145000D01*
G37*
G36*
X148065326Y-116145000D02*
G01*
X148065326Y-114638510D01*
X148249699Y-114638510D01*
X148249699Y-116145000D01*
X148065326Y-116145000D01*
G37*
G36*
X150036732Y-115969145D02*
G01*
X150036732Y-116145000D01*
X149043885Y-116145000D01*
X149048226Y-116079684D01*
X149065409Y-116017047D01*
X149113378Y-115918721D01*
X149186767Y-115817561D01*
X149281783Y-115718035D01*
X149428109Y-115589042D01*
X149590223Y-115448374D01*
X149695810Y-115344204D01*
X149759028Y-115268839D01*
X149809159Y-115187137D01*
X149836550Y-115113657D01*
X149845123Y-115046181D01*
X149836276Y-114976163D01*
X149810427Y-114915068D01*
X149766721Y-114860618D01*
X149710394Y-114819296D01*
X149643293Y-114793971D01*
X149562382Y-114785055D01*
X149476905Y-114794650D01*
X149406989Y-114821776D01*
X149349158Y-114865930D01*
X149305908Y-114924447D01*
X149278564Y-114997702D01*
X149268283Y-115089870D01*
X149078689Y-115066423D01*
X149096441Y-114961804D01*
X149127314Y-114875009D01*
X149170231Y-114803037D01*
X149225235Y-114743656D01*
X149291393Y-114696673D01*
X149368800Y-114662141D01*
X149459578Y-114640360D01*
X149566412Y-114632648D01*
X149673831Y-114640958D01*
X149764890Y-114664448D01*
X149842446Y-114701822D01*
X149908688Y-114752998D01*
X149964117Y-114817150D01*
X150003035Y-114887270D01*
X150026611Y-114964667D01*
X150034717Y-115051219D01*
X150025596Y-115140436D01*
X149997806Y-115229180D01*
X149951193Y-115315173D01*
X149875348Y-115413278D01*
X149773539Y-115516650D01*
X149590958Y-115678801D01*
X149440616Y-115808934D01*
X149377826Y-115868761D01*
X149334103Y-115919777D01*
X149300065Y-115969145D01*
X150036732Y-115969145D01*
G37*
G36*
X150803143Y-114638373D02*
G01*
X150873332Y-114654824D01*
X150935790Y-114681374D01*
X150992702Y-114718361D01*
X151042757Y-114764920D01*
X151086457Y-114821967D01*
X151138174Y-114920636D01*
X151179697Y-115045632D01*
X151203909Y-115188932D01*
X151213494Y-115401097D01*
X151206485Y-115578055D01*
X151187495Y-115718444D01*
X151159180Y-115828369D01*
X151115195Y-115931966D01*
X151060978Y-116014685D01*
X150996789Y-116079695D01*
X150920417Y-116128063D01*
X150830562Y-116157934D01*
X150723756Y-116168447D01*
X150618059Y-116158106D01*
X150527861Y-116128554D01*
X150450021Y-116080469D01*
X150382488Y-116012467D01*
X150334395Y-115938342D01*
X150293973Y-115844435D01*
X150262387Y-115726775D01*
X150241531Y-115580729D01*
X150233927Y-115401097D01*
X150233949Y-115400547D01*
X150423521Y-115400547D01*
X150431121Y-115598261D01*
X150450673Y-115737660D01*
X150478000Y-115832231D01*
X150510075Y-115893490D01*
X150558257Y-115949301D01*
X150609224Y-115986764D01*
X150663849Y-116008662D01*
X150723756Y-116016039D01*
X150783632Y-116008636D01*
X150838227Y-115986655D01*
X150889175Y-115949031D01*
X150937347Y-115892941D01*
X150969492Y-115831463D01*
X150996846Y-115736826D01*
X151016398Y-115597633D01*
X151023992Y-115400547D01*
X151016370Y-115202212D01*
X150996777Y-115062631D01*
X150969421Y-114968158D01*
X150937347Y-114907146D01*
X150889254Y-114851716D01*
X150838014Y-114814373D01*
X150782730Y-114792461D01*
X150721741Y-114785055D01*
X150660944Y-114791891D01*
X150607921Y-114811726D01*
X150560871Y-114844763D01*
X150518776Y-114892766D01*
X150482696Y-114961454D01*
X150452667Y-115062116D01*
X150431596Y-115204647D01*
X150423521Y-115400547D01*
X150233949Y-115400547D01*
X150241014Y-115222638D01*
X150260180Y-115081624D01*
X150288699Y-114971718D01*
X150333029Y-114868130D01*
X150387431Y-114785608D01*
X150451639Y-114720942D01*
X150528019Y-114672793D01*
X150617596Y-114643089D01*
X150723756Y-114632648D01*
X150803143Y-114638373D01*
G37*
G36*
X152369740Y-115969145D02*
G01*
X152369740Y-116145000D01*
X151376892Y-116145000D01*
X151381234Y-116079684D01*
X151398416Y-116017047D01*
X151446386Y-115918721D01*
X151519774Y-115817561D01*
X151614791Y-115718035D01*
X151761117Y-115589042D01*
X151923231Y-115448374D01*
X152028818Y-115344204D01*
X152092035Y-115268839D01*
X152142167Y-115187137D01*
X152169557Y-115113657D01*
X152178131Y-115046181D01*
X152169284Y-114976163D01*
X152143435Y-114915068D01*
X152099729Y-114860618D01*
X152043401Y-114819296D01*
X151976301Y-114793971D01*
X151895389Y-114785055D01*
X151809912Y-114794650D01*
X151739997Y-114821776D01*
X151682165Y-114865930D01*
X151638915Y-114924447D01*
X151611572Y-114997702D01*
X151601290Y-115089870D01*
X151411697Y-115066423D01*
X151429449Y-114961804D01*
X151460321Y-114875009D01*
X151503239Y-114803037D01*
X151558243Y-114743656D01*
X151624401Y-114696673D01*
X151701807Y-114662141D01*
X151792585Y-114640360D01*
X151899419Y-114632648D01*
X152006839Y-114640958D01*
X152097897Y-114664448D01*
X152175453Y-114701822D01*
X152241695Y-114752998D01*
X152297124Y-114817150D01*
X152336042Y-114887270D01*
X152359619Y-114964667D01*
X152367725Y-115051219D01*
X152358604Y-115140436D01*
X152330813Y-115229180D01*
X152284201Y-115315173D01*
X152208356Y-115413278D01*
X152106547Y-115516650D01*
X151923966Y-115678801D01*
X151773624Y-115808934D01*
X151710833Y-115868761D01*
X151667111Y-115919777D01*
X151633073Y-115969145D01*
X152369740Y-115969145D01*
G37*
G36*
X153185461Y-114639378D02*
G01*
X153261924Y-114658625D01*
X153328994Y-114689601D01*
X153388141Y-114732390D01*
X153438092Y-114785636D01*
X153477335Y-114848235D01*
X153506141Y-114921631D01*
X153523970Y-115007805D01*
X153340605Y-115019528D01*
X153308479Y-114921410D01*
X153270904Y-114863183D01*
X153216932Y-114819647D01*
X153156209Y-114793882D01*
X153086440Y-114785055D01*
X153029318Y-114790657D01*
X152978183Y-114806985D01*
X152931742Y-114834057D01*
X152879304Y-114881081D01*
X152833495Y-114941939D01*
X152794356Y-115018979D01*
X152768428Y-115101878D01*
X152750060Y-115214967D01*
X152742149Y-115365834D01*
X152790935Y-115302839D01*
X152845077Y-115253114D01*
X152904998Y-115215259D01*
X152970654Y-115187805D01*
X153037713Y-115171518D01*
X153106956Y-115166074D01*
X153196332Y-115174695D01*
X153277325Y-115199936D01*
X153351794Y-115241924D01*
X153421022Y-115302178D01*
X153476873Y-115373808D01*
X153517058Y-115454984D01*
X153541934Y-115547531D01*
X153550623Y-115653888D01*
X153543729Y-115746950D01*
X153523386Y-115834416D01*
X153489624Y-115917396D01*
X153443064Y-115993341D01*
X153387400Y-116054934D01*
X153322103Y-116103784D01*
X153248734Y-116139395D01*
X153168658Y-116161026D01*
X153080303Y-116168447D01*
X152968447Y-116157453D01*
X152870190Y-116125651D01*
X152782709Y-116073297D01*
X152704139Y-115998637D01*
X152656848Y-115931004D01*
X152617286Y-115845220D01*
X152586450Y-115737617D01*
X152573913Y-115655170D01*
X152770817Y-115655170D01*
X152780917Y-115748387D01*
X152811300Y-115837711D01*
X152842615Y-115892230D01*
X152880254Y-115936028D01*
X152924507Y-115970427D01*
X152999712Y-116004836D01*
X153077189Y-116016039D01*
X153150915Y-116005710D01*
X153217039Y-115974995D01*
X153277957Y-115921792D01*
X153323240Y-115854319D01*
X153351777Y-115770366D01*
X153362037Y-115665429D01*
X153351923Y-115564705D01*
X153323789Y-115484364D01*
X153279056Y-115419965D01*
X153218881Y-115370055D01*
X153150148Y-115340412D01*
X153070045Y-115330205D01*
X152990468Y-115340297D01*
X152920604Y-115369857D01*
X152857920Y-115419965D01*
X152810330Y-115484468D01*
X152781119Y-115561673D01*
X152770817Y-115655170D01*
X152573913Y-115655170D01*
X152566109Y-115603853D01*
X152558692Y-115439016D01*
X152566817Y-115255055D01*
X152589181Y-115104482D01*
X152623216Y-114982195D01*
X152667033Y-114883660D01*
X152719526Y-114805022D01*
X152779713Y-114742857D01*
X152846485Y-114695250D01*
X152920737Y-114661043D01*
X153003872Y-114639963D01*
X153097705Y-114632648D01*
X153185461Y-114639378D01*
G37*
D10*
X151908082Y-136229400D02*
X152122368Y-136300828D01*
X152122368Y-136300828D02*
X152479510Y-136300828D01*
X152479510Y-136300828D02*
X152622368Y-136229400D01*
X152622368Y-136229400D02*
X152693796Y-136157971D01*
X152693796Y-136157971D02*
X152765225Y-136015114D01*
X152765225Y-136015114D02*
X152765225Y-135872257D01*
X152765225Y-135872257D02*
X152693796Y-135729400D01*
X152693796Y-135729400D02*
X152622368Y-135657971D01*
X152622368Y-135657971D02*
X152479510Y-135586542D01*
X152479510Y-135586542D02*
X152193796Y-135515114D01*
X152193796Y-135515114D02*
X152050939Y-135443685D01*
X152050939Y-135443685D02*
X151979510Y-135372257D01*
X151979510Y-135372257D02*
X151908082Y-135229400D01*
X151908082Y-135229400D02*
X151908082Y-135086542D01*
X151908082Y-135086542D02*
X151979510Y-134943685D01*
X151979510Y-134943685D02*
X152050939Y-134872257D01*
X152050939Y-134872257D02*
X152193796Y-134800828D01*
X152193796Y-134800828D02*
X152550939Y-134800828D01*
X152550939Y-134800828D02*
X152765225Y-134872257D01*
X153193796Y-134800828D02*
X154050939Y-134800828D01*
X153622367Y-136300828D02*
X153622367Y-134800828D01*
X154479510Y-135872257D02*
X155193796Y-135872257D01*
X154336653Y-136300828D02*
X154836653Y-134800828D01*
X154836653Y-134800828D02*
X155336653Y-136300828D01*
X156693795Y-136300828D02*
X156193795Y-135586542D01*
X155836652Y-136300828D02*
X155836652Y-134800828D01*
X155836652Y-134800828D02*
X156408081Y-134800828D01*
X156408081Y-134800828D02*
X156550938Y-134872257D01*
X156550938Y-134872257D02*
X156622367Y-134943685D01*
X156622367Y-134943685D02*
X156693795Y-135086542D01*
X156693795Y-135086542D02*
X156693795Y-135300828D01*
X156693795Y-135300828D02*
X156622367Y-135443685D01*
X156622367Y-135443685D02*
X156550938Y-135515114D01*
X156550938Y-135515114D02*
X156408081Y-135586542D01*
X156408081Y-135586542D02*
X155836652Y-135586542D01*
X157122367Y-134800828D02*
X157979510Y-134800828D01*
X157550938Y-136300828D02*
X157550938Y-134800828D01*
X162661653Y-136157971D02*
X162590225Y-136229400D01*
X162590225Y-136229400D02*
X162375939Y-136300828D01*
X162375939Y-136300828D02*
X162233082Y-136300828D01*
X162233082Y-136300828D02*
X162018796Y-136229400D01*
X162018796Y-136229400D02*
X161875939Y-136086542D01*
X161875939Y-136086542D02*
X161804510Y-135943685D01*
X161804510Y-135943685D02*
X161733082Y-135657971D01*
X161733082Y-135657971D02*
X161733082Y-135443685D01*
X161733082Y-135443685D02*
X161804510Y-135157971D01*
X161804510Y-135157971D02*
X161875939Y-135015114D01*
X161875939Y-135015114D02*
X162018796Y-134872257D01*
X162018796Y-134872257D02*
X162233082Y-134800828D01*
X162233082Y-134800828D02*
X162375939Y-134800828D01*
X162375939Y-134800828D02*
X162590225Y-134872257D01*
X162590225Y-134872257D02*
X162661653Y-134943685D01*
X134054510Y-83229400D02*
X135197368Y-83229400D01*
X134625939Y-83800828D02*
X134625939Y-82657971D01*
X145054510Y-83229400D02*
X146197368Y-83229400D01*
D12*
X127479580Y-103086666D02*
X127527200Y-103134285D01*
X127527200Y-103134285D02*
X127574819Y-103277142D01*
X127574819Y-103277142D02*
X127574819Y-103372380D01*
X127574819Y-103372380D02*
X127527200Y-103515237D01*
X127527200Y-103515237D02*
X127431961Y-103610475D01*
X127431961Y-103610475D02*
X127336723Y-103658094D01*
X127336723Y-103658094D02*
X127146247Y-103705713D01*
X127146247Y-103705713D02*
X127003390Y-103705713D01*
X127003390Y-103705713D02*
X126812914Y-103658094D01*
X126812914Y-103658094D02*
X126717676Y-103610475D01*
X126717676Y-103610475D02*
X126622438Y-103515237D01*
X126622438Y-103515237D02*
X126574819Y-103372380D01*
X126574819Y-103372380D02*
X126574819Y-103277142D01*
X126574819Y-103277142D02*
X126622438Y-103134285D01*
X126622438Y-103134285D02*
X126670057Y-103086666D01*
X126670057Y-102705713D02*
X126622438Y-102658094D01*
X126622438Y-102658094D02*
X126574819Y-102562856D01*
X126574819Y-102562856D02*
X126574819Y-102324761D01*
X126574819Y-102324761D02*
X126622438Y-102229523D01*
X126622438Y-102229523D02*
X126670057Y-102181904D01*
X126670057Y-102181904D02*
X126765295Y-102134285D01*
X126765295Y-102134285D02*
X126860533Y-102134285D01*
X126860533Y-102134285D02*
X127003390Y-102181904D01*
X127003390Y-102181904D02*
X127574819Y-102753332D01*
X127574819Y-102753332D02*
X127574819Y-102134285D01*
X158854819Y-124041666D02*
X158378628Y-124374999D01*
X158854819Y-124613094D02*
X157854819Y-124613094D01*
X157854819Y-124613094D02*
X157854819Y-124232142D01*
X157854819Y-124232142D02*
X157902438Y-124136904D01*
X157902438Y-124136904D02*
X157950057Y-124089285D01*
X157950057Y-124089285D02*
X158045295Y-124041666D01*
X158045295Y-124041666D02*
X158188152Y-124041666D01*
X158188152Y-124041666D02*
X158283390Y-124089285D01*
X158283390Y-124089285D02*
X158331009Y-124136904D01*
X158331009Y-124136904D02*
X158378628Y-124232142D01*
X158378628Y-124232142D02*
X158378628Y-124613094D01*
X158854819Y-123089285D02*
X158854819Y-123660713D01*
X158854819Y-123374999D02*
X157854819Y-123374999D01*
X157854819Y-123374999D02*
X157997676Y-123470237D01*
X157997676Y-123470237D02*
X158092914Y-123565475D01*
X158092914Y-123565475D02*
X158140533Y-123660713D01*
X128832142Y-87204819D02*
X128498809Y-86728628D01*
X128260714Y-87204819D02*
X128260714Y-86204819D01*
X128260714Y-86204819D02*
X128641666Y-86204819D01*
X128641666Y-86204819D02*
X128736904Y-86252438D01*
X128736904Y-86252438D02*
X128784523Y-86300057D01*
X128784523Y-86300057D02*
X128832142Y-86395295D01*
X128832142Y-86395295D02*
X128832142Y-86538152D01*
X128832142Y-86538152D02*
X128784523Y-86633390D01*
X128784523Y-86633390D02*
X128736904Y-86681009D01*
X128736904Y-86681009D02*
X128641666Y-86728628D01*
X128641666Y-86728628D02*
X128260714Y-86728628D01*
X129784523Y-87204819D02*
X129213095Y-87204819D01*
X129498809Y-87204819D02*
X129498809Y-86204819D01*
X129498809Y-86204819D02*
X129403571Y-86347676D01*
X129403571Y-86347676D02*
X129308333Y-86442914D01*
X129308333Y-86442914D02*
X129213095Y-86490533D01*
X130736904Y-87204819D02*
X130165476Y-87204819D01*
X130451190Y-87204819D02*
X130451190Y-86204819D01*
X130451190Y-86204819D02*
X130355952Y-86347676D01*
X130355952Y-86347676D02*
X130260714Y-86442914D01*
X130260714Y-86442914D02*
X130165476Y-86490533D01*
X144404819Y-124041666D02*
X143928628Y-124374999D01*
X144404819Y-124613094D02*
X143404819Y-124613094D01*
X143404819Y-124613094D02*
X143404819Y-124232142D01*
X143404819Y-124232142D02*
X143452438Y-124136904D01*
X143452438Y-124136904D02*
X143500057Y-124089285D01*
X143500057Y-124089285D02*
X143595295Y-124041666D01*
X143595295Y-124041666D02*
X143738152Y-124041666D01*
X143738152Y-124041666D02*
X143833390Y-124089285D01*
X143833390Y-124089285D02*
X143881009Y-124136904D01*
X143881009Y-124136904D02*
X143928628Y-124232142D01*
X143928628Y-124232142D02*
X143928628Y-124613094D01*
X143404819Y-123708332D02*
X143404819Y-123089285D01*
X143404819Y-123089285D02*
X143785771Y-123422618D01*
X143785771Y-123422618D02*
X143785771Y-123279761D01*
X143785771Y-123279761D02*
X143833390Y-123184523D01*
X143833390Y-123184523D02*
X143881009Y-123136904D01*
X143881009Y-123136904D02*
X143976247Y-123089285D01*
X143976247Y-123089285D02*
X144214342Y-123089285D01*
X144214342Y-123089285D02*
X144309580Y-123136904D01*
X144309580Y-123136904D02*
X144357200Y-123184523D01*
X144357200Y-123184523D02*
X144404819Y-123279761D01*
X144404819Y-123279761D02*
X144404819Y-123565475D01*
X144404819Y-123565475D02*
X144357200Y-123660713D01*
X144357200Y-123660713D02*
X144309580Y-123708332D01*
X127459580Y-98366666D02*
X127507200Y-98414285D01*
X127507200Y-98414285D02*
X127554819Y-98557142D01*
X127554819Y-98557142D02*
X127554819Y-98652380D01*
X127554819Y-98652380D02*
X127507200Y-98795237D01*
X127507200Y-98795237D02*
X127411961Y-98890475D01*
X127411961Y-98890475D02*
X127316723Y-98938094D01*
X127316723Y-98938094D02*
X127126247Y-98985713D01*
X127126247Y-98985713D02*
X126983390Y-98985713D01*
X126983390Y-98985713D02*
X126792914Y-98938094D01*
X126792914Y-98938094D02*
X126697676Y-98890475D01*
X126697676Y-98890475D02*
X126602438Y-98795237D01*
X126602438Y-98795237D02*
X126554819Y-98652380D01*
X126554819Y-98652380D02*
X126554819Y-98557142D01*
X126554819Y-98557142D02*
X126602438Y-98414285D01*
X126602438Y-98414285D02*
X126650057Y-98366666D01*
X127554819Y-97414285D02*
X127554819Y-97985713D01*
X127554819Y-97699999D02*
X126554819Y-97699999D01*
X126554819Y-97699999D02*
X126697676Y-97795237D01*
X126697676Y-97795237D02*
X126792914Y-97890475D01*
X126792914Y-97890475D02*
X126840533Y-97985713D01*
X145459580Y-88666666D02*
X145507200Y-88714285D01*
X145507200Y-88714285D02*
X145554819Y-88857142D01*
X145554819Y-88857142D02*
X145554819Y-88952380D01*
X145554819Y-88952380D02*
X145507200Y-89095237D01*
X145507200Y-89095237D02*
X145411961Y-89190475D01*
X145411961Y-89190475D02*
X145316723Y-89238094D01*
X145316723Y-89238094D02*
X145126247Y-89285713D01*
X145126247Y-89285713D02*
X144983390Y-89285713D01*
X144983390Y-89285713D02*
X144792914Y-89238094D01*
X144792914Y-89238094D02*
X144697676Y-89190475D01*
X144697676Y-89190475D02*
X144602438Y-89095237D01*
X144602438Y-89095237D02*
X144554819Y-88952380D01*
X144554819Y-88952380D02*
X144554819Y-88857142D01*
X144554819Y-88857142D02*
X144602438Y-88714285D01*
X144602438Y-88714285D02*
X144650057Y-88666666D01*
X144554819Y-87761904D02*
X144554819Y-88238094D01*
X144554819Y-88238094D02*
X145031009Y-88285713D01*
X145031009Y-88285713D02*
X144983390Y-88238094D01*
X144983390Y-88238094D02*
X144935771Y-88142856D01*
X144935771Y-88142856D02*
X144935771Y-87904761D01*
X144935771Y-87904761D02*
X144983390Y-87809523D01*
X144983390Y-87809523D02*
X145031009Y-87761904D01*
X145031009Y-87761904D02*
X145126247Y-87714285D01*
X145126247Y-87714285D02*
X145364342Y-87714285D01*
X145364342Y-87714285D02*
X145459580Y-87761904D01*
X145459580Y-87761904D02*
X145507200Y-87809523D01*
X145507200Y-87809523D02*
X145554819Y-87904761D01*
X145554819Y-87904761D02*
X145554819Y-88142856D01*
X145554819Y-88142856D02*
X145507200Y-88238094D01*
X145507200Y-88238094D02*
X145459580Y-88285713D01*
D13*
X164072733Y-92550824D02*
X164072733Y-91407824D01*
X165270162Y-92441967D02*
X165215734Y-92496396D01*
X165215734Y-92496396D02*
X165052448Y-92550824D01*
X165052448Y-92550824D02*
X164943591Y-92550824D01*
X164943591Y-92550824D02*
X164780305Y-92496396D01*
X164780305Y-92496396D02*
X164671448Y-92387538D01*
X164671448Y-92387538D02*
X164617019Y-92278681D01*
X164617019Y-92278681D02*
X164562591Y-92060967D01*
X164562591Y-92060967D02*
X164562591Y-91897681D01*
X164562591Y-91897681D02*
X164617019Y-91679967D01*
X164617019Y-91679967D02*
X164671448Y-91571110D01*
X164671448Y-91571110D02*
X164780305Y-91462253D01*
X164780305Y-91462253D02*
X164943591Y-91407824D01*
X164943591Y-91407824D02*
X165052448Y-91407824D01*
X165052448Y-91407824D02*
X165215734Y-91462253D01*
X165215734Y-91462253D02*
X165270162Y-91516681D01*
X165705591Y-91516681D02*
X165760019Y-91462253D01*
X165760019Y-91462253D02*
X165868877Y-91407824D01*
X165868877Y-91407824D02*
X166141019Y-91407824D01*
X166141019Y-91407824D02*
X166249877Y-91462253D01*
X166249877Y-91462253D02*
X166304305Y-91516681D01*
X166304305Y-91516681D02*
X166358734Y-91625538D01*
X166358734Y-91625538D02*
X166358734Y-91734396D01*
X166358734Y-91734396D02*
X166304305Y-91897681D01*
X166304305Y-91897681D02*
X165651162Y-92550824D01*
X165651162Y-92550824D02*
X166358734Y-92550824D01*
X165954169Y-103028162D02*
X165954169Y-102266162D01*
X165954169Y-102266162D02*
X167097169Y-102756019D01*
X166335169Y-101340877D02*
X167097169Y-101340877D01*
X165899741Y-101613019D02*
X166716169Y-101885162D01*
X166716169Y-101885162D02*
X166716169Y-101177591D01*
X167097169Y-100143448D02*
X167097169Y-100796591D01*
X167097169Y-100470020D02*
X165954169Y-100470020D01*
X165954169Y-100470020D02*
X166117455Y-100578877D01*
X166117455Y-100578877D02*
X166226312Y-100687734D01*
X166226312Y-100687734D02*
X166280741Y-100796591D01*
X165954169Y-99109306D02*
X165954169Y-99653592D01*
X165954169Y-99653592D02*
X166498455Y-99708020D01*
X166498455Y-99708020D02*
X166444026Y-99653592D01*
X166444026Y-99653592D02*
X166389598Y-99544735D01*
X166389598Y-99544735D02*
X166389598Y-99272592D01*
X166389598Y-99272592D02*
X166444026Y-99163735D01*
X166444026Y-99163735D02*
X166498455Y-99109306D01*
X166498455Y-99109306D02*
X166607312Y-99054877D01*
X166607312Y-99054877D02*
X166879455Y-99054877D01*
X166879455Y-99054877D02*
X166988312Y-99109306D01*
X166988312Y-99109306D02*
X167042741Y-99163735D01*
X167042741Y-99163735D02*
X167097169Y-99272592D01*
X167097169Y-99272592D02*
X167097169Y-99544735D01*
X167097169Y-99544735D02*
X167042741Y-99653592D01*
X167042741Y-99653592D02*
X166988312Y-99708020D01*
X165954169Y-98673878D02*
X165954169Y-97911878D01*
X165954169Y-97911878D02*
X167097169Y-98401735D01*
X167097169Y-97476450D02*
X165954169Y-97476450D01*
X165954169Y-97476450D02*
X167097169Y-96823307D01*
X167097169Y-96823307D02*
X165954169Y-96823307D01*
D12*
X172641666Y-85429819D02*
X172641666Y-86144104D01*
X172641666Y-86144104D02*
X172594047Y-86286961D01*
X172594047Y-86286961D02*
X172498809Y-86382200D01*
X172498809Y-86382200D02*
X172355952Y-86429819D01*
X172355952Y-86429819D02*
X172260714Y-86429819D01*
X173117857Y-86429819D02*
X173117857Y-85429819D01*
X173117857Y-85429819D02*
X173498809Y-85429819D01*
X173498809Y-85429819D02*
X173594047Y-85477438D01*
X173594047Y-85477438D02*
X173641666Y-85525057D01*
X173641666Y-85525057D02*
X173689285Y-85620295D01*
X173689285Y-85620295D02*
X173689285Y-85763152D01*
X173689285Y-85763152D02*
X173641666Y-85858390D01*
X173641666Y-85858390D02*
X173594047Y-85906009D01*
X173594047Y-85906009D02*
X173498809Y-85953628D01*
X173498809Y-85953628D02*
X173117857Y-85953628D01*
X174641666Y-86429819D02*
X174070238Y-86429819D01*
X174355952Y-86429819D02*
X174355952Y-85429819D01*
X174355952Y-85429819D02*
X174260714Y-85572676D01*
X174260714Y-85572676D02*
X174165476Y-85667914D01*
X174165476Y-85667914D02*
X174070238Y-85715533D01*
D14*
X148353269Y-86713705D02*
X148353269Y-85558005D01*
X149564002Y-86603638D02*
X149508969Y-86658672D01*
X149508969Y-86658672D02*
X149343869Y-86713705D01*
X149343869Y-86713705D02*
X149233802Y-86713705D01*
X149233802Y-86713705D02*
X149068702Y-86658672D01*
X149068702Y-86658672D02*
X148958636Y-86548605D01*
X148958636Y-86548605D02*
X148903602Y-86438538D01*
X148903602Y-86438538D02*
X148848569Y-86218405D01*
X148848569Y-86218405D02*
X148848569Y-86053305D01*
X148848569Y-86053305D02*
X148903602Y-85833172D01*
X148903602Y-85833172D02*
X148958636Y-85723105D01*
X148958636Y-85723105D02*
X149068702Y-85613038D01*
X149068702Y-85613038D02*
X149233802Y-85558005D01*
X149233802Y-85558005D02*
X149343869Y-85558005D01*
X149343869Y-85558005D02*
X149508969Y-85613038D01*
X149508969Y-85613038D02*
X149564002Y-85668072D01*
X150664669Y-86713705D02*
X150004269Y-86713705D01*
X150334469Y-86713705D02*
X150334469Y-85558005D01*
X150334469Y-85558005D02*
X150224402Y-85723105D01*
X150224402Y-85723105D02*
X150114336Y-85833172D01*
X150114336Y-85833172D02*
X150004269Y-85888205D01*
X150883005Y-97194703D02*
X150883005Y-96424236D01*
X150883005Y-96424236D02*
X152038705Y-96919536D01*
X151268238Y-95488669D02*
X152038705Y-95488669D01*
X150827972Y-95763836D02*
X151653472Y-96039002D01*
X151653472Y-96039002D02*
X151653472Y-95323569D01*
X152038705Y-94277935D02*
X152038705Y-94938335D01*
X152038705Y-94608135D02*
X150883005Y-94608135D01*
X150883005Y-94608135D02*
X151048105Y-94718202D01*
X151048105Y-94718202D02*
X151158172Y-94828269D01*
X151158172Y-94828269D02*
X151213205Y-94938335D01*
X150883005Y-93232302D02*
X150883005Y-93782635D01*
X150883005Y-93782635D02*
X151433338Y-93837668D01*
X151433338Y-93837668D02*
X151378305Y-93782635D01*
X151378305Y-93782635D02*
X151323272Y-93672568D01*
X151323272Y-93672568D02*
X151323272Y-93397402D01*
X151323272Y-93397402D02*
X151378305Y-93287335D01*
X151378305Y-93287335D02*
X151433338Y-93232302D01*
X151433338Y-93232302D02*
X151543405Y-93177268D01*
X151543405Y-93177268D02*
X151818572Y-93177268D01*
X151818572Y-93177268D02*
X151928638Y-93232302D01*
X151928638Y-93232302D02*
X151983672Y-93287335D01*
X151983672Y-93287335D02*
X152038705Y-93397402D01*
X152038705Y-93397402D02*
X152038705Y-93672568D01*
X152038705Y-93672568D02*
X151983672Y-93782635D01*
X151983672Y-93782635D02*
X151928638Y-93837668D01*
X150883005Y-92792035D02*
X150883005Y-92021568D01*
X150883005Y-92021568D02*
X152038705Y-92516868D01*
X152038705Y-91581301D02*
X150883005Y-91581301D01*
X150883005Y-91581301D02*
X152038705Y-90920901D01*
X152038705Y-90920901D02*
X150883005Y-90920901D01*
D12*
X139666666Y-132454819D02*
X139666666Y-133169104D01*
X139666666Y-133169104D02*
X139619047Y-133311961D01*
X139619047Y-133311961D02*
X139523809Y-133407200D01*
X139523809Y-133407200D02*
X139380952Y-133454819D01*
X139380952Y-133454819D02*
X139285714Y-133454819D01*
X140666666Y-133454819D02*
X140095238Y-133454819D01*
X140380952Y-133454819D02*
X140380952Y-132454819D01*
X140380952Y-132454819D02*
X140285714Y-132597676D01*
X140285714Y-132597676D02*
X140190476Y-132692914D01*
X140190476Y-132692914D02*
X140095238Y-132740533D01*
X156459580Y-86466666D02*
X156507200Y-86514285D01*
X156507200Y-86514285D02*
X156554819Y-86657142D01*
X156554819Y-86657142D02*
X156554819Y-86752380D01*
X156554819Y-86752380D02*
X156507200Y-86895237D01*
X156507200Y-86895237D02*
X156411961Y-86990475D01*
X156411961Y-86990475D02*
X156316723Y-87038094D01*
X156316723Y-87038094D02*
X156126247Y-87085713D01*
X156126247Y-87085713D02*
X155983390Y-87085713D01*
X155983390Y-87085713D02*
X155792914Y-87038094D01*
X155792914Y-87038094D02*
X155697676Y-86990475D01*
X155697676Y-86990475D02*
X155602438Y-86895237D01*
X155602438Y-86895237D02*
X155554819Y-86752380D01*
X155554819Y-86752380D02*
X155554819Y-86657142D01*
X155554819Y-86657142D02*
X155602438Y-86514285D01*
X155602438Y-86514285D02*
X155650057Y-86466666D01*
X155888152Y-85609523D02*
X156554819Y-85609523D01*
X155507200Y-85847618D02*
X156221485Y-86085713D01*
X156221485Y-86085713D02*
X156221485Y-85466666D01*
X157216666Y-78879819D02*
X157216666Y-79594104D01*
X157216666Y-79594104D02*
X157169047Y-79736961D01*
X157169047Y-79736961D02*
X157073809Y-79832200D01*
X157073809Y-79832200D02*
X156930952Y-79879819D01*
X156930952Y-79879819D02*
X156835714Y-79879819D01*
X157692857Y-79879819D02*
X157692857Y-78879819D01*
X157692857Y-78879819D02*
X158073809Y-78879819D01*
X158073809Y-78879819D02*
X158169047Y-78927438D01*
X158169047Y-78927438D02*
X158216666Y-78975057D01*
X158216666Y-78975057D02*
X158264285Y-79070295D01*
X158264285Y-79070295D02*
X158264285Y-79213152D01*
X158264285Y-79213152D02*
X158216666Y-79308390D01*
X158216666Y-79308390D02*
X158169047Y-79356009D01*
X158169047Y-79356009D02*
X158073809Y-79403628D01*
X158073809Y-79403628D02*
X157692857Y-79403628D01*
X159169047Y-78879819D02*
X158692857Y-78879819D01*
X158692857Y-78879819D02*
X158645238Y-79356009D01*
X158645238Y-79356009D02*
X158692857Y-79308390D01*
X158692857Y-79308390D02*
X158788095Y-79260771D01*
X158788095Y-79260771D02*
X159026190Y-79260771D01*
X159026190Y-79260771D02*
X159121428Y-79308390D01*
X159121428Y-79308390D02*
X159169047Y-79356009D01*
X159169047Y-79356009D02*
X159216666Y-79451247D01*
X159216666Y-79451247D02*
X159216666Y-79689342D01*
X159216666Y-79689342D02*
X159169047Y-79784580D01*
X159169047Y-79784580D02*
X159121428Y-79832200D01*
X159121428Y-79832200D02*
X159026190Y-79879819D01*
X159026190Y-79879819D02*
X158788095Y-79879819D01*
X158788095Y-79879819D02*
X158692857Y-79832200D01*
X158692857Y-79832200D02*
X158645238Y-79784580D01*
X141004761Y-70250057D02*
X140909523Y-70202438D01*
X140909523Y-70202438D02*
X140814285Y-70107200D01*
X140814285Y-70107200D02*
X140671428Y-69964342D01*
X140671428Y-69964342D02*
X140576190Y-69916723D01*
X140576190Y-69916723D02*
X140480952Y-69916723D01*
X140528571Y-70154819D02*
X140433333Y-70107200D01*
X140433333Y-70107200D02*
X140338095Y-70011961D01*
X140338095Y-70011961D02*
X140290476Y-69821485D01*
X140290476Y-69821485D02*
X140290476Y-69488152D01*
X140290476Y-69488152D02*
X140338095Y-69297676D01*
X140338095Y-69297676D02*
X140433333Y-69202438D01*
X140433333Y-69202438D02*
X140528571Y-69154819D01*
X140528571Y-69154819D02*
X140719047Y-69154819D01*
X140719047Y-69154819D02*
X140814285Y-69202438D01*
X140814285Y-69202438D02*
X140909523Y-69297676D01*
X140909523Y-69297676D02*
X140957142Y-69488152D01*
X140957142Y-69488152D02*
X140957142Y-69821485D01*
X140957142Y-69821485D02*
X140909523Y-70011961D01*
X140909523Y-70011961D02*
X140814285Y-70107200D01*
X140814285Y-70107200D02*
X140719047Y-70154819D01*
X140719047Y-70154819D02*
X140528571Y-70154819D01*
X141909523Y-70154819D02*
X141338095Y-70154819D01*
X141623809Y-70154819D02*
X141623809Y-69154819D01*
X141623809Y-69154819D02*
X141528571Y-69297676D01*
X141528571Y-69297676D02*
X141433333Y-69392914D01*
X141433333Y-69392914D02*
X141338095Y-69440533D01*
X130483333Y-114354819D02*
X130150000Y-113878628D01*
X129911905Y-114354819D02*
X129911905Y-113354819D01*
X129911905Y-113354819D02*
X130292857Y-113354819D01*
X130292857Y-113354819D02*
X130388095Y-113402438D01*
X130388095Y-113402438D02*
X130435714Y-113450057D01*
X130435714Y-113450057D02*
X130483333Y-113545295D01*
X130483333Y-113545295D02*
X130483333Y-113688152D01*
X130483333Y-113688152D02*
X130435714Y-113783390D01*
X130435714Y-113783390D02*
X130388095Y-113831009D01*
X130388095Y-113831009D02*
X130292857Y-113878628D01*
X130292857Y-113878628D02*
X129911905Y-113878628D01*
X130959524Y-114354819D02*
X131150000Y-114354819D01*
X131150000Y-114354819D02*
X131245238Y-114307200D01*
X131245238Y-114307200D02*
X131292857Y-114259580D01*
X131292857Y-114259580D02*
X131388095Y-114116723D01*
X131388095Y-114116723D02*
X131435714Y-113926247D01*
X131435714Y-113926247D02*
X131435714Y-113545295D01*
X131435714Y-113545295D02*
X131388095Y-113450057D01*
X131388095Y-113450057D02*
X131340476Y-113402438D01*
X131340476Y-113402438D02*
X131245238Y-113354819D01*
X131245238Y-113354819D02*
X131054762Y-113354819D01*
X131054762Y-113354819D02*
X130959524Y-113402438D01*
X130959524Y-113402438D02*
X130911905Y-113450057D01*
X130911905Y-113450057D02*
X130864286Y-113545295D01*
X130864286Y-113545295D02*
X130864286Y-113783390D01*
X130864286Y-113783390D02*
X130911905Y-113878628D01*
X130911905Y-113878628D02*
X130959524Y-113926247D01*
X130959524Y-113926247D02*
X131054762Y-113973866D01*
X131054762Y-113973866D02*
X131245238Y-113973866D01*
X131245238Y-113973866D02*
X131340476Y-113926247D01*
X131340476Y-113926247D02*
X131388095Y-113878628D01*
X131388095Y-113878628D02*
X131435714Y-113783390D01*
X135628571Y-117812295D02*
X135895238Y-118612295D01*
X135895238Y-118612295D02*
X136161904Y-117812295D01*
X136885714Y-118612295D02*
X136619047Y-118231342D01*
X136428571Y-118612295D02*
X136428571Y-117812295D01*
X136428571Y-117812295D02*
X136733333Y-117812295D01*
X136733333Y-117812295D02*
X136809523Y-117850390D01*
X136809523Y-117850390D02*
X136847618Y-117888485D01*
X136847618Y-117888485D02*
X136885714Y-117964676D01*
X136885714Y-117964676D02*
X136885714Y-118078961D01*
X136885714Y-118078961D02*
X136847618Y-118155152D01*
X136847618Y-118155152D02*
X136809523Y-118193247D01*
X136809523Y-118193247D02*
X136733333Y-118231342D01*
X136733333Y-118231342D02*
X136428571Y-118231342D01*
X137228571Y-118193247D02*
X137495237Y-118193247D01*
X137609523Y-118612295D02*
X137228571Y-118612295D01*
X137228571Y-118612295D02*
X137228571Y-117812295D01*
X137228571Y-117812295D02*
X137609523Y-117812295D01*
X138219047Y-118193247D02*
X137952381Y-118193247D01*
X137952381Y-118612295D02*
X137952381Y-117812295D01*
X137952381Y-117812295D02*
X138333333Y-117812295D01*
X134380951Y-80554819D02*
X134380951Y-79554819D01*
X134380951Y-79554819D02*
X134761903Y-79554819D01*
X134761903Y-79554819D02*
X134857141Y-79602438D01*
X134857141Y-79602438D02*
X134904760Y-79650057D01*
X134904760Y-79650057D02*
X134952379Y-79745295D01*
X134952379Y-79745295D02*
X134952379Y-79888152D01*
X134952379Y-79888152D02*
X134904760Y-79983390D01*
X134904760Y-79983390D02*
X134857141Y-80031009D01*
X134857141Y-80031009D02*
X134761903Y-80078628D01*
X134761903Y-80078628D02*
X134380951Y-80078628D01*
X135523808Y-80554819D02*
X135428570Y-80507200D01*
X135428570Y-80507200D02*
X135380951Y-80459580D01*
X135380951Y-80459580D02*
X135333332Y-80364342D01*
X135333332Y-80364342D02*
X135333332Y-80078628D01*
X135333332Y-80078628D02*
X135380951Y-79983390D01*
X135380951Y-79983390D02*
X135428570Y-79935771D01*
X135428570Y-79935771D02*
X135523808Y-79888152D01*
X135523808Y-79888152D02*
X135666665Y-79888152D01*
X135666665Y-79888152D02*
X135761903Y-79935771D01*
X135761903Y-79935771D02*
X135809522Y-79983390D01*
X135809522Y-79983390D02*
X135857141Y-80078628D01*
X135857141Y-80078628D02*
X135857141Y-80364342D01*
X135857141Y-80364342D02*
X135809522Y-80459580D01*
X135809522Y-80459580D02*
X135761903Y-80507200D01*
X135761903Y-80507200D02*
X135666665Y-80554819D01*
X135666665Y-80554819D02*
X135523808Y-80554819D01*
X136142856Y-79888152D02*
X136523808Y-79888152D01*
X136285713Y-79554819D02*
X136285713Y-80411961D01*
X136285713Y-80411961D02*
X136333332Y-80507200D01*
X136333332Y-80507200D02*
X136428570Y-80554819D01*
X136428570Y-80554819D02*
X136523808Y-80554819D01*
X136619047Y-80650057D02*
X137380951Y-80650057D01*
X138190475Y-80459580D02*
X138142856Y-80507200D01*
X138142856Y-80507200D02*
X137999999Y-80554819D01*
X137999999Y-80554819D02*
X137904761Y-80554819D01*
X137904761Y-80554819D02*
X137761904Y-80507200D01*
X137761904Y-80507200D02*
X137666666Y-80411961D01*
X137666666Y-80411961D02*
X137619047Y-80316723D01*
X137619047Y-80316723D02*
X137571428Y-80126247D01*
X137571428Y-80126247D02*
X137571428Y-79983390D01*
X137571428Y-79983390D02*
X137619047Y-79792914D01*
X137619047Y-79792914D02*
X137666666Y-79697676D01*
X137666666Y-79697676D02*
X137761904Y-79602438D01*
X137761904Y-79602438D02*
X137904761Y-79554819D01*
X137904761Y-79554819D02*
X137999999Y-79554819D01*
X137999999Y-79554819D02*
X138142856Y-79602438D01*
X138142856Y-79602438D02*
X138190475Y-79650057D01*
X138761904Y-80554819D02*
X138666666Y-80507200D01*
X138666666Y-80507200D02*
X138619047Y-80459580D01*
X138619047Y-80459580D02*
X138571428Y-80364342D01*
X138571428Y-80364342D02*
X138571428Y-80078628D01*
X138571428Y-80078628D02*
X138619047Y-79983390D01*
X138619047Y-79983390D02*
X138666666Y-79935771D01*
X138666666Y-79935771D02*
X138761904Y-79888152D01*
X138761904Y-79888152D02*
X138904761Y-79888152D01*
X138904761Y-79888152D02*
X138999999Y-79935771D01*
X138999999Y-79935771D02*
X139047618Y-79983390D01*
X139047618Y-79983390D02*
X139095237Y-80078628D01*
X139095237Y-80078628D02*
X139095237Y-80364342D01*
X139095237Y-80364342D02*
X139047618Y-80459580D01*
X139047618Y-80459580D02*
X138999999Y-80507200D01*
X138999999Y-80507200D02*
X138904761Y-80554819D01*
X138904761Y-80554819D02*
X138761904Y-80554819D01*
X139523809Y-79888152D02*
X139523809Y-80554819D01*
X139523809Y-79983390D02*
X139571428Y-79935771D01*
X139571428Y-79935771D02*
X139666666Y-79888152D01*
X139666666Y-79888152D02*
X139809523Y-79888152D01*
X139809523Y-79888152D02*
X139904761Y-79935771D01*
X139904761Y-79935771D02*
X139952380Y-80031009D01*
X139952380Y-80031009D02*
X139952380Y-80554819D01*
X140428571Y-79888152D02*
X140428571Y-80554819D01*
X140428571Y-79983390D02*
X140476190Y-79935771D01*
X140476190Y-79935771D02*
X140571428Y-79888152D01*
X140571428Y-79888152D02*
X140714285Y-79888152D01*
X140714285Y-79888152D02*
X140809523Y-79935771D01*
X140809523Y-79935771D02*
X140857142Y-80031009D01*
X140857142Y-80031009D02*
X140857142Y-80554819D01*
X141714285Y-80507200D02*
X141619047Y-80554819D01*
X141619047Y-80554819D02*
X141428571Y-80554819D01*
X141428571Y-80554819D02*
X141333333Y-80507200D01*
X141333333Y-80507200D02*
X141285714Y-80411961D01*
X141285714Y-80411961D02*
X141285714Y-80031009D01*
X141285714Y-80031009D02*
X141333333Y-79935771D01*
X141333333Y-79935771D02*
X141428571Y-79888152D01*
X141428571Y-79888152D02*
X141619047Y-79888152D01*
X141619047Y-79888152D02*
X141714285Y-79935771D01*
X141714285Y-79935771D02*
X141761904Y-80031009D01*
X141761904Y-80031009D02*
X141761904Y-80126247D01*
X141761904Y-80126247D02*
X141285714Y-80221485D01*
X142619047Y-80507200D02*
X142523809Y-80554819D01*
X142523809Y-80554819D02*
X142333333Y-80554819D01*
X142333333Y-80554819D02*
X142238095Y-80507200D01*
X142238095Y-80507200D02*
X142190476Y-80459580D01*
X142190476Y-80459580D02*
X142142857Y-80364342D01*
X142142857Y-80364342D02*
X142142857Y-80078628D01*
X142142857Y-80078628D02*
X142190476Y-79983390D01*
X142190476Y-79983390D02*
X142238095Y-79935771D01*
X142238095Y-79935771D02*
X142333333Y-79888152D01*
X142333333Y-79888152D02*
X142523809Y-79888152D01*
X142523809Y-79888152D02*
X142619047Y-79935771D01*
X142904762Y-79888152D02*
X143285714Y-79888152D01*
X143047619Y-79554819D02*
X143047619Y-80411961D01*
X143047619Y-80411961D02*
X143095238Y-80507200D01*
X143095238Y-80507200D02*
X143190476Y-80554819D01*
X143190476Y-80554819D02*
X143285714Y-80554819D01*
X143761905Y-80554819D02*
X143666667Y-80507200D01*
X143666667Y-80507200D02*
X143619048Y-80459580D01*
X143619048Y-80459580D02*
X143571429Y-80364342D01*
X143571429Y-80364342D02*
X143571429Y-80078628D01*
X143571429Y-80078628D02*
X143619048Y-79983390D01*
X143619048Y-79983390D02*
X143666667Y-79935771D01*
X143666667Y-79935771D02*
X143761905Y-79888152D01*
X143761905Y-79888152D02*
X143904762Y-79888152D01*
X143904762Y-79888152D02*
X144000000Y-79935771D01*
X144000000Y-79935771D02*
X144047619Y-79983390D01*
X144047619Y-79983390D02*
X144095238Y-80078628D01*
X144095238Y-80078628D02*
X144095238Y-80364342D01*
X144095238Y-80364342D02*
X144047619Y-80459580D01*
X144047619Y-80459580D02*
X144000000Y-80507200D01*
X144000000Y-80507200D02*
X143904762Y-80554819D01*
X143904762Y-80554819D02*
X143761905Y-80554819D01*
X144523810Y-80554819D02*
X144523810Y-79888152D01*
X144523810Y-80078628D02*
X144571429Y-79983390D01*
X144571429Y-79983390D02*
X144619048Y-79935771D01*
X144619048Y-79935771D02*
X144714286Y-79888152D01*
X144714286Y-79888152D02*
X144809524Y-79888152D01*
X145666667Y-80554819D02*
X145095239Y-80554819D01*
X145380953Y-80554819D02*
X145380953Y-79554819D01*
X145380953Y-79554819D02*
X145285715Y-79697676D01*
X145285715Y-79697676D02*
X145190477Y-79792914D01*
X145190477Y-79792914D02*
X145095239Y-79840533D01*
X128238096Y-85612295D02*
X128238096Y-84812295D01*
X128619048Y-85612295D02*
X128619048Y-84812295D01*
X128619048Y-84812295D02*
X129076191Y-85612295D01*
X129076191Y-85612295D02*
X129076191Y-84812295D01*
X129342857Y-84812295D02*
X129609524Y-85612295D01*
X129609524Y-85612295D02*
X129876190Y-84812295D01*
X143841666Y-68454819D02*
X143841666Y-69169104D01*
X143841666Y-69169104D02*
X143794047Y-69311961D01*
X143794047Y-69311961D02*
X143698809Y-69407200D01*
X143698809Y-69407200D02*
X143555952Y-69454819D01*
X143555952Y-69454819D02*
X143460714Y-69454819D01*
X144317857Y-69454819D02*
X144317857Y-68454819D01*
X144317857Y-68454819D02*
X144698809Y-68454819D01*
X144698809Y-68454819D02*
X144794047Y-68502438D01*
X144794047Y-68502438D02*
X144841666Y-68550057D01*
X144841666Y-68550057D02*
X144889285Y-68645295D01*
X144889285Y-68645295D02*
X144889285Y-68788152D01*
X144889285Y-68788152D02*
X144841666Y-68883390D01*
X144841666Y-68883390D02*
X144794047Y-68931009D01*
X144794047Y-68931009D02*
X144698809Y-68978628D01*
X144698809Y-68978628D02*
X144317857Y-68978628D01*
X145365476Y-69454819D02*
X145555952Y-69454819D01*
X145555952Y-69454819D02*
X145651190Y-69407200D01*
X145651190Y-69407200D02*
X145698809Y-69359580D01*
X145698809Y-69359580D02*
X145794047Y-69216723D01*
X145794047Y-69216723D02*
X145841666Y-69026247D01*
X145841666Y-69026247D02*
X145841666Y-68645295D01*
X145841666Y-68645295D02*
X145794047Y-68550057D01*
X145794047Y-68550057D02*
X145746428Y-68502438D01*
X145746428Y-68502438D02*
X145651190Y-68454819D01*
X145651190Y-68454819D02*
X145460714Y-68454819D01*
X145460714Y-68454819D02*
X145365476Y-68502438D01*
X145365476Y-68502438D02*
X145317857Y-68550057D01*
X145317857Y-68550057D02*
X145270238Y-68645295D01*
X145270238Y-68645295D02*
X145270238Y-68883390D01*
X145270238Y-68883390D02*
X145317857Y-68978628D01*
X145317857Y-68978628D02*
X145365476Y-69026247D01*
X145365476Y-69026247D02*
X145460714Y-69073866D01*
X145460714Y-69073866D02*
X145651190Y-69073866D01*
X145651190Y-69073866D02*
X145746428Y-69026247D01*
X145746428Y-69026247D02*
X145794047Y-68978628D01*
X145794047Y-68978628D02*
X145841666Y-68883390D01*
X151629819Y-124041666D02*
X151153628Y-124374999D01*
X151629819Y-124613094D02*
X150629819Y-124613094D01*
X150629819Y-124613094D02*
X150629819Y-124232142D01*
X150629819Y-124232142D02*
X150677438Y-124136904D01*
X150677438Y-124136904D02*
X150725057Y-124089285D01*
X150725057Y-124089285D02*
X150820295Y-124041666D01*
X150820295Y-124041666D02*
X150963152Y-124041666D01*
X150963152Y-124041666D02*
X151058390Y-124089285D01*
X151058390Y-124089285D02*
X151106009Y-124136904D01*
X151106009Y-124136904D02*
X151153628Y-124232142D01*
X151153628Y-124232142D02*
X151153628Y-124613094D01*
X150725057Y-123660713D02*
X150677438Y-123613094D01*
X150677438Y-123613094D02*
X150629819Y-123517856D01*
X150629819Y-123517856D02*
X150629819Y-123279761D01*
X150629819Y-123279761D02*
X150677438Y-123184523D01*
X150677438Y-123184523D02*
X150725057Y-123136904D01*
X150725057Y-123136904D02*
X150820295Y-123089285D01*
X150820295Y-123089285D02*
X150915533Y-123089285D01*
X150915533Y-123089285D02*
X151058390Y-123136904D01*
X151058390Y-123136904D02*
X151629819Y-123708332D01*
X151629819Y-123708332D02*
X151629819Y-123089285D01*
X153341666Y-76629819D02*
X153341666Y-77344104D01*
X153341666Y-77344104D02*
X153294047Y-77486961D01*
X153294047Y-77486961D02*
X153198809Y-77582200D01*
X153198809Y-77582200D02*
X153055952Y-77629819D01*
X153055952Y-77629819D02*
X152960714Y-77629819D01*
X153817857Y-77629819D02*
X153817857Y-76629819D01*
X153817857Y-76629819D02*
X154198809Y-76629819D01*
X154198809Y-76629819D02*
X154294047Y-76677438D01*
X154294047Y-76677438D02*
X154341666Y-76725057D01*
X154341666Y-76725057D02*
X154389285Y-76820295D01*
X154389285Y-76820295D02*
X154389285Y-76963152D01*
X154389285Y-76963152D02*
X154341666Y-77058390D01*
X154341666Y-77058390D02*
X154294047Y-77106009D01*
X154294047Y-77106009D02*
X154198809Y-77153628D01*
X154198809Y-77153628D02*
X153817857Y-77153628D01*
X155246428Y-76629819D02*
X155055952Y-76629819D01*
X155055952Y-76629819D02*
X154960714Y-76677438D01*
X154960714Y-76677438D02*
X154913095Y-76725057D01*
X154913095Y-76725057D02*
X154817857Y-76867914D01*
X154817857Y-76867914D02*
X154770238Y-77058390D01*
X154770238Y-77058390D02*
X154770238Y-77439342D01*
X154770238Y-77439342D02*
X154817857Y-77534580D01*
X154817857Y-77534580D02*
X154865476Y-77582200D01*
X154865476Y-77582200D02*
X154960714Y-77629819D01*
X154960714Y-77629819D02*
X155151190Y-77629819D01*
X155151190Y-77629819D02*
X155246428Y-77582200D01*
X155246428Y-77582200D02*
X155294047Y-77534580D01*
X155294047Y-77534580D02*
X155341666Y-77439342D01*
X155341666Y-77439342D02*
X155341666Y-77201247D01*
X155341666Y-77201247D02*
X155294047Y-77106009D01*
X155294047Y-77106009D02*
X155246428Y-77058390D01*
X155246428Y-77058390D02*
X155151190Y-77010771D01*
X155151190Y-77010771D02*
X154960714Y-77010771D01*
X154960714Y-77010771D02*
X154865476Y-77058390D01*
X154865476Y-77058390D02*
X154817857Y-77106009D01*
X154817857Y-77106009D02*
X154770238Y-77201247D01*
X168390476Y-117850390D02*
X168314286Y-117812295D01*
X168314286Y-117812295D02*
X168200000Y-117812295D01*
X168200000Y-117812295D02*
X168085714Y-117850390D01*
X168085714Y-117850390D02*
X168009524Y-117926580D01*
X168009524Y-117926580D02*
X167971429Y-118002771D01*
X167971429Y-118002771D02*
X167933333Y-118155152D01*
X167933333Y-118155152D02*
X167933333Y-118269438D01*
X167933333Y-118269438D02*
X167971429Y-118421819D01*
X167971429Y-118421819D02*
X168009524Y-118498009D01*
X168009524Y-118498009D02*
X168085714Y-118574200D01*
X168085714Y-118574200D02*
X168200000Y-118612295D01*
X168200000Y-118612295D02*
X168276191Y-118612295D01*
X168276191Y-118612295D02*
X168390476Y-118574200D01*
X168390476Y-118574200D02*
X168428572Y-118536104D01*
X168428572Y-118536104D02*
X168428572Y-118269438D01*
X168428572Y-118269438D02*
X168276191Y-118269438D01*
X168771429Y-118612295D02*
X168771429Y-117812295D01*
X168771429Y-117812295D02*
X169228572Y-118612295D01*
X169228572Y-118612295D02*
X169228572Y-117812295D01*
X169609524Y-118612295D02*
X169609524Y-117812295D01*
X169609524Y-117812295D02*
X169800000Y-117812295D01*
X169800000Y-117812295D02*
X169914286Y-117850390D01*
X169914286Y-117850390D02*
X169990476Y-117926580D01*
X169990476Y-117926580D02*
X170028571Y-118002771D01*
X170028571Y-118002771D02*
X170066667Y-118155152D01*
X170066667Y-118155152D02*
X170066667Y-118269438D01*
X170066667Y-118269438D02*
X170028571Y-118421819D01*
X170028571Y-118421819D02*
X169990476Y-118498009D01*
X169990476Y-118498009D02*
X169914286Y-118574200D01*
X169914286Y-118574200D02*
X169800000Y-118612295D01*
X169800000Y-118612295D02*
X169609524Y-118612295D01*
X168816666Y-85404819D02*
X168816666Y-86119104D01*
X168816666Y-86119104D02*
X168769047Y-86261961D01*
X168769047Y-86261961D02*
X168673809Y-86357200D01*
X168673809Y-86357200D02*
X168530952Y-86404819D01*
X168530952Y-86404819D02*
X168435714Y-86404819D01*
X169292857Y-86404819D02*
X169292857Y-85404819D01*
X169292857Y-85404819D02*
X169673809Y-85404819D01*
X169673809Y-85404819D02*
X169769047Y-85452438D01*
X169769047Y-85452438D02*
X169816666Y-85500057D01*
X169816666Y-85500057D02*
X169864285Y-85595295D01*
X169864285Y-85595295D02*
X169864285Y-85738152D01*
X169864285Y-85738152D02*
X169816666Y-85833390D01*
X169816666Y-85833390D02*
X169769047Y-85881009D01*
X169769047Y-85881009D02*
X169673809Y-85928628D01*
X169673809Y-85928628D02*
X169292857Y-85928628D01*
X170245238Y-85500057D02*
X170292857Y-85452438D01*
X170292857Y-85452438D02*
X170388095Y-85404819D01*
X170388095Y-85404819D02*
X170626190Y-85404819D01*
X170626190Y-85404819D02*
X170721428Y-85452438D01*
X170721428Y-85452438D02*
X170769047Y-85500057D01*
X170769047Y-85500057D02*
X170816666Y-85595295D01*
X170816666Y-85595295D02*
X170816666Y-85690533D01*
X170816666Y-85690533D02*
X170769047Y-85833390D01*
X170769047Y-85833390D02*
X170197619Y-86404819D01*
X170197619Y-86404819D02*
X170816666Y-86404819D01*
X161016666Y-81404819D02*
X161016666Y-82119104D01*
X161016666Y-82119104D02*
X160969047Y-82261961D01*
X160969047Y-82261961D02*
X160873809Y-82357200D01*
X160873809Y-82357200D02*
X160730952Y-82404819D01*
X160730952Y-82404819D02*
X160635714Y-82404819D01*
X161492857Y-82404819D02*
X161492857Y-81404819D01*
X161492857Y-81404819D02*
X161873809Y-81404819D01*
X161873809Y-81404819D02*
X161969047Y-81452438D01*
X161969047Y-81452438D02*
X162016666Y-81500057D01*
X162016666Y-81500057D02*
X162064285Y-81595295D01*
X162064285Y-81595295D02*
X162064285Y-81738152D01*
X162064285Y-81738152D02*
X162016666Y-81833390D01*
X162016666Y-81833390D02*
X161969047Y-81881009D01*
X161969047Y-81881009D02*
X161873809Y-81928628D01*
X161873809Y-81928628D02*
X161492857Y-81928628D01*
X162921428Y-81738152D02*
X162921428Y-82404819D01*
X162683333Y-81357200D02*
X162445238Y-82071485D01*
X162445238Y-82071485D02*
X163064285Y-82071485D01*
X132719466Y-85171149D02*
X132719466Y-86106716D01*
X132719466Y-86106716D02*
X132774500Y-86216782D01*
X132774500Y-86216782D02*
X132829533Y-86271816D01*
X132829533Y-86271816D02*
X132939600Y-86326849D01*
X132939600Y-86326849D02*
X133159733Y-86326849D01*
X133159733Y-86326849D02*
X133269800Y-86271816D01*
X133269800Y-86271816D02*
X133324833Y-86216782D01*
X133324833Y-86216782D02*
X133379866Y-86106716D01*
X133379866Y-86106716D02*
X133379866Y-85171149D01*
X134535566Y-86326849D02*
X133875166Y-86326849D01*
X134205366Y-86326849D02*
X134205366Y-85171149D01*
X134205366Y-85171149D02*
X134095299Y-85336249D01*
X134095299Y-85336249D02*
X133985233Y-85446316D01*
X133985233Y-85446316D02*
X133875166Y-85501349D01*
D15*
X137796704Y-106153734D02*
X137796704Y-105677544D01*
X138082419Y-106248972D02*
X137082419Y-105915639D01*
X137082419Y-105915639D02*
X138082419Y-105582306D01*
X138082419Y-105248972D02*
X137082419Y-105248972D01*
X137082419Y-105248972D02*
X137082419Y-105010877D01*
X137082419Y-105010877D02*
X137130038Y-104868020D01*
X137130038Y-104868020D02*
X137225276Y-104772782D01*
X137225276Y-104772782D02*
X137320514Y-104725163D01*
X137320514Y-104725163D02*
X137510990Y-104677544D01*
X137510990Y-104677544D02*
X137653847Y-104677544D01*
X137653847Y-104677544D02*
X137844323Y-104725163D01*
X137844323Y-104725163D02*
X137939561Y-104772782D01*
X137939561Y-104772782D02*
X138034800Y-104868020D01*
X138034800Y-104868020D02*
X138082419Y-105010877D01*
X138082419Y-105010877D02*
X138082419Y-105248972D01*
X137987180Y-103677544D02*
X138034800Y-103725163D01*
X138034800Y-103725163D02*
X138082419Y-103868020D01*
X138082419Y-103868020D02*
X138082419Y-103963258D01*
X138082419Y-103963258D02*
X138034800Y-104106115D01*
X138034800Y-104106115D02*
X137939561Y-104201353D01*
X137939561Y-104201353D02*
X137844323Y-104248972D01*
X137844323Y-104248972D02*
X137653847Y-104296591D01*
X137653847Y-104296591D02*
X137510990Y-104296591D01*
X137510990Y-104296591D02*
X137320514Y-104248972D01*
X137320514Y-104248972D02*
X137225276Y-104201353D01*
X137225276Y-104201353D02*
X137130038Y-104106115D01*
X137130038Y-104106115D02*
X137082419Y-103963258D01*
X137082419Y-103963258D02*
X137082419Y-103868020D01*
X137082419Y-103868020D02*
X137130038Y-103725163D01*
X137130038Y-103725163D02*
X137177657Y-103677544D01*
X137082419Y-103058496D02*
X137082419Y-102963258D01*
X137082419Y-102963258D02*
X137130038Y-102868020D01*
X137130038Y-102868020D02*
X137177657Y-102820401D01*
X137177657Y-102820401D02*
X137272895Y-102772782D01*
X137272895Y-102772782D02*
X137463371Y-102725163D01*
X137463371Y-102725163D02*
X137701466Y-102725163D01*
X137701466Y-102725163D02*
X137891942Y-102772782D01*
X137891942Y-102772782D02*
X137987180Y-102820401D01*
X137987180Y-102820401D02*
X138034800Y-102868020D01*
X138034800Y-102868020D02*
X138082419Y-102963258D01*
X138082419Y-102963258D02*
X138082419Y-103058496D01*
X138082419Y-103058496D02*
X138034800Y-103153734D01*
X138034800Y-103153734D02*
X137987180Y-103201353D01*
X137987180Y-103201353D02*
X137891942Y-103248972D01*
X137891942Y-103248972D02*
X137701466Y-103296591D01*
X137701466Y-103296591D02*
X137463371Y-103296591D01*
X137463371Y-103296591D02*
X137272895Y-103248972D01*
X137272895Y-103248972D02*
X137177657Y-103201353D01*
X137177657Y-103201353D02*
X137130038Y-103153734D01*
X137130038Y-103153734D02*
X137082419Y-103058496D01*
X137510990Y-102153734D02*
X137463371Y-102248972D01*
X137463371Y-102248972D02*
X137415752Y-102296591D01*
X137415752Y-102296591D02*
X137320514Y-102344210D01*
X137320514Y-102344210D02*
X137272895Y-102344210D01*
X137272895Y-102344210D02*
X137177657Y-102296591D01*
X137177657Y-102296591D02*
X137130038Y-102248972D01*
X137130038Y-102248972D02*
X137082419Y-102153734D01*
X137082419Y-102153734D02*
X137082419Y-101963258D01*
X137082419Y-101963258D02*
X137130038Y-101868020D01*
X137130038Y-101868020D02*
X137177657Y-101820401D01*
X137177657Y-101820401D02*
X137272895Y-101772782D01*
X137272895Y-101772782D02*
X137320514Y-101772782D01*
X137320514Y-101772782D02*
X137415752Y-101820401D01*
X137415752Y-101820401D02*
X137463371Y-101868020D01*
X137463371Y-101868020D02*
X137510990Y-101963258D01*
X137510990Y-101963258D02*
X137510990Y-102153734D01*
X137510990Y-102153734D02*
X137558609Y-102248972D01*
X137558609Y-102248972D02*
X137606228Y-102296591D01*
X137606228Y-102296591D02*
X137701466Y-102344210D01*
X137701466Y-102344210D02*
X137891942Y-102344210D01*
X137891942Y-102344210D02*
X137987180Y-102296591D01*
X137987180Y-102296591D02*
X138034800Y-102248972D01*
X138034800Y-102248972D02*
X138082419Y-102153734D01*
X138082419Y-102153734D02*
X138082419Y-101963258D01*
X138082419Y-101963258D02*
X138034800Y-101868020D01*
X138034800Y-101868020D02*
X137987180Y-101820401D01*
X137987180Y-101820401D02*
X137891942Y-101772782D01*
X137891942Y-101772782D02*
X137701466Y-101772782D01*
X137701466Y-101772782D02*
X137606228Y-101820401D01*
X137606228Y-101820401D02*
X137558609Y-101868020D01*
X137558609Y-101868020D02*
X137510990Y-101963258D01*
X137082419Y-101153734D02*
X137082419Y-101058496D01*
X137082419Y-101058496D02*
X137130038Y-100963258D01*
X137130038Y-100963258D02*
X137177657Y-100915639D01*
X137177657Y-100915639D02*
X137272895Y-100868020D01*
X137272895Y-100868020D02*
X137463371Y-100820401D01*
X137463371Y-100820401D02*
X137701466Y-100820401D01*
X137701466Y-100820401D02*
X137891942Y-100868020D01*
X137891942Y-100868020D02*
X137987180Y-100915639D01*
X137987180Y-100915639D02*
X138034800Y-100963258D01*
X138034800Y-100963258D02*
X138082419Y-101058496D01*
X138082419Y-101058496D02*
X138082419Y-101153734D01*
X138082419Y-101153734D02*
X138034800Y-101248972D01*
X138034800Y-101248972D02*
X137987180Y-101296591D01*
X137987180Y-101296591D02*
X137891942Y-101344210D01*
X137891942Y-101344210D02*
X137701466Y-101391829D01*
X137701466Y-101391829D02*
X137463371Y-101391829D01*
X137463371Y-101391829D02*
X137272895Y-101344210D01*
X137272895Y-101344210D02*
X137177657Y-101296591D01*
X137177657Y-101296591D02*
X137130038Y-101248972D01*
X137130038Y-101248972D02*
X137082419Y-101153734D01*
X137415752Y-99963258D02*
X138082419Y-99963258D01*
X137034800Y-100201353D02*
X137749085Y-100439448D01*
X137749085Y-100439448D02*
X137749085Y-99820401D01*
X138082419Y-98963258D02*
X138082419Y-99439448D01*
X138082419Y-99439448D02*
X137082419Y-99439448D01*
X137987180Y-98058496D02*
X138034800Y-98106115D01*
X138034800Y-98106115D02*
X138082419Y-98248972D01*
X138082419Y-98248972D02*
X138082419Y-98344210D01*
X138082419Y-98344210D02*
X138034800Y-98487067D01*
X138034800Y-98487067D02*
X137939561Y-98582305D01*
X137939561Y-98582305D02*
X137844323Y-98629924D01*
X137844323Y-98629924D02*
X137653847Y-98677543D01*
X137653847Y-98677543D02*
X137510990Y-98677543D01*
X137510990Y-98677543D02*
X137320514Y-98629924D01*
X137320514Y-98629924D02*
X137225276Y-98582305D01*
X137225276Y-98582305D02*
X137130038Y-98487067D01*
X137130038Y-98487067D02*
X137082419Y-98344210D01*
X137082419Y-98344210D02*
X137082419Y-98248972D01*
X137082419Y-98248972D02*
X137130038Y-98106115D01*
X137130038Y-98106115D02*
X137177657Y-98058496D01*
X137082419Y-97725162D02*
X138082419Y-97487067D01*
X138082419Y-97487067D02*
X137368133Y-97296591D01*
X137368133Y-97296591D02*
X138082419Y-97106115D01*
X138082419Y-97106115D02*
X137082419Y-96868020D01*
X138082419Y-96487067D02*
X137082419Y-96487067D01*
X137082419Y-96487067D02*
X137796704Y-96153734D01*
X137796704Y-96153734D02*
X137082419Y-95820401D01*
X137082419Y-95820401D02*
X138082419Y-95820401D01*
X137082419Y-95439448D02*
X138082419Y-94772782D01*
X137082419Y-94772782D02*
X138082419Y-95439448D01*
X133776704Y-113153734D02*
X133776704Y-112677544D01*
X134062419Y-113248972D02*
X133062419Y-112915639D01*
X133062419Y-112915639D02*
X134062419Y-112582306D01*
X134062419Y-112248972D02*
X133062419Y-112248972D01*
X133062419Y-112248972D02*
X133062419Y-112010877D01*
X133062419Y-112010877D02*
X133110038Y-111868020D01*
X133110038Y-111868020D02*
X133205276Y-111772782D01*
X133205276Y-111772782D02*
X133300514Y-111725163D01*
X133300514Y-111725163D02*
X133490990Y-111677544D01*
X133490990Y-111677544D02*
X133633847Y-111677544D01*
X133633847Y-111677544D02*
X133824323Y-111725163D01*
X133824323Y-111725163D02*
X133919561Y-111772782D01*
X133919561Y-111772782D02*
X134014800Y-111868020D01*
X134014800Y-111868020D02*
X134062419Y-112010877D01*
X134062419Y-112010877D02*
X134062419Y-112248972D01*
X133967180Y-110677544D02*
X134014800Y-110725163D01*
X134014800Y-110725163D02*
X134062419Y-110868020D01*
X134062419Y-110868020D02*
X134062419Y-110963258D01*
X134062419Y-110963258D02*
X134014800Y-111106115D01*
X134014800Y-111106115D02*
X133919561Y-111201353D01*
X133919561Y-111201353D02*
X133824323Y-111248972D01*
X133824323Y-111248972D02*
X133633847Y-111296591D01*
X133633847Y-111296591D02*
X133490990Y-111296591D01*
X133490990Y-111296591D02*
X133300514Y-111248972D01*
X133300514Y-111248972D02*
X133205276Y-111201353D01*
X133205276Y-111201353D02*
X133110038Y-111106115D01*
X133110038Y-111106115D02*
X133062419Y-110963258D01*
X133062419Y-110963258D02*
X133062419Y-110868020D01*
X133062419Y-110868020D02*
X133110038Y-110725163D01*
X133110038Y-110725163D02*
X133157657Y-110677544D01*
X133062419Y-110058496D02*
X133062419Y-109963258D01*
X133062419Y-109963258D02*
X133110038Y-109868020D01*
X133110038Y-109868020D02*
X133157657Y-109820401D01*
X133157657Y-109820401D02*
X133252895Y-109772782D01*
X133252895Y-109772782D02*
X133443371Y-109725163D01*
X133443371Y-109725163D02*
X133681466Y-109725163D01*
X133681466Y-109725163D02*
X133871942Y-109772782D01*
X133871942Y-109772782D02*
X133967180Y-109820401D01*
X133967180Y-109820401D02*
X134014800Y-109868020D01*
X134014800Y-109868020D02*
X134062419Y-109963258D01*
X134062419Y-109963258D02*
X134062419Y-110058496D01*
X134062419Y-110058496D02*
X134014800Y-110153734D01*
X134014800Y-110153734D02*
X133967180Y-110201353D01*
X133967180Y-110201353D02*
X133871942Y-110248972D01*
X133871942Y-110248972D02*
X133681466Y-110296591D01*
X133681466Y-110296591D02*
X133443371Y-110296591D01*
X133443371Y-110296591D02*
X133252895Y-110248972D01*
X133252895Y-110248972D02*
X133157657Y-110201353D01*
X133157657Y-110201353D02*
X133110038Y-110153734D01*
X133110038Y-110153734D02*
X133062419Y-110058496D01*
X133490990Y-109153734D02*
X133443371Y-109248972D01*
X133443371Y-109248972D02*
X133395752Y-109296591D01*
X133395752Y-109296591D02*
X133300514Y-109344210D01*
X133300514Y-109344210D02*
X133252895Y-109344210D01*
X133252895Y-109344210D02*
X133157657Y-109296591D01*
X133157657Y-109296591D02*
X133110038Y-109248972D01*
X133110038Y-109248972D02*
X133062419Y-109153734D01*
X133062419Y-109153734D02*
X133062419Y-108963258D01*
X133062419Y-108963258D02*
X133110038Y-108868020D01*
X133110038Y-108868020D02*
X133157657Y-108820401D01*
X133157657Y-108820401D02*
X133252895Y-108772782D01*
X133252895Y-108772782D02*
X133300514Y-108772782D01*
X133300514Y-108772782D02*
X133395752Y-108820401D01*
X133395752Y-108820401D02*
X133443371Y-108868020D01*
X133443371Y-108868020D02*
X133490990Y-108963258D01*
X133490990Y-108963258D02*
X133490990Y-109153734D01*
X133490990Y-109153734D02*
X133538609Y-109248972D01*
X133538609Y-109248972D02*
X133586228Y-109296591D01*
X133586228Y-109296591D02*
X133681466Y-109344210D01*
X133681466Y-109344210D02*
X133871942Y-109344210D01*
X133871942Y-109344210D02*
X133967180Y-109296591D01*
X133967180Y-109296591D02*
X134014800Y-109248972D01*
X134014800Y-109248972D02*
X134062419Y-109153734D01*
X134062419Y-109153734D02*
X134062419Y-108963258D01*
X134062419Y-108963258D02*
X134014800Y-108868020D01*
X134014800Y-108868020D02*
X133967180Y-108820401D01*
X133967180Y-108820401D02*
X133871942Y-108772782D01*
X133871942Y-108772782D02*
X133681466Y-108772782D01*
X133681466Y-108772782D02*
X133586228Y-108820401D01*
X133586228Y-108820401D02*
X133538609Y-108868020D01*
X133538609Y-108868020D02*
X133490990Y-108963258D01*
X133062419Y-108153734D02*
X133062419Y-108058496D01*
X133062419Y-108058496D02*
X133110038Y-107963258D01*
X133110038Y-107963258D02*
X133157657Y-107915639D01*
X133157657Y-107915639D02*
X133252895Y-107868020D01*
X133252895Y-107868020D02*
X133443371Y-107820401D01*
X133443371Y-107820401D02*
X133681466Y-107820401D01*
X133681466Y-107820401D02*
X133871942Y-107868020D01*
X133871942Y-107868020D02*
X133967180Y-107915639D01*
X133967180Y-107915639D02*
X134014800Y-107963258D01*
X134014800Y-107963258D02*
X134062419Y-108058496D01*
X134062419Y-108058496D02*
X134062419Y-108153734D01*
X134062419Y-108153734D02*
X134014800Y-108248972D01*
X134014800Y-108248972D02*
X133967180Y-108296591D01*
X133967180Y-108296591D02*
X133871942Y-108344210D01*
X133871942Y-108344210D02*
X133681466Y-108391829D01*
X133681466Y-108391829D02*
X133443371Y-108391829D01*
X133443371Y-108391829D02*
X133252895Y-108344210D01*
X133252895Y-108344210D02*
X133157657Y-108296591D01*
X133157657Y-108296591D02*
X133110038Y-108248972D01*
X133110038Y-108248972D02*
X133062419Y-108153734D01*
X133395752Y-106963258D02*
X134062419Y-106963258D01*
X133014800Y-107201353D02*
X133729085Y-107439448D01*
X133729085Y-107439448D02*
X133729085Y-106820401D01*
X134062419Y-105963258D02*
X134062419Y-106439448D01*
X134062419Y-106439448D02*
X133062419Y-106439448D01*
X133967180Y-105058496D02*
X134014800Y-105106115D01*
X134014800Y-105106115D02*
X134062419Y-105248972D01*
X134062419Y-105248972D02*
X134062419Y-105344210D01*
X134062419Y-105344210D02*
X134014800Y-105487067D01*
X134014800Y-105487067D02*
X133919561Y-105582305D01*
X133919561Y-105582305D02*
X133824323Y-105629924D01*
X133824323Y-105629924D02*
X133633847Y-105677543D01*
X133633847Y-105677543D02*
X133490990Y-105677543D01*
X133490990Y-105677543D02*
X133300514Y-105629924D01*
X133300514Y-105629924D02*
X133205276Y-105582305D01*
X133205276Y-105582305D02*
X133110038Y-105487067D01*
X133110038Y-105487067D02*
X133062419Y-105344210D01*
X133062419Y-105344210D02*
X133062419Y-105248972D01*
X133062419Y-105248972D02*
X133110038Y-105106115D01*
X133110038Y-105106115D02*
X133157657Y-105058496D01*
X134062419Y-104629924D02*
X133062419Y-104629924D01*
X133062419Y-104629924D02*
X134062419Y-104058496D01*
X134062419Y-104058496D02*
X133062419Y-104058496D01*
D12*
X154516666Y-132454819D02*
X154516666Y-133169104D01*
X154516666Y-133169104D02*
X154469047Y-133311961D01*
X154469047Y-133311961D02*
X154373809Y-133407200D01*
X154373809Y-133407200D02*
X154230952Y-133454819D01*
X154230952Y-133454819D02*
X154135714Y-133454819D01*
X154897619Y-132454819D02*
X155516666Y-132454819D01*
X155516666Y-132454819D02*
X155183333Y-132835771D01*
X155183333Y-132835771D02*
X155326190Y-132835771D01*
X155326190Y-132835771D02*
X155421428Y-132883390D01*
X155421428Y-132883390D02*
X155469047Y-132931009D01*
X155469047Y-132931009D02*
X155516666Y-133026247D01*
X155516666Y-133026247D02*
X155516666Y-133264342D01*
X155516666Y-133264342D02*
X155469047Y-133359580D01*
X155469047Y-133359580D02*
X155421428Y-133407200D01*
X155421428Y-133407200D02*
X155326190Y-133454819D01*
X155326190Y-133454819D02*
X155040476Y-133454819D01*
X155040476Y-133454819D02*
X154945238Y-133407200D01*
X154945238Y-133407200D02*
X154897619Y-133359580D01*
X134454819Y-78142857D02*
X133978628Y-78476190D01*
X134454819Y-78714285D02*
X133454819Y-78714285D01*
X133454819Y-78714285D02*
X133454819Y-78333333D01*
X133454819Y-78333333D02*
X133502438Y-78238095D01*
X133502438Y-78238095D02*
X133550057Y-78190476D01*
X133550057Y-78190476D02*
X133645295Y-78142857D01*
X133645295Y-78142857D02*
X133788152Y-78142857D01*
X133788152Y-78142857D02*
X133883390Y-78190476D01*
X133883390Y-78190476D02*
X133931009Y-78238095D01*
X133931009Y-78238095D02*
X133978628Y-78333333D01*
X133978628Y-78333333D02*
X133978628Y-78714285D01*
X134454819Y-77190476D02*
X134454819Y-77761904D01*
X134454819Y-77476190D02*
X133454819Y-77476190D01*
X133454819Y-77476190D02*
X133597676Y-77571428D01*
X133597676Y-77571428D02*
X133692914Y-77666666D01*
X133692914Y-77666666D02*
X133740533Y-77761904D01*
X133454819Y-76857142D02*
X133454819Y-76238095D01*
X133454819Y-76238095D02*
X133835771Y-76571428D01*
X133835771Y-76571428D02*
X133835771Y-76428571D01*
X133835771Y-76428571D02*
X133883390Y-76333333D01*
X133883390Y-76333333D02*
X133931009Y-76285714D01*
X133931009Y-76285714D02*
X134026247Y-76238095D01*
X134026247Y-76238095D02*
X134264342Y-76238095D01*
X134264342Y-76238095D02*
X134359580Y-76285714D01*
X134359580Y-76285714D02*
X134407200Y-76333333D01*
X134407200Y-76333333D02*
X134454819Y-76428571D01*
X134454819Y-76428571D02*
X134454819Y-76714285D01*
X134454819Y-76714285D02*
X134407200Y-76809523D01*
X134407200Y-76809523D02*
X134359580Y-76857142D01*
X135527142Y-76954819D02*
X135193809Y-76478628D01*
X134955714Y-76954819D02*
X134955714Y-75954819D01*
X134955714Y-75954819D02*
X135336666Y-75954819D01*
X135336666Y-75954819D02*
X135431904Y-76002438D01*
X135431904Y-76002438D02*
X135479523Y-76050057D01*
X135479523Y-76050057D02*
X135527142Y-76145295D01*
X135527142Y-76145295D02*
X135527142Y-76288152D01*
X135527142Y-76288152D02*
X135479523Y-76383390D01*
X135479523Y-76383390D02*
X135431904Y-76431009D01*
X135431904Y-76431009D02*
X135336666Y-76478628D01*
X135336666Y-76478628D02*
X134955714Y-76478628D01*
X136479523Y-76954819D02*
X135908095Y-76954819D01*
X136193809Y-76954819D02*
X136193809Y-75954819D01*
X136193809Y-75954819D02*
X136098571Y-76097676D01*
X136098571Y-76097676D02*
X136003333Y-76192914D01*
X136003333Y-76192914D02*
X135908095Y-76240533D01*
X136860476Y-76050057D02*
X136908095Y-76002438D01*
X136908095Y-76002438D02*
X137003333Y-75954819D01*
X137003333Y-75954819D02*
X137241428Y-75954819D01*
X137241428Y-75954819D02*
X137336666Y-76002438D01*
X137336666Y-76002438D02*
X137384285Y-76050057D01*
X137384285Y-76050057D02*
X137431904Y-76145295D01*
X137431904Y-76145295D02*
X137431904Y-76240533D01*
X137431904Y-76240533D02*
X137384285Y-76383390D01*
X137384285Y-76383390D02*
X136812857Y-76954819D01*
X136812857Y-76954819D02*
X137431904Y-76954819D01*
X164891666Y-83554819D02*
X164891666Y-84269104D01*
X164891666Y-84269104D02*
X164844047Y-84411961D01*
X164844047Y-84411961D02*
X164748809Y-84507200D01*
X164748809Y-84507200D02*
X164605952Y-84554819D01*
X164605952Y-84554819D02*
X164510714Y-84554819D01*
X165367857Y-84554819D02*
X165367857Y-83554819D01*
X165367857Y-83554819D02*
X165748809Y-83554819D01*
X165748809Y-83554819D02*
X165844047Y-83602438D01*
X165844047Y-83602438D02*
X165891666Y-83650057D01*
X165891666Y-83650057D02*
X165939285Y-83745295D01*
X165939285Y-83745295D02*
X165939285Y-83888152D01*
X165939285Y-83888152D02*
X165891666Y-83983390D01*
X165891666Y-83983390D02*
X165844047Y-84031009D01*
X165844047Y-84031009D02*
X165748809Y-84078628D01*
X165748809Y-84078628D02*
X165367857Y-84078628D01*
X166272619Y-83554819D02*
X166891666Y-83554819D01*
X166891666Y-83554819D02*
X166558333Y-83935771D01*
X166558333Y-83935771D02*
X166701190Y-83935771D01*
X166701190Y-83935771D02*
X166796428Y-83983390D01*
X166796428Y-83983390D02*
X166844047Y-84031009D01*
X166844047Y-84031009D02*
X166891666Y-84126247D01*
X166891666Y-84126247D02*
X166891666Y-84364342D01*
X166891666Y-84364342D02*
X166844047Y-84459580D01*
X166844047Y-84459580D02*
X166796428Y-84507200D01*
X166796428Y-84507200D02*
X166701190Y-84554819D01*
X166701190Y-84554819D02*
X166415476Y-84554819D01*
X166415476Y-84554819D02*
X166320238Y-84507200D01*
X166320238Y-84507200D02*
X166272619Y-84459580D01*
X147091666Y-132454819D02*
X147091666Y-133169104D01*
X147091666Y-133169104D02*
X147044047Y-133311961D01*
X147044047Y-133311961D02*
X146948809Y-133407200D01*
X146948809Y-133407200D02*
X146805952Y-133454819D01*
X146805952Y-133454819D02*
X146710714Y-133454819D01*
X147520238Y-132550057D02*
X147567857Y-132502438D01*
X147567857Y-132502438D02*
X147663095Y-132454819D01*
X147663095Y-132454819D02*
X147901190Y-132454819D01*
X147901190Y-132454819D02*
X147996428Y-132502438D01*
X147996428Y-132502438D02*
X148044047Y-132550057D01*
X148044047Y-132550057D02*
X148091666Y-132645295D01*
X148091666Y-132645295D02*
X148091666Y-132740533D01*
X148091666Y-132740533D02*
X148044047Y-132883390D01*
X148044047Y-132883390D02*
X147472619Y-133454819D01*
X147472619Y-133454819D02*
X148091666Y-133454819D01*
X137499819Y-124041666D02*
X137023628Y-124374999D01*
X137499819Y-124613094D02*
X136499819Y-124613094D01*
X136499819Y-124613094D02*
X136499819Y-124232142D01*
X136499819Y-124232142D02*
X136547438Y-124136904D01*
X136547438Y-124136904D02*
X136595057Y-124089285D01*
X136595057Y-124089285D02*
X136690295Y-124041666D01*
X136690295Y-124041666D02*
X136833152Y-124041666D01*
X136833152Y-124041666D02*
X136928390Y-124089285D01*
X136928390Y-124089285D02*
X136976009Y-124136904D01*
X136976009Y-124136904D02*
X137023628Y-124232142D01*
X137023628Y-124232142D02*
X137023628Y-124613094D01*
X136833152Y-123184523D02*
X137499819Y-123184523D01*
X136452200Y-123422618D02*
X137166485Y-123660713D01*
X137166485Y-123660713D02*
X137166485Y-123041666D01*
X161941666Y-132454819D02*
X161941666Y-133169104D01*
X161941666Y-133169104D02*
X161894047Y-133311961D01*
X161894047Y-133311961D02*
X161798809Y-133407200D01*
X161798809Y-133407200D02*
X161655952Y-133454819D01*
X161655952Y-133454819D02*
X161560714Y-133454819D01*
X162846428Y-132788152D02*
X162846428Y-133454819D01*
X162608333Y-132407200D02*
X162370238Y-133121485D01*
X162370238Y-133121485D02*
X162989285Y-133121485D01*
X170959580Y-92366666D02*
X171007200Y-92414285D01*
X171007200Y-92414285D02*
X171054819Y-92557142D01*
X171054819Y-92557142D02*
X171054819Y-92652380D01*
X171054819Y-92652380D02*
X171007200Y-92795237D01*
X171007200Y-92795237D02*
X170911961Y-92890475D01*
X170911961Y-92890475D02*
X170816723Y-92938094D01*
X170816723Y-92938094D02*
X170626247Y-92985713D01*
X170626247Y-92985713D02*
X170483390Y-92985713D01*
X170483390Y-92985713D02*
X170292914Y-92938094D01*
X170292914Y-92938094D02*
X170197676Y-92890475D01*
X170197676Y-92890475D02*
X170102438Y-92795237D01*
X170102438Y-92795237D02*
X170054819Y-92652380D01*
X170054819Y-92652380D02*
X170054819Y-92557142D01*
X170054819Y-92557142D02*
X170102438Y-92414285D01*
X170102438Y-92414285D02*
X170150057Y-92366666D01*
X170054819Y-92033332D02*
X170054819Y-91414285D01*
X170054819Y-91414285D02*
X170435771Y-91747618D01*
X170435771Y-91747618D02*
X170435771Y-91604761D01*
X170435771Y-91604761D02*
X170483390Y-91509523D01*
X170483390Y-91509523D02*
X170531009Y-91461904D01*
X170531009Y-91461904D02*
X170626247Y-91414285D01*
X170626247Y-91414285D02*
X170864342Y-91414285D01*
X170864342Y-91414285D02*
X170959580Y-91461904D01*
X170959580Y-91461904D02*
X171007200Y-91509523D01*
X171007200Y-91509523D02*
X171054819Y-91604761D01*
X171054819Y-91604761D02*
X171054819Y-91890475D01*
X171054819Y-91890475D02*
X171007200Y-91985713D01*
X171007200Y-91985713D02*
X170959580Y-92033332D01*
X147766666Y-70554819D02*
X147766666Y-71269104D01*
X147766666Y-71269104D02*
X147719047Y-71411961D01*
X147719047Y-71411961D02*
X147623809Y-71507200D01*
X147623809Y-71507200D02*
X147480952Y-71554819D01*
X147480952Y-71554819D02*
X147385714Y-71554819D01*
X148242857Y-71554819D02*
X148242857Y-70554819D01*
X148242857Y-70554819D02*
X148623809Y-70554819D01*
X148623809Y-70554819D02*
X148719047Y-70602438D01*
X148719047Y-70602438D02*
X148766666Y-70650057D01*
X148766666Y-70650057D02*
X148814285Y-70745295D01*
X148814285Y-70745295D02*
X148814285Y-70888152D01*
X148814285Y-70888152D02*
X148766666Y-70983390D01*
X148766666Y-70983390D02*
X148719047Y-71031009D01*
X148719047Y-71031009D02*
X148623809Y-71078628D01*
X148623809Y-71078628D02*
X148242857Y-71078628D01*
X149385714Y-70983390D02*
X149290476Y-70935771D01*
X149290476Y-70935771D02*
X149242857Y-70888152D01*
X149242857Y-70888152D02*
X149195238Y-70792914D01*
X149195238Y-70792914D02*
X149195238Y-70745295D01*
X149195238Y-70745295D02*
X149242857Y-70650057D01*
X149242857Y-70650057D02*
X149290476Y-70602438D01*
X149290476Y-70602438D02*
X149385714Y-70554819D01*
X149385714Y-70554819D02*
X149576190Y-70554819D01*
X149576190Y-70554819D02*
X149671428Y-70602438D01*
X149671428Y-70602438D02*
X149719047Y-70650057D01*
X149719047Y-70650057D02*
X149766666Y-70745295D01*
X149766666Y-70745295D02*
X149766666Y-70792914D01*
X149766666Y-70792914D02*
X149719047Y-70888152D01*
X149719047Y-70888152D02*
X149671428Y-70935771D01*
X149671428Y-70935771D02*
X149576190Y-70983390D01*
X149576190Y-70983390D02*
X149385714Y-70983390D01*
X149385714Y-70983390D02*
X149290476Y-71031009D01*
X149290476Y-71031009D02*
X149242857Y-71078628D01*
X149242857Y-71078628D02*
X149195238Y-71173866D01*
X149195238Y-71173866D02*
X149195238Y-71364342D01*
X149195238Y-71364342D02*
X149242857Y-71459580D01*
X149242857Y-71459580D02*
X149290476Y-71507200D01*
X149290476Y-71507200D02*
X149385714Y-71554819D01*
X149385714Y-71554819D02*
X149576190Y-71554819D01*
X149576190Y-71554819D02*
X149671428Y-71507200D01*
X149671428Y-71507200D02*
X149719047Y-71459580D01*
X149719047Y-71459580D02*
X149766666Y-71364342D01*
X149766666Y-71364342D02*
X149766666Y-71173866D01*
X149766666Y-71173866D02*
X149719047Y-71078628D01*
X149719047Y-71078628D02*
X149671428Y-71031009D01*
X149671428Y-71031009D02*
X149576190Y-70983390D01*
X149416666Y-75704819D02*
X149416666Y-76419104D01*
X149416666Y-76419104D02*
X149369047Y-76561961D01*
X149369047Y-76561961D02*
X149273809Y-76657200D01*
X149273809Y-76657200D02*
X149130952Y-76704819D01*
X149130952Y-76704819D02*
X149035714Y-76704819D01*
X149892857Y-76704819D02*
X149892857Y-75704819D01*
X149892857Y-75704819D02*
X150273809Y-75704819D01*
X150273809Y-75704819D02*
X150369047Y-75752438D01*
X150369047Y-75752438D02*
X150416666Y-75800057D01*
X150416666Y-75800057D02*
X150464285Y-75895295D01*
X150464285Y-75895295D02*
X150464285Y-76038152D01*
X150464285Y-76038152D02*
X150416666Y-76133390D01*
X150416666Y-76133390D02*
X150369047Y-76181009D01*
X150369047Y-76181009D02*
X150273809Y-76228628D01*
X150273809Y-76228628D02*
X149892857Y-76228628D01*
X150797619Y-75704819D02*
X151464285Y-75704819D01*
X151464285Y-75704819D02*
X151035714Y-76704819D01*
X136432142Y-120679819D02*
X136098809Y-120203628D01*
X135860714Y-120679819D02*
X135860714Y-119679819D01*
X135860714Y-119679819D02*
X136241666Y-119679819D01*
X136241666Y-119679819D02*
X136336904Y-119727438D01*
X136336904Y-119727438D02*
X136384523Y-119775057D01*
X136384523Y-119775057D02*
X136432142Y-119870295D01*
X136432142Y-119870295D02*
X136432142Y-120013152D01*
X136432142Y-120013152D02*
X136384523Y-120108390D01*
X136384523Y-120108390D02*
X136336904Y-120156009D01*
X136336904Y-120156009D02*
X136241666Y-120203628D01*
X136241666Y-120203628D02*
X135860714Y-120203628D01*
X137384523Y-120679819D02*
X136813095Y-120679819D01*
X137098809Y-120679819D02*
X137098809Y-119679819D01*
X137098809Y-119679819D02*
X137003571Y-119822676D01*
X137003571Y-119822676D02*
X136908333Y-119917914D01*
X136908333Y-119917914D02*
X136813095Y-119965533D01*
X138003571Y-119679819D02*
X138098809Y-119679819D01*
X138098809Y-119679819D02*
X138194047Y-119727438D01*
X138194047Y-119727438D02*
X138241666Y-119775057D01*
X138241666Y-119775057D02*
X138289285Y-119870295D01*
X138289285Y-119870295D02*
X138336904Y-120060771D01*
X138336904Y-120060771D02*
X138336904Y-120298866D01*
X138336904Y-120298866D02*
X138289285Y-120489342D01*
X138289285Y-120489342D02*
X138241666Y-120584580D01*
X138241666Y-120584580D02*
X138194047Y-120632200D01*
X138194047Y-120632200D02*
X138098809Y-120679819D01*
X138098809Y-120679819D02*
X138003571Y-120679819D01*
X138003571Y-120679819D02*
X137908333Y-120632200D01*
X137908333Y-120632200D02*
X137860714Y-120584580D01*
X137860714Y-120584580D02*
X137813095Y-120489342D01*
X137813095Y-120489342D02*
X137765476Y-120298866D01*
X137765476Y-120298866D02*
X137765476Y-120060771D01*
X137765476Y-120060771D02*
X137813095Y-119870295D01*
X137813095Y-119870295D02*
X137860714Y-119775057D01*
X137860714Y-119775057D02*
X137908333Y-119727438D01*
X137908333Y-119727438D02*
X138003571Y-119679819D01*
X164933333Y-122562295D02*
X165200000Y-123362295D01*
X165200000Y-123362295D02*
X165466666Y-122562295D01*
X166190476Y-123286104D02*
X166152380Y-123324200D01*
X166152380Y-123324200D02*
X166038095Y-123362295D01*
X166038095Y-123362295D02*
X165961904Y-123362295D01*
X165961904Y-123362295D02*
X165847618Y-123324200D01*
X165847618Y-123324200D02*
X165771428Y-123248009D01*
X165771428Y-123248009D02*
X165733333Y-123171819D01*
X165733333Y-123171819D02*
X165695237Y-123019438D01*
X165695237Y-123019438D02*
X165695237Y-122905152D01*
X165695237Y-122905152D02*
X165733333Y-122752771D01*
X165733333Y-122752771D02*
X165771428Y-122676580D01*
X165771428Y-122676580D02*
X165847618Y-122600390D01*
X165847618Y-122600390D02*
X165961904Y-122562295D01*
X165961904Y-122562295D02*
X166038095Y-122562295D01*
X166038095Y-122562295D02*
X166152380Y-122600390D01*
X166152380Y-122600390D02*
X166190476Y-122638485D01*
X166990476Y-123286104D02*
X166952380Y-123324200D01*
X166952380Y-123324200D02*
X166838095Y-123362295D01*
X166838095Y-123362295D02*
X166761904Y-123362295D01*
X166761904Y-123362295D02*
X166647618Y-123324200D01*
X166647618Y-123324200D02*
X166571428Y-123248009D01*
X166571428Y-123248009D02*
X166533333Y-123171819D01*
X166533333Y-123171819D02*
X166495237Y-123019438D01*
X166495237Y-123019438D02*
X166495237Y-122905152D01*
X166495237Y-122905152D02*
X166533333Y-122752771D01*
X166533333Y-122752771D02*
X166571428Y-122676580D01*
X166571428Y-122676580D02*
X166647618Y-122600390D01*
X166647618Y-122600390D02*
X166761904Y-122562295D01*
X166761904Y-122562295D02*
X166838095Y-122562295D01*
X166838095Y-122562295D02*
X166952380Y-122600390D01*
X166952380Y-122600390D02*
X166990476Y-122638485D01*
D16*
X128250000Y-100900000D02*
X128971000Y-100900000D01*
X128250000Y-104940000D02*
X128250000Y-100900000D01*
X128971000Y-104940000D02*
X128250000Y-104940000D01*
X130369000Y-100900000D02*
X131090000Y-100900000D01*
X131090000Y-100900000D02*
X131090000Y-104940000D01*
X131090000Y-104940000D02*
X130369000Y-104940000D01*
X162095000Y-122396728D02*
G75*
G02*
X160255000Y-122396728I-920000J-1453272D01*
G01*
X130295000Y-89846728D02*
G75*
G02*
X128455000Y-89846728I-920000J-1453272D01*
G01*
X147645000Y-122396728D02*
G75*
G02*
X145805000Y-122396728I-920000J-1453272D01*
G01*
X128250000Y-96150000D02*
X128971000Y-96150000D01*
X128250000Y-100190000D02*
X128250000Y-96150000D01*
X128971000Y-100190000D02*
X128250000Y-100190000D01*
X130369000Y-96150000D02*
X131090000Y-96150000D01*
X131090000Y-96150000D02*
X131090000Y-100190000D01*
X131090000Y-100190000D02*
X130369000Y-100190000D01*
X141080000Y-87980000D02*
X141801000Y-87980000D01*
X141080000Y-92020000D02*
X141080000Y-87980000D01*
X141801000Y-92020000D02*
X141080000Y-92020000D01*
X143199000Y-87980000D02*
X143920000Y-87980000D01*
X143920000Y-87980000D02*
X143920000Y-92020000D01*
X143920000Y-92020000D02*
X143199000Y-92020000D01*
D17*
X163654000Y-93115000D02*
X163654000Y-113435000D01*
X163654000Y-93115000D02*
X165559000Y-93115001D01*
X169496000Y-93115000D02*
X167591000Y-93115001D01*
X169496000Y-113435000D02*
X163654000Y-113435000D01*
X169496000Y-113435000D02*
X169496000Y-93115000D01*
X167591000Y-93115001D02*
G75*
G02*
X165559000Y-93115001I-1016000J0D01*
G01*
X148589000Y-87275000D02*
X148589000Y-107595000D01*
X148589000Y-87275000D02*
X150494000Y-87275001D01*
X154431000Y-87275000D02*
X152526000Y-87275001D01*
X154431000Y-107595000D02*
X148589000Y-107595000D01*
X154431000Y-107595000D02*
X154431000Y-87275000D01*
X152526000Y-87275001D02*
G75*
G02*
X150494000Y-87275001I-1016000J1D01*
G01*
D16*
X136940000Y-127090000D02*
X136940000Y-131810000D01*
X136940000Y-129200000D02*
X137550000Y-129200000D01*
X136940000Y-130500000D02*
X137550000Y-130500000D01*
X136940000Y-131810000D02*
X143060000Y-131810000D01*
X137550000Y-127700000D02*
X137550000Y-131200000D01*
X137550000Y-131200000D02*
X139500000Y-131200000D01*
X139500000Y-131200000D02*
X139500000Y-131810000D01*
X139900000Y-128200000D02*
X139900000Y-127700000D01*
X140000000Y-127700000D02*
X140000000Y-128200000D01*
X140100000Y-127700000D02*
X140100000Y-128200000D01*
X140100000Y-128200000D02*
X139900000Y-128200000D01*
X140500000Y-131200000D02*
X142450000Y-131200000D01*
X140500000Y-131810000D02*
X140500000Y-131200000D01*
X141300000Y-131810000D02*
X141300000Y-132010000D01*
X141300000Y-131910000D02*
X141600000Y-131910000D01*
X141300000Y-132010000D02*
X141600000Y-132010000D01*
X141600000Y-132010000D02*
X141600000Y-131810000D01*
X142110000Y-132110000D02*
X143360000Y-132110000D01*
X142450000Y-127700000D02*
X137550000Y-127700000D01*
X142450000Y-131200000D02*
X142450000Y-127700000D01*
X143060000Y-127090000D02*
X136940000Y-127090000D01*
X143060000Y-129200000D02*
X142450000Y-129200000D01*
X143060000Y-130500000D02*
X142450000Y-130500000D01*
X143060000Y-131810000D02*
X143060000Y-127090000D01*
X143360000Y-132110000D02*
X143360000Y-130860000D01*
X156980000Y-85180000D02*
X157701000Y-85180000D01*
X156980000Y-89220000D02*
X156980000Y-85180000D01*
X157701000Y-89220000D02*
X156980000Y-89220000D01*
X159099000Y-85180000D02*
X159820000Y-85180000D01*
X159820000Y-85180000D02*
X159820000Y-89220000D01*
X159820000Y-89220000D02*
X159099000Y-89220000D01*
X139030000Y-69230000D02*
X135430000Y-69230000D01*
X136450000Y-73530000D02*
G75*
G02*
X135421555Y-69252316I780000J2450000D01*
G01*
X139041875Y-69238259D02*
G75*
G02*
X138050000Y-73530000I-1811875J-1841741D01*
G01*
X132303272Y-117475000D02*
G75*
G02*
X132303272Y-115635000I-1453272J920000D01*
G01*
X137950000Y-116500000D02*
G75*
G02*
X136050000Y-116500000I-950000J0D01*
G01*
X136050000Y-116500000D02*
G75*
G02*
X137950000Y-116500000I950000J0D01*
G01*
X135640000Y-80890000D02*
X135640000Y-82140000D01*
X135940000Y-81190000D02*
X135940000Y-85910000D01*
X135940000Y-82500000D02*
X136550000Y-82500000D01*
X135940000Y-83800000D02*
X136550000Y-83800000D01*
X135940000Y-85910000D02*
X144060000Y-85910000D01*
X136550000Y-81800000D02*
X136550000Y-85300000D01*
X136550000Y-85300000D02*
X143450000Y-85300000D01*
X136890000Y-80890000D02*
X135640000Y-80890000D01*
X137400000Y-80990000D02*
X137400000Y-81190000D01*
X137700000Y-80990000D02*
X137400000Y-80990000D01*
X137700000Y-81090000D02*
X137400000Y-81090000D01*
X137700000Y-81190000D02*
X137700000Y-80990000D01*
X138500000Y-81190000D02*
X138500000Y-81800000D01*
X138500000Y-81800000D02*
X136550000Y-81800000D01*
X138900000Y-84800000D02*
X139100000Y-84800000D01*
X138900000Y-85300000D02*
X138900000Y-84800000D01*
X139000000Y-85300000D02*
X139000000Y-84800000D01*
X139100000Y-84800000D02*
X139100000Y-85300000D01*
X140900000Y-84800000D02*
X141100000Y-84800000D01*
X140900000Y-85300000D02*
X140900000Y-84800000D01*
X141000000Y-85300000D02*
X141000000Y-84800000D01*
X141100000Y-84800000D02*
X141100000Y-85300000D01*
X141500000Y-81800000D02*
X141500000Y-81190000D01*
X143450000Y-81800000D02*
X141500000Y-81800000D01*
X143450000Y-85300000D02*
X143450000Y-81800000D01*
X144060000Y-81190000D02*
X135940000Y-81190000D01*
X144060000Y-82500000D02*
X143450000Y-82500000D01*
X144060000Y-83800000D02*
X143450000Y-83800000D01*
X144060000Y-85910000D02*
X144060000Y-81190000D01*
X129950000Y-83500000D02*
G75*
G02*
X128050000Y-83500000I-950000J0D01*
G01*
X128050000Y-83500000D02*
G75*
G02*
X129950000Y-83500000I950000J0D01*
G01*
X154870000Y-122396728D02*
G75*
G02*
X153030000Y-122396728I-920000J-1453272D01*
G01*
X169950000Y-116500000D02*
G75*
G02*
X168050000Y-116500000I-950000J0D01*
G01*
X168050000Y-116500000D02*
G75*
G02*
X169950000Y-116500000I950000J0D01*
G01*
D17*
X132708000Y-87042000D02*
X132708000Y-87499200D01*
X132708000Y-112899200D02*
X132708000Y-113458000D01*
X132708000Y-113458000D02*
X139312000Y-113458000D01*
X135705200Y-87042000D02*
X132708000Y-87042000D01*
D13*
X136100000Y-106930000D02*
X138484607Y-106930000D01*
X136146305Y-93952179D02*
X138753695Y-93930000D01*
D17*
X136314800Y-87042000D02*
X135705200Y-87042000D01*
X139312000Y-87042000D02*
X136314800Y-87042000D01*
X139312000Y-87600800D02*
X139312000Y-87042000D01*
X139312000Y-113458000D02*
X139312000Y-112899200D01*
D13*
X141040769Y-106930000D02*
X143675705Y-106930000D01*
X141092610Y-93930000D02*
X143700000Y-93930000D01*
D15*
X136314800Y-87042000D02*
G75*
G02*
X135705200Y-87042000I-304800J0D01*
G01*
D16*
X151790000Y-127090000D02*
X151790000Y-131810000D01*
X151790000Y-129200000D02*
X152400000Y-129200000D01*
X151790000Y-130500000D02*
X152400000Y-130500000D01*
X151790000Y-131810000D02*
X157910000Y-131810000D01*
X152400000Y-127700000D02*
X152400000Y-131200000D01*
X152400000Y-131200000D02*
X154350000Y-131200000D01*
X154350000Y-131200000D02*
X154350000Y-131810000D01*
X154750000Y-128200000D02*
X154750000Y-127700000D01*
X154850000Y-127700000D02*
X154850000Y-128200000D01*
X154950000Y-127700000D02*
X154950000Y-128200000D01*
X154950000Y-128200000D02*
X154750000Y-128200000D01*
X155350000Y-131200000D02*
X157300000Y-131200000D01*
X155350000Y-131810000D02*
X155350000Y-131200000D01*
X156150000Y-131810000D02*
X156150000Y-132010000D01*
X156150000Y-131910000D02*
X156450000Y-131910000D01*
X156150000Y-132010000D02*
X156450000Y-132010000D01*
X156450000Y-132010000D02*
X156450000Y-131810000D01*
X156960000Y-132110000D02*
X158210000Y-132110000D01*
X157300000Y-127700000D02*
X152400000Y-127700000D01*
X157300000Y-131200000D02*
X157300000Y-127700000D01*
X157910000Y-127090000D02*
X151790000Y-127090000D01*
X157910000Y-129200000D02*
X157300000Y-129200000D01*
X157910000Y-130500000D02*
X157300000Y-130500000D01*
X157910000Y-131810000D02*
X157910000Y-127090000D01*
X158210000Y-132110000D02*
X158210000Y-130860000D01*
X132420000Y-77916728D02*
G75*
G02*
X130580000Y-77916728I-920000J-1453272D01*
G01*
X139816728Y-75380000D02*
G75*
G02*
X139816728Y-77220000I1453272J-920000D01*
G01*
X144365000Y-127090000D02*
X144365000Y-131810000D01*
X144365000Y-129200000D02*
X144975000Y-129200000D01*
X144365000Y-130500000D02*
X144975000Y-130500000D01*
X144365000Y-131810000D02*
X150485000Y-131810000D01*
X144975000Y-127700000D02*
X144975000Y-131200000D01*
X144975000Y-131200000D02*
X146925000Y-131200000D01*
X146925000Y-131200000D02*
X146925000Y-131810000D01*
X147325000Y-128200000D02*
X147325000Y-127700000D01*
X147425000Y-127700000D02*
X147425000Y-128200000D01*
X147525000Y-127700000D02*
X147525000Y-128200000D01*
X147525000Y-128200000D02*
X147325000Y-128200000D01*
X147925000Y-131200000D02*
X149875000Y-131200000D01*
X147925000Y-131810000D02*
X147925000Y-131200000D01*
X148725000Y-131810000D02*
X148725000Y-132010000D01*
X148725000Y-131910000D02*
X149025000Y-131910000D01*
X148725000Y-132010000D02*
X149025000Y-132010000D01*
X149025000Y-132010000D02*
X149025000Y-131810000D01*
X149535000Y-132110000D02*
X150785000Y-132110000D01*
X149875000Y-127700000D02*
X144975000Y-127700000D01*
X149875000Y-131200000D02*
X149875000Y-127700000D01*
X150485000Y-127090000D02*
X144365000Y-127090000D01*
X150485000Y-129200000D02*
X149875000Y-129200000D01*
X150485000Y-130500000D02*
X149875000Y-130500000D01*
X150485000Y-131810000D02*
X150485000Y-127090000D01*
X150785000Y-132110000D02*
X150785000Y-130860000D01*
X140420000Y-122396728D02*
G75*
G02*
X138580000Y-122396728I-920000J-1453272D01*
G01*
X159215000Y-127090000D02*
X159215000Y-131810000D01*
X159215000Y-129200000D02*
X159825000Y-129200000D01*
X159215000Y-130500000D02*
X159825000Y-130500000D01*
X159215000Y-131810000D02*
X165335000Y-131810000D01*
X159825000Y-127700000D02*
X159825000Y-131200000D01*
X159825000Y-131200000D02*
X161775000Y-131200000D01*
X161775000Y-131200000D02*
X161775000Y-131810000D01*
X162175000Y-128200000D02*
X162175000Y-127700000D01*
X162275000Y-127700000D02*
X162275000Y-128200000D01*
X162375000Y-127700000D02*
X162375000Y-128200000D01*
X162375000Y-128200000D02*
X162175000Y-128200000D01*
X162775000Y-131200000D02*
X164725000Y-131200000D01*
X162775000Y-131810000D02*
X162775000Y-131200000D01*
X163575000Y-131810000D02*
X163575000Y-132010000D01*
X163575000Y-131910000D02*
X163875000Y-131910000D01*
X163575000Y-132010000D02*
X163875000Y-132010000D01*
X163875000Y-132010000D02*
X163875000Y-131810000D01*
X164385000Y-132110000D02*
X165635000Y-132110000D01*
X164725000Y-127700000D02*
X159825000Y-127700000D01*
X164725000Y-131200000D02*
X164725000Y-127700000D01*
X165335000Y-127090000D02*
X159215000Y-127090000D01*
X165335000Y-129200000D02*
X164725000Y-129200000D01*
X165335000Y-130500000D02*
X164725000Y-130500000D01*
X165335000Y-131810000D02*
X165335000Y-127090000D01*
X165635000Y-132110000D02*
X165635000Y-130860000D01*
X171830000Y-90980000D02*
X172551000Y-90980000D01*
X171830000Y-95020000D02*
X171830000Y-90980000D01*
X172551000Y-95020000D02*
X171830000Y-95020000D01*
X173949000Y-90980000D02*
X174670000Y-90980000D01*
X174670000Y-90980000D02*
X174670000Y-95020000D01*
X174670000Y-95020000D02*
X173949000Y-95020000D01*
X134995000Y-120746728D02*
G75*
G02*
X133155000Y-120746728I-920000J-1453272D01*
G01*
X166950000Y-121250000D02*
G75*
G02*
X165050000Y-121250000I-950000J0D01*
G01*
X165050000Y-121250000D02*
G75*
G02*
X166950000Y-121250000I950000J0D01*
G01*
%LPC*%
D18*
X129670000Y-104170000D03*
X129670000Y-101670000D03*
X161175000Y-123850000D03*
X161175000Y-121310000D03*
X129375000Y-91300000D03*
X129375000Y-88760000D03*
X146725000Y-123850000D03*
X146725000Y-121310000D03*
X129670000Y-96920000D03*
X129670000Y-99420000D03*
X142500000Y-88750000D03*
X142500000Y-91250000D03*
D19*
X162765000Y-94385000D03*
X162765000Y-96925000D03*
X162765000Y-99465000D03*
X162765000Y-102005000D03*
X162765000Y-104545000D03*
X162765000Y-107085000D03*
X162765000Y-109625000D03*
X162765000Y-112165000D03*
X170385000Y-112165000D03*
X170385000Y-109625000D03*
X170385000Y-107085000D03*
X170385000Y-104545000D03*
X170385000Y-102005000D03*
X170385000Y-99465000D03*
X170385000Y-96925000D03*
X170385000Y-94385000D03*
D20*
X173475000Y-88525000D03*
D19*
X147700000Y-88545000D03*
X147700000Y-91085000D03*
X147700000Y-93625000D03*
X147700000Y-96165000D03*
X147700000Y-98705000D03*
X147700000Y-101245000D03*
X147700000Y-103785000D03*
X147700000Y-106325000D03*
X155320000Y-106325000D03*
X155320000Y-103785000D03*
X155320000Y-101245000D03*
X155320000Y-98705000D03*
X155320000Y-96165000D03*
X155320000Y-93625000D03*
X155320000Y-91085000D03*
X155320000Y-88545000D03*
D21*
X141000000Y-130000000D03*
D22*
X139000000Y-130000000D03*
D18*
X158400000Y-88450000D03*
X158400000Y-85950000D03*
D23*
X166500000Y-135500000D03*
D24*
X158050000Y-81925000D03*
D25*
X138500000Y-70680000D03*
D26*
X137230000Y-72750000D03*
X135960000Y-70680000D03*
D27*
X131000000Y-72500000D03*
D23*
X135500000Y-135500000D03*
D18*
X130850000Y-116555000D03*
X133390000Y-116555000D03*
D28*
X137000000Y-116500000D03*
D29*
X138000000Y-83000000D03*
D22*
X140000000Y-83000000D03*
X142000000Y-83000000D03*
D30*
X163500000Y-71000000D03*
D28*
X129000000Y-83500000D03*
D24*
X144675000Y-71500000D03*
D18*
X153950000Y-123850000D03*
X153950000Y-121310000D03*
D24*
X154175000Y-79675000D03*
D28*
X169000000Y-116500000D03*
D24*
X169650000Y-88450000D03*
X161850000Y-84450000D03*
D31*
X132200000Y-88820000D03*
D32*
X135260000Y-94715000D03*
D33*
X132200000Y-91360000D03*
D32*
X135260000Y-95985000D03*
D33*
X132200000Y-93900000D03*
D32*
X135260000Y-97255000D03*
D33*
X132200000Y-96440000D03*
D32*
X135260000Y-98525000D03*
D33*
X132200000Y-98980000D03*
D32*
X135260000Y-99795000D03*
D33*
X132200000Y-101520000D03*
D32*
X135260000Y-101065000D03*
D33*
X132200000Y-104060000D03*
D32*
X135260000Y-102335000D03*
D33*
X132200000Y-106600000D03*
D32*
X135260000Y-103605000D03*
D33*
X132200000Y-109140000D03*
D32*
X135260000Y-104875000D03*
D33*
X132200000Y-111680000D03*
D32*
X135260000Y-106145000D03*
D33*
X139820000Y-111680000D03*
D32*
X144540000Y-106145000D03*
D33*
X139820000Y-109140000D03*
D32*
X144540000Y-104875000D03*
D33*
X139820000Y-106600000D03*
D32*
X144540000Y-103605000D03*
D33*
X139820000Y-104060000D03*
D32*
X144540000Y-102335000D03*
D33*
X139820000Y-101520000D03*
D32*
X144540000Y-101065000D03*
D33*
X139820000Y-98980000D03*
D32*
X144540000Y-99795000D03*
D33*
X139820000Y-96440000D03*
D32*
X144540000Y-98525000D03*
D33*
X139820000Y-93900000D03*
D32*
X144540000Y-97255000D03*
D33*
X139820000Y-91360000D03*
D32*
X144540000Y-95985000D03*
D33*
X139820000Y-88820000D03*
D32*
X144540000Y-94715000D03*
D21*
X155850000Y-130000000D03*
D22*
X153850000Y-130000000D03*
D18*
X131500000Y-79370000D03*
X131500000Y-76830000D03*
X141270000Y-76300000D03*
X138730000Y-76300000D03*
D24*
X165725000Y-86600000D03*
D21*
X148425000Y-130000000D03*
D22*
X146425000Y-130000000D03*
D18*
X139500000Y-123850000D03*
X139500000Y-121310000D03*
D21*
X163275000Y-130000000D03*
D22*
X161275000Y-130000000D03*
D18*
X173250000Y-94250000D03*
X173250000Y-91750000D03*
D30*
X156000000Y-71000000D03*
D24*
X148600000Y-73600000D03*
X150250000Y-78750000D03*
D18*
X134075000Y-122200000D03*
X134075000Y-119660000D03*
D28*
X166000000Y-121250000D03*
D27*
X171000000Y-72500000D03*
%LPD*%
M02*
