%TF.GenerationSoftware,KiCad,Pcbnew,10.0.2*%
%TF.CreationDate,2026-05-16T20:22:56-04:00*%
%TF.ProjectId,gtPaddle,67745061-6464-46c6-952e-6b696361645f,rev?*%
%TF.SameCoordinates,Original*%
%TF.FileFunction,Legend,Bot*%
%TF.FilePolarity,Positive*%
%FSLAX46Y46*%
G04 Gerber Fmt 4.6, Leading zero omitted, Abs format (unit mm)*
G04 Created by KiCad (PCBNEW 10.0.2) date 2026-05-16 20:22:56*
%MOMM*%
%LPD*%
G01*
G04 APERTURE LIST*
G04 Aperture macros list*
%AMRoundRect*
0 Rectangle with rounded corners*
0 $1 Rounding radius*
0 $2 $3 $4 $5 $6 $7 $8 $9 X,Y pos of 4 corners*
0 Add a 4 corners polygon primitive as box body*
4,1,4,$2,$3,$4,$5,$6,$7,$8,$9,$2,$3,0*
0 Add four circle primitives for the rounded corners*
1,1,$1+$1,$2,$3*
1,1,$1+$1,$4,$5*
1,1,$1+$1,$6,$7*
1,1,$1+$1,$8,$9*
0 Add four rect primitives between the rounded corners*
20,1,$1+$1,$2,$3,$4,$5,0*
20,1,$1+$1,$4,$5,$6,$7,0*
20,1,$1+$1,$6,$7,$8,$9,0*
20,1,$1+$1,$8,$9,$2,$3,0*%
G04 Aperture macros list end*
%ADD10C,0.187500*%
%ADD11C,0.100000*%
%ADD12C,0.000000*%
%ADD13C,1.600000*%
%ADD14O,2.844800X1.524000*%
%ADD15RoundRect,0.250000X1.050000X1.050000X-1.050000X1.050000X-1.050000X-1.050000X1.050000X-1.050000X0*%
%ADD16RoundRect,0.343749X0.481251X0.656251X-0.481251X0.656251X-0.481251X-0.656251X0.481251X-0.656251X0*%
%ADD17O,1.650000X2.000000*%
%ADD18C,3.000000*%
%ADD19RoundRect,0.250000X-1.050000X-1.050000X1.050000X-1.050000X1.050000X1.050000X-1.050000X1.050000X0*%
%ADD20R,1.100000X1.800000*%
%ADD21RoundRect,0.275000X0.275000X0.625000X-0.275000X0.625000X-0.275000X-0.625000X0.275000X-0.625000X0*%
%ADD22C,3.500000*%
%ADD23C,1.500000*%
%ADD24RoundRect,0.343749X-0.481251X-0.656251X0.481251X-0.656251X0.481251X0.656251X-0.481251X0.656251X0*%
%ADD25C,3.810000*%
%ADD26RoundRect,0.102000X-0.838200X-0.838200X0.838200X-0.838200X0.838200X0.838200X-0.838200X0.838200X0*%
%ADD27C,1.880400*%
G04 APERTURE END LIST*
D10*
G36*
X149103299Y-70240266D02*
G01*
X149186379Y-70261907D01*
X149257975Y-70296535D01*
X149319926Y-70344206D01*
X149371836Y-70403782D01*
X149408194Y-70468647D01*
X149430170Y-70539990D01*
X149437712Y-70619528D01*
X149431257Y-70690048D01*
X149412686Y-70751566D01*
X149382391Y-70805825D01*
X149340833Y-70851984D01*
X149285083Y-70891944D01*
X149212307Y-70925534D01*
X149298933Y-70957590D01*
X149368549Y-71002595D01*
X149423882Y-71060723D01*
X149464318Y-71130247D01*
X149489360Y-71211375D01*
X149498162Y-71306919D01*
X149489341Y-71403124D01*
X149463743Y-71488808D01*
X149421630Y-71566067D01*
X149361875Y-71636372D01*
X149290021Y-71693101D01*
X149207735Y-71734059D01*
X149113020Y-71759519D01*
X149003204Y-71768447D01*
X148893405Y-71759552D01*
X148798707Y-71734188D01*
X148716446Y-71693397D01*
X148644625Y-71636922D01*
X148584677Y-71566797D01*
X148542585Y-71490312D01*
X148517095Y-71406064D01*
X148508551Y-71314338D01*
X148696924Y-71314338D01*
X148706872Y-71398298D01*
X148735499Y-71469487D01*
X148783019Y-71530860D01*
X148844906Y-71577828D01*
X148916682Y-71606180D01*
X149001281Y-71616039D01*
X149083576Y-71605895D01*
X149160100Y-71575556D01*
X149205463Y-71544601D01*
X149242265Y-71506668D01*
X149271291Y-71461067D01*
X149299425Y-71385433D01*
X149308660Y-71308110D01*
X149298842Y-71225484D01*
X149270450Y-71154595D01*
X149223114Y-71092688D01*
X149161529Y-71044986D01*
X149090583Y-71016337D01*
X149007417Y-71006409D01*
X148922160Y-71016450D01*
X148849167Y-71045445D01*
X148785584Y-71093695D01*
X148736575Y-71156537D01*
X148707133Y-71229095D01*
X148696924Y-71314338D01*
X148508551Y-71314338D01*
X148508338Y-71312049D01*
X148516751Y-71221210D01*
X148540988Y-71141782D01*
X148580603Y-71071530D01*
X148634659Y-71011810D01*
X148703932Y-70963177D01*
X148791171Y-70925534D01*
X148720437Y-70892118D01*
X148665828Y-70852359D01*
X148624750Y-70806374D01*
X148594580Y-70752554D01*
X148576225Y-70692502D01*
X148569887Y-70624658D01*
X148569984Y-70623650D01*
X148759389Y-70623650D01*
X148767088Y-70685340D01*
X148789573Y-70739207D01*
X148827533Y-70787232D01*
X148876511Y-70823926D01*
X148933947Y-70846212D01*
X149002288Y-70854002D01*
X149072633Y-70846104D01*
X149131203Y-70823613D01*
X149180616Y-70786774D01*
X149218391Y-70738180D01*
X149241243Y-70681214D01*
X149249218Y-70613392D01*
X149241465Y-70553787D01*
X149218596Y-70500730D01*
X149179517Y-70452375D01*
X149129564Y-70415247D01*
X149071917Y-70392839D01*
X149004303Y-70385055D01*
X148937454Y-70392956D01*
X148879964Y-70415816D01*
X148829639Y-70453932D01*
X148790568Y-70503435D01*
X148767358Y-70559307D01*
X148759389Y-70623650D01*
X148569984Y-70623650D01*
X148577505Y-70545253D01*
X148599777Y-70473496D01*
X148636771Y-70407718D01*
X148689780Y-70346770D01*
X148752853Y-70297875D01*
X148825341Y-70262465D01*
X148909038Y-70240398D01*
X149006318Y-70232648D01*
X149103299Y-70240266D01*
G37*
G36*
X158496147Y-79846395D02*
G01*
X158302524Y-79834672D01*
X158280335Y-79924682D01*
X158246687Y-79993515D01*
X158202598Y-80045423D01*
X158146931Y-80084557D01*
X158084600Y-80107987D01*
X158013554Y-80116039D01*
X157949161Y-80109667D01*
X157890988Y-80091018D01*
X157837632Y-80059962D01*
X157788148Y-80015289D01*
X157748820Y-79962526D01*
X157720171Y-79901511D01*
X157702234Y-79830685D01*
X157695916Y-79748026D01*
X157702043Y-79669427D01*
X157719351Y-79602936D01*
X157746878Y-79546421D01*
X157784576Y-79498258D01*
X157848686Y-79448016D01*
X157924839Y-79417472D01*
X158016577Y-79406758D01*
X158102125Y-79417141D01*
X158177502Y-79447516D01*
X158242015Y-79494804D01*
X158290159Y-79553304D01*
X158463358Y-79529856D01*
X158317820Y-78756095D01*
X157570894Y-78756095D01*
X157570894Y-78931950D01*
X158170266Y-78931950D01*
X158251233Y-79337607D01*
X158157588Y-79283947D01*
X158063574Y-79252879D01*
X157967392Y-79242627D01*
X157871587Y-79251423D01*
X157785559Y-79277036D01*
X157707321Y-79319316D01*
X157635466Y-79379464D01*
X157576883Y-79451846D01*
X157534986Y-79533330D01*
X157509173Y-79625692D01*
X157500186Y-79731357D01*
X157507924Y-79832228D01*
X157530446Y-79923826D01*
X157567346Y-80007753D01*
X157619071Y-80085265D01*
X157681211Y-80151334D01*
X157750499Y-80201899D01*
X157827890Y-80238239D01*
X157914910Y-80260655D01*
X158013554Y-80268447D01*
X158115014Y-80260633D01*
X158203185Y-80238311D01*
X158280315Y-80202416D01*
X158348136Y-80152859D01*
X158405465Y-80091047D01*
X158448993Y-80020396D01*
X158479348Y-79939507D01*
X158496147Y-79846395D01*
G37*
G36*
X159581635Y-84456742D02*
G01*
X156467395Y-84456742D01*
X156467395Y-84009187D01*
X156578506Y-84009187D01*
X156604820Y-84089635D01*
X156638761Y-84157034D01*
X156679936Y-84213194D01*
X156728471Y-84259474D01*
X156784638Y-84296643D01*
X156846716Y-84323415D01*
X156915776Y-84339915D01*
X156993169Y-84345631D01*
X157074828Y-84340991D01*
X157144863Y-84327901D01*
X157204950Y-84307309D01*
X157256524Y-84279747D01*
X157303485Y-84243732D01*
X157344709Y-84200414D01*
X157380504Y-84149102D01*
X157410885Y-84088810D01*
X157438349Y-84009187D01*
X157588694Y-84009187D01*
X157615009Y-84089635D01*
X157648950Y-84157034D01*
X157690125Y-84213194D01*
X157738659Y-84259474D01*
X157794827Y-84296643D01*
X157856905Y-84323415D01*
X157925964Y-84339915D01*
X158003358Y-84345631D01*
X158085017Y-84340991D01*
X158155051Y-84327901D01*
X158215138Y-84307309D01*
X158266712Y-84279747D01*
X158313674Y-84243732D01*
X158354897Y-84200414D01*
X158390693Y-84149102D01*
X158421074Y-84088810D01*
X158450310Y-84004049D01*
X158468009Y-83914848D01*
X158474014Y-83820326D01*
X158466941Y-83717440D01*
X158446705Y-83627128D01*
X158414235Y-83547445D01*
X158380720Y-83492034D01*
X158341404Y-83444510D01*
X158296061Y-83404142D01*
X158244181Y-83370491D01*
X158168648Y-83337077D01*
X158123108Y-83325673D01*
X158554492Y-83325673D01*
X158946562Y-84330000D01*
X159082545Y-84330000D01*
X159470524Y-83325673D01*
X159327093Y-83325673D01*
X159066791Y-84054433D01*
X159014218Y-84218625D01*
X158960240Y-84054433D01*
X158689741Y-83325673D01*
X158554492Y-83325673D01*
X158123108Y-83325673D01*
X158088091Y-83316904D01*
X158001282Y-83310041D01*
X157926606Y-83315217D01*
X157860422Y-83330090D01*
X157801423Y-83354070D01*
X157748551Y-83387100D01*
X157701958Y-83428745D01*
X157662771Y-83478100D01*
X157630674Y-83536055D01*
X157605791Y-83603866D01*
X157736217Y-83634335D01*
X157764740Y-83565244D01*
X157798576Y-83513798D01*
X157837334Y-83476676D01*
X157883789Y-83449877D01*
X157938657Y-83433178D01*
X158003968Y-83427278D01*
X158079236Y-83433825D01*
X158142839Y-83452372D01*
X158196981Y-83482110D01*
X158243516Y-83522759D01*
X158279632Y-83571421D01*
X158305974Y-83629267D01*
X158323410Y-83691457D01*
X158333859Y-83754818D01*
X158337360Y-83819715D01*
X158332901Y-83903483D01*
X158320231Y-83976653D01*
X158300174Y-84040633D01*
X158270013Y-84099393D01*
X158231552Y-84145869D01*
X158184342Y-84181744D01*
X158130384Y-84207709D01*
X158073973Y-84223182D01*
X158014226Y-84228394D01*
X157959278Y-84224198D01*
X157910162Y-84212067D01*
X157865901Y-84192330D01*
X157825732Y-84164830D01*
X157791544Y-84130759D01*
X157762653Y-84088807D01*
X157739061Y-84037759D01*
X157721196Y-83976031D01*
X157588694Y-84009187D01*
X157438349Y-84009187D01*
X157440121Y-84004049D01*
X157457821Y-83914848D01*
X157463825Y-83820326D01*
X157456753Y-83717440D01*
X157436517Y-83627128D01*
X157404047Y-83547445D01*
X157370532Y-83492034D01*
X157331215Y-83444510D01*
X157285872Y-83404142D01*
X157233993Y-83370491D01*
X157158459Y-83337077D01*
X157077902Y-83316904D01*
X156991093Y-83310041D01*
X156916418Y-83315217D01*
X156850234Y-83330090D01*
X156791235Y-83354070D01*
X156738363Y-83387100D01*
X156691770Y-83428745D01*
X156652583Y-83478100D01*
X156620486Y-83536055D01*
X156595603Y-83603866D01*
X156726029Y-83634335D01*
X156754551Y-83565244D01*
X156788388Y-83513798D01*
X156827145Y-83476676D01*
X156873601Y-83449877D01*
X156928469Y-83433178D01*
X156993780Y-83427278D01*
X157069047Y-83433825D01*
X157132650Y-83452372D01*
X157186793Y-83482110D01*
X157233327Y-83522759D01*
X157269444Y-83571421D01*
X157295786Y-83629267D01*
X157313222Y-83691457D01*
X157323670Y-83754818D01*
X157327171Y-83819715D01*
X157322712Y-83903483D01*
X157310043Y-83976653D01*
X157289985Y-84040633D01*
X157259825Y-84099393D01*
X157221363Y-84145869D01*
X157174153Y-84181744D01*
X157120196Y-84207709D01*
X157063785Y-84223182D01*
X157004038Y-84228394D01*
X156949090Y-84224198D01*
X156899974Y-84212067D01*
X156855713Y-84192330D01*
X156815544Y-84164830D01*
X156781356Y-84130759D01*
X156752465Y-84088807D01*
X156728872Y-84037759D01*
X156711008Y-83976031D01*
X156578506Y-84009187D01*
X156467395Y-84009187D01*
X156467395Y-83198930D01*
X159581635Y-83198930D01*
X159581635Y-84456742D01*
G37*
G36*
X173301429Y-87745000D02*
G01*
X173485894Y-87745000D01*
X173485894Y-86566589D01*
X173559296Y-86627660D01*
X173660558Y-86693992D01*
X173767125Y-86751654D01*
X173854731Y-86789521D01*
X173854731Y-86610736D01*
X173754382Y-86557795D01*
X173664501Y-86498887D01*
X173584262Y-86434057D01*
X173510652Y-86361227D01*
X173457100Y-86294376D01*
X173420314Y-86232648D01*
X173301429Y-86232648D01*
X173301429Y-87745000D01*
G37*
D11*
X162591353Y-135372419D02*
X162353258Y-136372419D01*
X162353258Y-136372419D02*
X162162782Y-135658133D01*
X162162782Y-135658133D02*
X161972306Y-136372419D01*
X161972306Y-136372419D02*
X161734211Y-135372419D01*
X160924687Y-136372419D02*
X160924687Y-135848609D01*
X160924687Y-135848609D02*
X160972306Y-135753371D01*
X160972306Y-135753371D02*
X161067544Y-135705752D01*
X161067544Y-135705752D02*
X161258020Y-135705752D01*
X161258020Y-135705752D02*
X161353258Y-135753371D01*
X160924687Y-136324800D02*
X161019925Y-136372419D01*
X161019925Y-136372419D02*
X161258020Y-136372419D01*
X161258020Y-136372419D02*
X161353258Y-136324800D01*
X161353258Y-136324800D02*
X161400877Y-136229561D01*
X161400877Y-136229561D02*
X161400877Y-136134323D01*
X161400877Y-136134323D02*
X161353258Y-136039085D01*
X161353258Y-136039085D02*
X161258020Y-135991466D01*
X161258020Y-135991466D02*
X161019925Y-135991466D01*
X161019925Y-135991466D02*
X160924687Y-135943847D01*
X160543734Y-135705752D02*
X160305639Y-136372419D01*
X160067544Y-135705752D02*
X160305639Y-136372419D01*
X160305639Y-136372419D02*
X160400877Y-136610514D01*
X160400877Y-136610514D02*
X160448496Y-136658133D01*
X160448496Y-136658133D02*
X160543734Y-136705752D01*
X159781829Y-135372419D02*
X159543734Y-136372419D01*
X159543734Y-136372419D02*
X159353258Y-135658133D01*
X159353258Y-135658133D02*
X159162782Y-136372419D01*
X159162782Y-136372419D02*
X158924687Y-135372419D01*
X158115163Y-136372419D02*
X158115163Y-135848609D01*
X158115163Y-135848609D02*
X158162782Y-135753371D01*
X158162782Y-135753371D02*
X158258020Y-135705752D01*
X158258020Y-135705752D02*
X158448496Y-135705752D01*
X158448496Y-135705752D02*
X158543734Y-135753371D01*
X158115163Y-136324800D02*
X158210401Y-136372419D01*
X158210401Y-136372419D02*
X158448496Y-136372419D01*
X158448496Y-136372419D02*
X158543734Y-136324800D01*
X158543734Y-136324800D02*
X158591353Y-136229561D01*
X158591353Y-136229561D02*
X158591353Y-136134323D01*
X158591353Y-136134323D02*
X158543734Y-136039085D01*
X158543734Y-136039085D02*
X158448496Y-135991466D01*
X158448496Y-135991466D02*
X158210401Y-135991466D01*
X158210401Y-135991466D02*
X158115163Y-135943847D01*
X157734210Y-135705752D02*
X157496115Y-136372419D01*
X157258020Y-135705752D02*
X157496115Y-136372419D01*
X157496115Y-136372419D02*
X157591353Y-136610514D01*
X157591353Y-136610514D02*
X157638972Y-136658133D01*
X157638972Y-136658133D02*
X157734210Y-136705752D01*
X156972305Y-135372419D02*
X156734210Y-136372419D01*
X156734210Y-136372419D02*
X156543734Y-135658133D01*
X156543734Y-135658133D02*
X156353258Y-136372419D01*
X156353258Y-136372419D02*
X156115163Y-135372419D01*
X155305639Y-136372419D02*
X155305639Y-135848609D01*
X155305639Y-135848609D02*
X155353258Y-135753371D01*
X155353258Y-135753371D02*
X155448496Y-135705752D01*
X155448496Y-135705752D02*
X155638972Y-135705752D01*
X155638972Y-135705752D02*
X155734210Y-135753371D01*
X155305639Y-136324800D02*
X155400877Y-136372419D01*
X155400877Y-136372419D02*
X155638972Y-136372419D01*
X155638972Y-136372419D02*
X155734210Y-136324800D01*
X155734210Y-136324800D02*
X155781829Y-136229561D01*
X155781829Y-136229561D02*
X155781829Y-136134323D01*
X155781829Y-136134323D02*
X155734210Y-136039085D01*
X155734210Y-136039085D02*
X155638972Y-135991466D01*
X155638972Y-135991466D02*
X155400877Y-135991466D01*
X155400877Y-135991466D02*
X155305639Y-135943847D01*
X154924686Y-135705752D02*
X154686591Y-136372419D01*
X154448496Y-135705752D02*
X154686591Y-136372419D01*
X154686591Y-136372419D02*
X154781829Y-136610514D01*
X154781829Y-136610514D02*
X154829448Y-136658133D01*
X154829448Y-136658133D02*
X154924686Y-136705752D01*
D10*
G36*
X169026839Y-86569145D02*
G01*
X169026839Y-86745000D01*
X170019686Y-86745000D01*
X170015345Y-86679684D01*
X169998162Y-86617047D01*
X169950193Y-86518721D01*
X169876804Y-86417561D01*
X169781788Y-86318035D01*
X169635462Y-86189042D01*
X169473348Y-86048374D01*
X169367761Y-85944204D01*
X169304543Y-85868839D01*
X169254412Y-85787137D01*
X169227021Y-85713657D01*
X169218448Y-85646181D01*
X169227295Y-85576163D01*
X169253144Y-85515068D01*
X169296850Y-85460618D01*
X169353177Y-85419296D01*
X169420278Y-85393971D01*
X169501189Y-85385055D01*
X169586666Y-85394650D01*
X169656582Y-85421776D01*
X169714413Y-85465930D01*
X169757663Y-85524447D01*
X169785007Y-85597702D01*
X169795288Y-85689870D01*
X169984882Y-85666423D01*
X169967130Y-85561804D01*
X169936257Y-85475009D01*
X169893340Y-85403037D01*
X169838336Y-85343656D01*
X169772178Y-85296673D01*
X169694771Y-85262141D01*
X169603993Y-85240360D01*
X169497159Y-85232648D01*
X169389740Y-85240958D01*
X169298681Y-85264448D01*
X169221125Y-85301822D01*
X169154883Y-85352998D01*
X169099454Y-85417150D01*
X169060536Y-85487270D01*
X169036960Y-85564667D01*
X169028854Y-85651219D01*
X169037975Y-85740436D01*
X169065765Y-85829180D01*
X169112378Y-85915173D01*
X169188223Y-86013278D01*
X169290032Y-86116650D01*
X169472613Y-86278801D01*
X169622955Y-86408934D01*
X169685745Y-86468761D01*
X169729468Y-86519777D01*
X169763506Y-86569145D01*
X169026839Y-86569145D01*
G37*
G36*
X162056597Y-82217435D02*
G01*
X162056597Y-82387428D01*
X161404927Y-82387428D01*
X161404927Y-82745000D01*
X161220463Y-82745000D01*
X161220463Y-82387428D01*
X161017588Y-82387428D01*
X161017588Y-82217435D01*
X161220463Y-82217435D01*
X161404927Y-82217435D01*
X161875247Y-82217435D01*
X161404927Y-81549736D01*
X161404927Y-82217435D01*
X161220463Y-82217435D01*
X161220463Y-81244371D01*
X161371130Y-81244371D01*
X162056597Y-82217435D01*
G37*
G36*
X142622675Y-69741719D02*
G01*
X142710593Y-69768014D01*
X142789662Y-69811232D01*
X142861417Y-69872507D01*
X142919207Y-69946142D01*
X142960998Y-70030684D01*
X142987015Y-70128220D01*
X142996147Y-70241528D01*
X142987389Y-70351388D01*
X142962445Y-70445980D01*
X142922404Y-70527969D01*
X142867096Y-70599374D01*
X142798140Y-70659286D01*
X142723529Y-70701147D01*
X142641945Y-70726381D01*
X142551473Y-70735020D01*
X142478432Y-70728880D01*
X142409594Y-70710687D01*
X142343927Y-70680249D01*
X142283904Y-70639456D01*
X142233835Y-70591934D01*
X142192802Y-70537275D01*
X142191795Y-70574095D01*
X142198727Y-70687850D01*
X142219455Y-70799043D01*
X142252258Y-70902398D01*
X142288148Y-70973982D01*
X142335020Y-71032300D01*
X142393203Y-71077388D01*
X142461281Y-71106065D01*
X142542222Y-71116039D01*
X142606453Y-71109450D01*
X142660051Y-71090756D01*
X142705254Y-71060443D01*
X142740846Y-71019208D01*
X142769885Y-70961144D01*
X142791258Y-70881566D01*
X142968487Y-70893290D01*
X142950644Y-70980974D01*
X142922034Y-71055000D01*
X142883308Y-71117506D01*
X142834306Y-71170078D01*
X142775943Y-71212222D01*
X142709558Y-71242777D01*
X142633664Y-71261790D01*
X142546344Y-71268447D01*
X142438551Y-71258174D01*
X142342873Y-71228367D01*
X142256824Y-71179237D01*
X142183118Y-71112696D01*
X142121149Y-71027098D01*
X142070894Y-70919118D01*
X142038413Y-70803326D01*
X142016485Y-70652811D01*
X142008338Y-70460064D01*
X142016806Y-70274520D01*
X142023764Y-70231544D01*
X142213319Y-70231544D01*
X142223455Y-70334735D01*
X142251510Y-70416290D01*
X142295842Y-70480947D01*
X142355740Y-70530838D01*
X142424910Y-70560597D01*
X142506318Y-70570889D01*
X142587201Y-70560715D01*
X142657542Y-70531039D01*
X142720000Y-70480947D01*
X142767358Y-70416293D01*
X142796355Y-70339464D01*
X142806554Y-70247023D01*
X142795736Y-70143540D01*
X142765095Y-70057726D01*
X142715421Y-69985806D01*
X142649449Y-69928770D01*
X142578856Y-69896010D01*
X142501189Y-69885055D01*
X142426073Y-69895377D01*
X142359109Y-69925955D01*
X142297857Y-69978661D01*
X142252230Y-70045612D01*
X142223588Y-70128455D01*
X142213319Y-70231544D01*
X142023764Y-70231544D01*
X142039110Y-70136751D01*
X142071352Y-70036822D01*
X142120893Y-69945287D01*
X142182195Y-69870950D01*
X142255817Y-69811691D01*
X142339671Y-69767734D01*
X142428424Y-69741514D01*
X142523721Y-69732648D01*
X142622675Y-69741719D01*
G37*
G36*
X166495140Y-84346395D02*
G01*
X166310675Y-84322948D01*
X166281996Y-84423851D01*
X166245506Y-84496574D01*
X166202598Y-84547346D01*
X166148334Y-84585323D01*
X166087023Y-84608160D01*
X166016577Y-84616039D01*
X165933618Y-84605813D01*
X165861258Y-84575985D01*
X165796850Y-84525730D01*
X165747128Y-84460845D01*
X165717421Y-84387154D01*
X165707182Y-84301882D01*
X165716778Y-84220464D01*
X165744380Y-84151441D01*
X165790163Y-84091955D01*
X165849863Y-84046412D01*
X165919247Y-84018911D01*
X166001189Y-84009340D01*
X166056190Y-84013901D01*
X166131340Y-84029856D01*
X166110915Y-83865725D01*
X166081148Y-83867832D01*
X166004382Y-83860894D01*
X165934141Y-83840545D01*
X165869023Y-83806741D01*
X165828111Y-83772368D01*
X165799145Y-83730620D01*
X165781163Y-83680048D01*
X165774776Y-83618246D01*
X165782650Y-83553942D01*
X165805416Y-83499032D01*
X165843469Y-83451276D01*
X165892731Y-83414985D01*
X165950958Y-83392829D01*
X166020698Y-83385055D01*
X166089764Y-83392856D01*
X166148789Y-83415315D01*
X166200033Y-83452466D01*
X166240236Y-83501786D01*
X166271354Y-83567778D01*
X166292266Y-83654699D01*
X166476638Y-83619528D01*
X166453208Y-83529209D01*
X166419566Y-83452769D01*
X166376216Y-83388181D01*
X166322949Y-83333948D01*
X166260464Y-83290261D01*
X166190871Y-83258804D01*
X166112856Y-83239391D01*
X166024728Y-83232648D01*
X165944067Y-83238632D01*
X165868938Y-83256225D01*
X165798315Y-83285313D01*
X165733710Y-83325455D01*
X165681413Y-83373209D01*
X165640046Y-83429019D01*
X165609351Y-83491472D01*
X165591236Y-83555563D01*
X165585183Y-83622276D01*
X165591065Y-83685501D01*
X165608427Y-83744114D01*
X165637481Y-83799230D01*
X165676710Y-83847564D01*
X165727660Y-83889775D01*
X165792178Y-83925992D01*
X165708203Y-83954773D01*
X165640103Y-83997326D01*
X165585274Y-84053945D01*
X165545130Y-84122100D01*
X165520225Y-84202101D01*
X165511452Y-84296844D01*
X165520580Y-84392560D01*
X165547253Y-84478979D01*
X165591519Y-84558108D01*
X165654883Y-84631335D01*
X165730525Y-84690801D01*
X165814958Y-84733278D01*
X165909900Y-84759384D01*
X166017676Y-84768447D01*
X166115153Y-84760641D01*
X166201136Y-84738175D01*
X166277620Y-84701723D01*
X166346121Y-84650935D01*
X166404193Y-84588125D01*
X166448036Y-84517356D01*
X166478422Y-84437378D01*
X166495140Y-84346395D01*
G37*
G36*
X147715369Y-76212763D02*
G01*
X147501534Y-76212763D01*
X147407950Y-76207472D01*
X147346135Y-76194200D01*
X147294232Y-76171125D01*
X147256314Y-76141994D01*
X147228202Y-76108173D01*
X147203659Y-76066134D01*
X147182919Y-76014499D01*
X147168913Y-75960463D01*
X147159850Y-75896252D01*
X147156602Y-75820265D01*
X147160483Y-75739058D01*
X147171138Y-75673075D01*
X147187330Y-75619870D01*
X147208199Y-75577304D01*
X147246702Y-75525075D01*
X147288320Y-75487937D01*
X147333495Y-75463548D01*
X147370100Y-75453266D01*
X147425295Y-75445825D01*
X147504954Y-75442909D01*
X147715369Y-75442909D01*
X147715369Y-76212763D01*
G37*
G36*
X150091038Y-76456742D02*
G01*
X146908837Y-76456742D01*
X146908837Y-75822341D01*
X147019948Y-75822341D01*
X147023140Y-75898382D01*
X147032237Y-75965668D01*
X147046632Y-76025184D01*
X147078153Y-76108355D01*
X147114898Y-76171425D01*
X147159548Y-76224160D01*
X147206123Y-76262527D01*
X147259340Y-76291123D01*
X147325679Y-76312903D01*
X147398437Y-76325462D01*
X147486513Y-76330000D01*
X147847871Y-76330000D01*
X148070437Y-76330000D01*
X148206358Y-76330000D01*
X148732396Y-75541217D01*
X148732396Y-76330000D01*
X148859463Y-76330000D01*
X148859463Y-75818066D01*
X149053575Y-75818066D01*
X149053575Y-76189316D01*
X149120741Y-76237807D01*
X149187833Y-76276608D01*
X149255137Y-76306430D01*
X149325202Y-76328271D01*
X149396074Y-76341286D01*
X149468239Y-76345631D01*
X149565045Y-76338392D01*
X149653981Y-76317230D01*
X149736417Y-76282433D01*
X149793423Y-76247002D01*
X149842333Y-76205017D01*
X149883875Y-76156148D01*
X149918439Y-76099740D01*
X149952236Y-76018059D01*
X149972856Y-75929473D01*
X149979927Y-75832599D01*
X149973026Y-75736560D01*
X149952642Y-75645957D01*
X149918806Y-75559719D01*
X149884094Y-75499304D01*
X149843375Y-75448404D01*
X149796480Y-75406020D01*
X149742890Y-75371530D01*
X149664240Y-75337939D01*
X149576680Y-75317222D01*
X149478497Y-75310041D01*
X149406765Y-75314176D01*
X149341594Y-75326147D01*
X149282126Y-75345518D01*
X149226340Y-75373110D01*
X149180898Y-75406041D01*
X149144434Y-75444314D01*
X149115061Y-75488599D01*
X149089628Y-75543078D01*
X149068596Y-75609483D01*
X149188153Y-75642273D01*
X149214809Y-75571425D01*
X149244207Y-75522777D01*
X149268776Y-75496610D01*
X149300267Y-75473451D01*
X149339828Y-75453351D01*
X149404406Y-75433987D01*
X149477825Y-75427278D01*
X149537953Y-75430605D01*
X149589944Y-75440022D01*
X149634934Y-75454877D01*
X149695911Y-75487593D01*
X149741852Y-75527479D01*
X149778082Y-75574918D01*
X149804989Y-75626336D01*
X149826068Y-75689179D01*
X149838900Y-75755994D01*
X149843274Y-75827470D01*
X149837627Y-75915681D01*
X149821841Y-75989447D01*
X149797173Y-76051135D01*
X149761435Y-76106404D01*
X149716987Y-76150580D01*
X149662961Y-76184797D01*
X149602925Y-76209033D01*
X149540760Y-76223521D01*
X149475749Y-76228394D01*
X149419030Y-76224701D01*
X149363184Y-76213611D01*
X149307771Y-76194933D01*
X149232051Y-76158255D01*
X149183391Y-76123553D01*
X149183391Y-75935303D01*
X149477825Y-75935303D01*
X149477825Y-75818066D01*
X149053575Y-75818066D01*
X148859463Y-75818066D01*
X148859463Y-75325673D01*
X148723481Y-75325673D01*
X148197504Y-76114333D01*
X148197504Y-75325673D01*
X148070437Y-75325673D01*
X148070437Y-76330000D01*
X147847871Y-76330000D01*
X147847871Y-75325673D01*
X147502878Y-75325673D01*
X147392980Y-75329865D01*
X147324641Y-75340083D01*
X147269107Y-75357270D01*
X147220434Y-75381260D01*
X147177729Y-75412013D01*
X147129790Y-75460395D01*
X147090384Y-75517222D01*
X147059272Y-75583593D01*
X147037949Y-75654288D01*
X147024604Y-75733466D01*
X147020057Y-75820265D01*
X147019948Y-75822341D01*
X146908837Y-75822341D01*
X146908837Y-75198930D01*
X150091038Y-75198930D01*
X150091038Y-76456742D01*
G37*
G36*
X152269144Y-81456742D02*
G01*
X146696294Y-81456742D01*
X146696294Y-80442909D01*
X146807405Y-80442909D01*
X147138720Y-80442909D01*
X147138720Y-81330000D01*
X147271222Y-81330000D01*
X147271222Y-81009187D01*
X147689183Y-81009187D01*
X147715497Y-81089635D01*
X147749438Y-81157034D01*
X147790613Y-81213194D01*
X147839148Y-81259474D01*
X147895315Y-81296643D01*
X147957393Y-81323415D01*
X148026453Y-81339915D01*
X148103846Y-81345631D01*
X148185505Y-81340991D01*
X148255540Y-81327901D01*
X148315627Y-81307309D01*
X148367201Y-81279747D01*
X148414162Y-81243732D01*
X148443634Y-81212763D01*
X148719155Y-81212763D01*
X148719155Y-81330000D01*
X149466538Y-81330000D01*
X149466538Y-81212763D01*
X149626639Y-81212763D01*
X149626639Y-81330000D01*
X150252389Y-81330000D01*
X150252389Y-81212763D01*
X150429832Y-81212763D01*
X150429832Y-81330000D01*
X151177215Y-81330000D01*
X151177215Y-81046250D01*
X151360824Y-81046250D01*
X151365855Y-81098137D01*
X151380939Y-81147983D01*
X151406620Y-81196643D01*
X151440924Y-81239571D01*
X151484319Y-81276082D01*
X151538084Y-81306430D01*
X151596417Y-81327865D01*
X151660434Y-81341073D01*
X151731097Y-81345631D01*
X151821214Y-81340719D01*
X151896382Y-81327048D01*
X151958914Y-81305881D01*
X152016352Y-81274532D01*
X152064040Y-81234836D01*
X152103078Y-81186263D01*
X152132238Y-81131060D01*
X152150554Y-81071228D01*
X152158033Y-81005645D01*
X152032981Y-80993921D01*
X152023916Y-81043911D01*
X152009977Y-81085196D01*
X151991704Y-81119157D01*
X151967179Y-81148603D01*
X151934106Y-81174967D01*
X151890892Y-81198230D01*
X151844455Y-81214713D01*
X151793473Y-81224883D01*
X151737203Y-81228394D01*
X151664172Y-81222384D01*
X151603358Y-81205497D01*
X151566522Y-81187492D01*
X151538178Y-81166546D01*
X151516957Y-81142726D01*
X151495553Y-81100982D01*
X151488563Y-81056814D01*
X151495493Y-81012793D01*
X151515919Y-80975237D01*
X151549646Y-80944729D01*
X151606044Y-80916435D01*
X151658633Y-80899707D01*
X151784341Y-80867526D01*
X151911370Y-80832051D01*
X151977660Y-80804877D01*
X152022897Y-80776694D01*
X152058071Y-80745577D01*
X152084577Y-80711454D01*
X152104041Y-80672963D01*
X152115757Y-80631582D01*
X152119748Y-80586524D01*
X152114994Y-80537138D01*
X152100789Y-80490089D01*
X152076700Y-80444558D01*
X152044267Y-80404709D01*
X152002841Y-80371363D01*
X151951037Y-80344296D01*
X151894974Y-80325551D01*
X151833967Y-80314013D01*
X151767244Y-80310041D01*
X151693718Y-80314318D01*
X151628643Y-80326559D01*
X151570873Y-80346128D01*
X151517598Y-80374553D01*
X151474423Y-80409823D01*
X151440081Y-80452252D01*
X151414403Y-80500694D01*
X151397996Y-80553275D01*
X151390866Y-80610949D01*
X151517934Y-80618764D01*
X151530990Y-80558459D01*
X151554258Y-80511708D01*
X151587299Y-80475699D01*
X151629429Y-80450288D01*
X151686156Y-80433522D01*
X151761810Y-80427278D01*
X151841173Y-80433207D01*
X151897692Y-80448710D01*
X151937054Y-80471425D01*
X151968296Y-80503819D01*
X151986074Y-80538821D01*
X151992009Y-80577793D01*
X151987573Y-80612081D01*
X151974710Y-80641298D01*
X151953052Y-80666697D01*
X151923723Y-80685532D01*
X151862819Y-80709212D01*
X151753262Y-80738260D01*
X151604893Y-80776086D01*
X151531611Y-80802130D01*
X151476177Y-80832821D01*
X151433839Y-80866824D01*
X151402529Y-80904101D01*
X151379540Y-80946865D01*
X151365609Y-80993888D01*
X151360824Y-81046250D01*
X151177215Y-81046250D01*
X151177215Y-80325673D01*
X150453096Y-80325673D01*
X150453096Y-80442909D01*
X151044652Y-80442909D01*
X151044652Y-80751632D01*
X150490648Y-80751632D01*
X150490648Y-80868869D01*
X151044652Y-80868869D01*
X151044652Y-81212763D01*
X150429832Y-81212763D01*
X150252389Y-81212763D01*
X150252389Y-80325673D01*
X150119826Y-80325673D01*
X150119826Y-81212763D01*
X149626639Y-81212763D01*
X149466538Y-81212763D01*
X149466538Y-80325673D01*
X148742419Y-80325673D01*
X148742419Y-80442909D01*
X149333975Y-80442909D01*
X149333975Y-80751632D01*
X148779971Y-80751632D01*
X148779971Y-80868869D01*
X149333975Y-80868869D01*
X149333975Y-81212763D01*
X148719155Y-81212763D01*
X148443634Y-81212763D01*
X148455386Y-81200414D01*
X148491181Y-81149102D01*
X148521562Y-81088810D01*
X148550798Y-81004049D01*
X148568498Y-80914848D01*
X148574502Y-80820326D01*
X148567430Y-80717440D01*
X148547194Y-80627128D01*
X148514724Y-80547445D01*
X148481209Y-80492034D01*
X148441892Y-80444510D01*
X148396549Y-80404142D01*
X148344669Y-80370491D01*
X148269136Y-80337077D01*
X148188579Y-80316904D01*
X148101770Y-80310041D01*
X148027095Y-80315217D01*
X147960910Y-80330090D01*
X147901912Y-80354070D01*
X147849040Y-80387100D01*
X147802447Y-80428745D01*
X147763260Y-80478100D01*
X147731163Y-80536055D01*
X147706280Y-80603866D01*
X147836705Y-80634335D01*
X147865228Y-80565244D01*
X147899065Y-80513798D01*
X147937822Y-80476676D01*
X147984278Y-80449877D01*
X148039146Y-80433178D01*
X148104457Y-80427278D01*
X148179724Y-80433825D01*
X148243327Y-80452372D01*
X148297470Y-80482110D01*
X148344004Y-80522759D01*
X148380121Y-80571421D01*
X148406463Y-80629267D01*
X148423898Y-80691457D01*
X148434347Y-80754818D01*
X148437848Y-80819715D01*
X148433389Y-80903483D01*
X148420720Y-80976653D01*
X148400662Y-81040633D01*
X148370502Y-81099393D01*
X148332040Y-81145869D01*
X148284830Y-81181744D01*
X148230872Y-81207709D01*
X148174462Y-81223182D01*
X148114715Y-81228394D01*
X148059767Y-81224198D01*
X148010651Y-81212067D01*
X147966390Y-81192330D01*
X147926220Y-81164830D01*
X147892033Y-81130759D01*
X147863142Y-81088807D01*
X147839549Y-81037759D01*
X147821684Y-80976031D01*
X147689183Y-81009187D01*
X147271222Y-81009187D01*
X147271222Y-80442909D01*
X147601194Y-80442909D01*
X147601194Y-80325673D01*
X146807405Y-80325673D01*
X146807405Y-80442909D01*
X146696294Y-80442909D01*
X146696294Y-80198930D01*
X152269144Y-80198930D01*
X152269144Y-81456742D01*
G37*
G36*
X154559211Y-76239963D02*
G01*
X154642345Y-76261043D01*
X154716598Y-76295250D01*
X154783370Y-76342857D01*
X154843557Y-76405022D01*
X154896049Y-76483660D01*
X154939866Y-76582195D01*
X154973901Y-76704482D01*
X154996266Y-76855055D01*
X155004391Y-77039016D01*
X154996973Y-77203853D01*
X154976632Y-77337617D01*
X154945797Y-77445220D01*
X154906235Y-77531004D01*
X154858944Y-77598637D01*
X154780374Y-77673297D01*
X154692892Y-77725651D01*
X154594635Y-77757453D01*
X154482779Y-77768447D01*
X154394425Y-77761026D01*
X154314348Y-77739395D01*
X154240979Y-77703784D01*
X154175683Y-77654934D01*
X154120018Y-77593341D01*
X154073459Y-77517396D01*
X154039697Y-77434416D01*
X154019353Y-77346950D01*
X154013314Y-77265429D01*
X154201045Y-77265429D01*
X154211305Y-77370366D01*
X154239843Y-77454319D01*
X154285126Y-77521792D01*
X154346043Y-77574995D01*
X154412168Y-77605710D01*
X154485894Y-77616039D01*
X154563370Y-77604836D01*
X154638576Y-77570427D01*
X154682828Y-77536028D01*
X154720467Y-77492230D01*
X154751782Y-77437711D01*
X154782165Y-77348387D01*
X154792266Y-77255170D01*
X154781963Y-77161673D01*
X154752752Y-77084468D01*
X154705163Y-77019965D01*
X154642478Y-76969857D01*
X154572615Y-76940297D01*
X154493038Y-76930205D01*
X154412935Y-76940412D01*
X154344202Y-76970055D01*
X154284027Y-77019965D01*
X154239294Y-77084364D01*
X154211160Y-77164705D01*
X154201045Y-77265429D01*
X154013314Y-77265429D01*
X154012459Y-77253888D01*
X154021148Y-77147531D01*
X154046025Y-77054984D01*
X154086209Y-76973808D01*
X154142061Y-76902178D01*
X154211289Y-76841924D01*
X154285758Y-76799936D01*
X154366750Y-76774695D01*
X154456126Y-76766074D01*
X154525370Y-76771518D01*
X154592428Y-76787805D01*
X154658085Y-76815259D01*
X154718006Y-76853114D01*
X154772147Y-76902839D01*
X154820934Y-76965834D01*
X154813022Y-76814967D01*
X154794654Y-76701878D01*
X154768727Y-76618979D01*
X154729587Y-76541939D01*
X154683779Y-76481081D01*
X154631340Y-76434057D01*
X154584899Y-76406985D01*
X154533764Y-76390657D01*
X154476643Y-76385055D01*
X154406873Y-76393882D01*
X154346150Y-76419647D01*
X154292178Y-76463183D01*
X154254603Y-76521410D01*
X154222478Y-76619528D01*
X154039112Y-76607805D01*
X154056942Y-76521631D01*
X154085747Y-76448235D01*
X154124991Y-76385636D01*
X154174942Y-76332390D01*
X154234089Y-76289601D01*
X154301159Y-76258625D01*
X154377622Y-76239378D01*
X154465377Y-76232648D01*
X154559211Y-76239963D01*
G37*
G36*
X151483874Y-75431950D02*
G01*
X151483874Y-75256095D01*
X150511452Y-75256095D01*
X150511452Y-75398428D01*
X150601360Y-75504657D01*
X150696069Y-75639072D01*
X150795842Y-75806099D01*
X150883175Y-75978557D01*
X150955590Y-76152928D01*
X151013554Y-76329634D01*
X151045369Y-76457086D01*
X151069119Y-76595231D01*
X151084262Y-76745000D01*
X151273764Y-76745000D01*
X151265683Y-76626855D01*
X151243423Y-76484515D01*
X151204063Y-76314155D01*
X151153363Y-76148168D01*
X151089770Y-75985980D01*
X151013005Y-75827165D01*
X150924915Y-75673661D01*
X150836584Y-75542689D01*
X150748123Y-75431950D01*
X151483874Y-75431950D01*
G37*
D12*
G36*
X166912213Y-116752335D02*
G01*
X166868078Y-116785594D01*
X166834820Y-116741458D01*
X166878954Y-116708200D01*
X166912213Y-116752335D01*
G37*
G36*
X167969362Y-119899940D02*
G01*
X167925226Y-119933198D01*
X167891969Y-119889063D01*
X167936104Y-119855804D01*
X167969362Y-119899940D01*
G37*
G36*
X132652227Y-113649829D02*
G01*
X132677453Y-113669012D01*
X132649427Y-113700946D01*
X132570161Y-113695386D01*
X132490236Y-113664880D01*
X132529974Y-113642056D01*
X132652227Y-113649829D01*
G37*
G36*
X165210374Y-111758277D02*
G01*
X165218165Y-111760273D01*
X165618957Y-111923469D01*
X165996666Y-112182922D01*
X166298109Y-112498067D01*
X166404179Y-112664934D01*
X166559564Y-113000124D01*
X166694589Y-113360488D01*
X166794305Y-113698844D01*
X166843762Y-113968008D01*
X166845377Y-114057375D01*
X166852983Y-114208001D01*
X166887225Y-114262726D01*
X166926068Y-114322722D01*
X166924607Y-114327228D01*
X166927634Y-114436202D01*
X166963223Y-114614019D01*
X166997500Y-114862168D01*
X166992274Y-115059548D01*
X166992523Y-115283710D01*
X167032255Y-115611062D01*
X167103617Y-115995822D01*
X167198762Y-116392214D01*
X167253387Y-116582389D01*
X167315825Y-116796020D01*
X167351851Y-116938518D01*
X167355645Y-116966501D01*
X167367751Y-117059358D01*
X167403010Y-117230515D01*
X167432354Y-117390700D01*
X167430637Y-117458423D01*
X167430169Y-117458433D01*
X167448275Y-117516444D01*
X167524770Y-117661949D01*
X167548137Y-117702691D01*
X167640014Y-117892929D01*
X167677647Y-118036794D01*
X167676954Y-118049627D01*
X167690270Y-118182121D01*
X167773015Y-118191965D01*
X167906732Y-118085762D01*
X168039251Y-117919905D01*
X168201268Y-117715768D01*
X168395503Y-117510216D01*
X168590916Y-117331014D01*
X168756472Y-117205929D01*
X168861128Y-117162724D01*
X168876701Y-117170745D01*
X168893107Y-117267325D01*
X168911535Y-117509553D01*
X168931488Y-117886786D01*
X168952469Y-118388386D01*
X168973981Y-119003709D01*
X168995049Y-119704997D01*
X169002706Y-120062425D01*
X168998183Y-120299794D01*
X168976327Y-120453197D01*
X168931989Y-120558727D01*
X168860013Y-120652473D01*
X168859747Y-120652774D01*
X168684457Y-120791923D01*
X168517197Y-120783881D01*
X168338661Y-120626187D01*
X168303997Y-120581932D01*
X168197767Y-120389077D01*
X168162021Y-120215743D01*
X168162978Y-120206965D01*
X168149155Y-120074841D01*
X168107834Y-120037783D01*
X168047308Y-119965636D01*
X168046215Y-119914662D01*
X168006092Y-119769795D01*
X167966608Y-119725900D01*
X167895031Y-119609211D01*
X167819254Y-119397469D01*
X167784277Y-119262283D01*
X167783307Y-119259040D01*
X167901591Y-119259040D01*
X167934848Y-119303174D01*
X167978984Y-119269917D01*
X167945726Y-119225779D01*
X167901591Y-119259040D01*
X167783307Y-119259040D01*
X167778114Y-119241686D01*
X167705372Y-118998611D01*
X167609117Y-118880039D01*
X167477148Y-118895357D01*
X167339823Y-118991182D01*
X167089245Y-119141642D01*
X166775643Y-119247090D01*
X166439049Y-119304191D01*
X166119498Y-119309610D01*
X165857021Y-119260009D01*
X165691648Y-119152057D01*
X165677188Y-119129708D01*
X165548884Y-118983447D01*
X165480664Y-118936117D01*
X165378230Y-118836327D01*
X165364751Y-118778161D01*
X165317081Y-118714706D01*
X165263465Y-118716287D01*
X165151363Y-118681146D01*
X165030663Y-118567185D01*
X164941486Y-118426971D01*
X164923962Y-118313065D01*
X164939168Y-118291468D01*
X164948004Y-118262224D01*
X164909633Y-118273933D01*
X164812344Y-118259172D01*
X164796245Y-118225938D01*
X164726466Y-118155838D01*
X164650674Y-118105726D01*
X165322828Y-118105726D01*
X165418118Y-118250768D01*
X165534611Y-118375366D01*
X165914312Y-118663410D01*
X166346256Y-118830244D01*
X166793425Y-118865660D01*
X167097073Y-118806339D01*
X167269082Y-118716670D01*
X167362021Y-118629251D01*
X167912882Y-118629251D01*
X167932754Y-118783652D01*
X168008177Y-119031475D01*
X168121383Y-119328092D01*
X168254610Y-119628880D01*
X168390095Y-119889210D01*
X168456716Y-119995483D01*
X168597995Y-120200233D01*
X168658656Y-119937626D01*
X168679535Y-119748669D01*
X168686928Y-119451146D01*
X168680405Y-119092256D01*
X168668655Y-118851044D01*
X168639206Y-118408421D01*
X168608822Y-118107659D01*
X168568843Y-117934507D01*
X168510610Y-117874708D01*
X168425467Y-117914009D01*
X168304752Y-118038158D01*
X168228836Y-118127017D01*
X168063817Y-118343998D01*
X167947563Y-118536455D01*
X167912882Y-118629251D01*
X167362021Y-118629251D01*
X167402775Y-118590917D01*
X167420046Y-118559987D01*
X167472595Y-118465881D01*
X167452990Y-118378363D01*
X167406478Y-118360776D01*
X167366037Y-118290763D01*
X167383198Y-118188982D01*
X167406701Y-118079142D01*
X167386373Y-118067287D01*
X167302034Y-118047346D01*
X167197153Y-117909175D01*
X167103706Y-117704951D01*
X167075825Y-117563975D01*
X167113304Y-117530353D01*
X167166178Y-117480048D01*
X167162758Y-117418922D01*
X167075151Y-117301642D01*
X167018436Y-117280256D01*
X166945185Y-117218478D01*
X166963208Y-117154111D01*
X166978124Y-117054620D01*
X166947633Y-117033539D01*
X166915834Y-116963781D01*
X166950899Y-116826404D01*
X166994367Y-116672154D01*
X166963431Y-116629071D01*
X166877265Y-116683110D01*
X166755033Y-116820237D01*
X166615907Y-117026408D01*
X166570924Y-117104718D01*
X166333172Y-117444381D01*
X166040618Y-117726052D01*
X165731906Y-117917958D01*
X165499538Y-117985479D01*
X165350532Y-118023561D01*
X165322828Y-118105726D01*
X164650674Y-118105726D01*
X164564460Y-118048723D01*
X164449368Y-117982970D01*
X164357484Y-117930476D01*
X164152795Y-117826981D01*
X163997652Y-117764120D01*
X163943027Y-117758633D01*
X163952337Y-117834953D01*
X164008437Y-118007532D01*
X164050468Y-118117268D01*
X164128302Y-118354641D01*
X164126986Y-118505003D01*
X164085457Y-118577565D01*
X163889964Y-118741389D01*
X163679197Y-118773738D01*
X163441543Y-118670756D01*
X163165389Y-118428587D01*
X162970145Y-118207336D01*
X162779010Y-117980220D01*
X162658953Y-117857967D01*
X162582941Y-117823751D01*
X162523945Y-117860750D01*
X162487691Y-117907090D01*
X162294250Y-118076479D01*
X162084887Y-118093163D01*
X161877420Y-117957060D01*
X161836608Y-117910114D01*
X161718333Y-117739846D01*
X161662365Y-117613090D01*
X161661708Y-117597827D01*
X161633261Y-117474676D01*
X161560137Y-117319046D01*
X161448727Y-117122769D01*
X161236016Y-117339401D01*
X161078341Y-117464197D01*
X160917779Y-117497304D01*
X160727526Y-117431425D01*
X160480786Y-117259264D01*
X160263438Y-117074554D01*
X160002287Y-116847990D01*
X159830806Y-116721228D01*
X159723466Y-116688422D01*
X159654731Y-116743736D01*
X159599070Y-116881329D01*
X159586764Y-116919773D01*
X159479481Y-117227397D01*
X159359499Y-117521897D01*
X159243048Y-117768562D01*
X159146364Y-117932683D01*
X159090315Y-117981235D01*
X159023862Y-117935246D01*
X159007506Y-117809511D01*
X159043099Y-117584070D01*
X159132488Y-117238954D01*
X159171537Y-117104118D01*
X159312868Y-116686303D01*
X159467877Y-116332113D01*
X159622741Y-116067411D01*
X159763629Y-115918057D01*
X159817629Y-115895549D01*
X159911425Y-115937877D01*
X160089748Y-116062909D01*
X160321622Y-116248028D01*
X160446141Y-116354460D01*
X160689460Y-116562738D01*
X160889249Y-116725845D01*
X161016213Y-116820233D01*
X161043184Y-116834296D01*
X161113109Y-116777730D01*
X161224340Y-116626860D01*
X161276189Y-116543887D01*
X161407058Y-116359561D01*
X161520273Y-116303349D01*
X161637389Y-116380948D01*
X161779957Y-116598054D01*
X161830456Y-116690386D01*
X161944636Y-116892390D01*
X162031205Y-117024321D01*
X162058589Y-117051903D01*
X162129542Y-117004716D01*
X162224583Y-116901229D01*
X162709203Y-116901229D01*
X162786790Y-117026839D01*
X162930033Y-117233082D01*
X163069076Y-117423665D01*
X163270292Y-117689005D01*
X163439004Y-117900552D01*
X163552833Y-118030851D01*
X163586774Y-118058966D01*
X163678370Y-118016611D01*
X163707790Y-117986610D01*
X163724364Y-117934537D01*
X163683939Y-117945274D01*
X163594309Y-117908355D01*
X163474809Y-117768057D01*
X163439353Y-117710685D01*
X164278331Y-117710685D01*
X164282488Y-117758189D01*
X164322677Y-117769532D01*
X164390359Y-117750167D01*
X164381522Y-117725189D01*
X164290974Y-117703018D01*
X164278331Y-117710685D01*
X163439353Y-117710685D01*
X163422869Y-117684012D01*
X163354080Y-117580791D01*
X163298153Y-117496869D01*
X163184818Y-117382686D01*
X163152142Y-117368259D01*
X163042261Y-117295972D01*
X162934784Y-117156424D01*
X162812797Y-116982620D01*
X162711660Y-116878212D01*
X162709203Y-116901229D01*
X162224583Y-116901229D01*
X162248140Y-116875578D01*
X162261463Y-116859075D01*
X162290146Y-116818972D01*
X162366182Y-116712665D01*
X162375551Y-116616718D01*
X162299291Y-116506745D01*
X162225155Y-116397265D01*
X162229323Y-116293827D01*
X162317310Y-116133420D01*
X162334329Y-116106458D01*
X162459160Y-115947079D01*
X162567169Y-115869491D01*
X162585171Y-115867982D01*
X162673761Y-115932527D01*
X162824386Y-116091419D01*
X163007117Y-116312613D01*
X163039268Y-116354168D01*
X163262992Y-116617846D01*
X163501680Y-116855092D01*
X163703856Y-117014764D01*
X163704787Y-117015342D01*
X163883913Y-117139972D01*
X163987778Y-117238627D01*
X163998877Y-117265682D01*
X164056681Y-117325627D01*
X164144881Y-117349935D01*
X164281919Y-117313389D01*
X164321421Y-117216902D01*
X164310506Y-117087065D01*
X164274969Y-117052531D01*
X164227654Y-116976541D01*
X164183823Y-116793961D01*
X164166657Y-116669725D01*
X164150951Y-116430432D01*
X164174793Y-116302143D01*
X164236475Y-116246676D01*
X164293881Y-116201633D01*
X164216613Y-116177396D01*
X164136125Y-116089945D01*
X164074295Y-115868575D01*
X164035116Y-115534991D01*
X164022540Y-115122928D01*
X164007076Y-114935558D01*
X163997993Y-114882713D01*
X163981927Y-114711563D01*
X163974584Y-114432061D01*
X163975320Y-114091883D01*
X163979675Y-113903668D01*
X164161603Y-113903668D01*
X164201038Y-113945664D01*
X164239238Y-114062368D01*
X164220542Y-114249575D01*
X164218178Y-114258883D01*
X164198864Y-114474085D01*
X164244031Y-114621746D01*
X164297765Y-114758192D01*
X164349332Y-114996573D01*
X164384336Y-115256778D01*
X164440789Y-115786276D01*
X164497110Y-116198693D01*
X164560653Y-116533080D01*
X164638768Y-116828487D01*
X164732789Y-117107529D01*
X164856506Y-117405890D01*
X164986112Y-117580308D01*
X165162925Y-117655289D01*
X165428256Y-117655336D01*
X165619228Y-117633314D01*
X165899194Y-117543405D01*
X166155429Y-117372321D01*
X166340725Y-117158663D01*
X166405180Y-116990708D01*
X166447114Y-116851128D01*
X166493599Y-116811885D01*
X166537661Y-116747710D01*
X166561721Y-116562548D01*
X166566494Y-116290348D01*
X166552693Y-115965049D01*
X166521037Y-115620597D01*
X166472234Y-115290937D01*
X166460278Y-115228764D01*
X166394130Y-114899675D01*
X166333434Y-114596834D01*
X166290193Y-114380159D01*
X166286773Y-114362915D01*
X166274528Y-114143148D01*
X166316778Y-113973593D01*
X166317373Y-113972607D01*
X166387573Y-113795072D01*
X166377841Y-113592623D01*
X166281758Y-113329050D01*
X166161246Y-113091666D01*
X165872932Y-112631858D01*
X165568683Y-112277654D01*
X165266868Y-112048852D01*
X165143255Y-111994237D01*
X164866465Y-111947767D01*
X164668249Y-112030695D01*
X164538200Y-112229038D01*
X164473189Y-112439785D01*
X164405703Y-112748050D01*
X164345760Y-113095547D01*
X164303383Y-113423986D01*
X164288589Y-113675079D01*
X164288671Y-113680544D01*
X164264819Y-113839956D01*
X164206341Y-113887217D01*
X164161603Y-113903668D01*
X163979675Y-113903668D01*
X163980265Y-113878182D01*
X163983491Y-113738701D01*
X163998455Y-113420193D01*
X164019570Y-113184029D01*
X164021052Y-113173285D01*
X164137961Y-112656550D01*
X164322967Y-112232711D01*
X164563905Y-111928020D01*
X164618895Y-111882814D01*
X164816202Y-111754532D01*
X164985523Y-111718713D01*
X165210374Y-111758277D01*
G37*
G36*
X151183208Y-110389024D02*
G01*
X151241322Y-110578763D01*
X151287229Y-110814928D01*
X151343770Y-111091963D01*
X151439106Y-111463452D01*
X151558980Y-111876818D01*
X151665519Y-112209945D01*
X151972843Y-112975814D01*
X152349937Y-113627910D01*
X152819873Y-114201637D01*
X153195544Y-114557550D01*
X153632348Y-114936184D01*
X153748998Y-114414479D01*
X153805497Y-114104426D01*
X153836342Y-113817087D01*
X153836152Y-113636868D01*
X153834115Y-113393732D01*
X153868793Y-113192834D01*
X153895922Y-112948722D01*
X153862284Y-112588395D01*
X153770904Y-112138339D01*
X153730561Y-111981917D01*
X153687628Y-111613282D01*
X153740211Y-111244593D01*
X153875733Y-110928071D01*
X154026097Y-110754827D01*
X154176543Y-110660817D01*
X154273914Y-110648527D01*
X154280641Y-110655063D01*
X154297851Y-110756915D01*
X154306824Y-110978690D01*
X154306726Y-111284185D01*
X154300808Y-111528500D01*
X154292368Y-111818716D01*
X154294581Y-112055821D01*
X154316032Y-112265473D01*
X154365306Y-112473336D01*
X154450991Y-112705065D01*
X154581672Y-112986323D01*
X154765935Y-113342767D01*
X155012366Y-113800059D01*
X155138559Y-114032211D01*
X155327457Y-114386591D01*
X155483125Y-114692092D01*
X155592900Y-114922773D01*
X155644108Y-115052697D01*
X155645574Y-115070260D01*
X155674979Y-115132045D01*
X155690657Y-115135788D01*
X155759099Y-115203177D01*
X155885159Y-115376508D01*
X156048311Y-115626336D01*
X156163367Y-115813867D01*
X156450129Y-116271113D01*
X156779015Y-116760865D01*
X157127011Y-117251734D01*
X157471093Y-117712338D01*
X157788251Y-118111290D01*
X158055464Y-118417204D01*
X158124903Y-118488577D01*
X158309633Y-118681180D01*
X158437617Y-118833251D01*
X158480174Y-118908875D01*
X158424367Y-119006737D01*
X158343357Y-119101147D01*
X158258843Y-119174615D01*
X158180350Y-119175152D01*
X158063090Y-119089292D01*
X157945810Y-118981663D01*
X157763197Y-118794722D01*
X157532469Y-118536210D01*
X157300424Y-118258746D01*
X157277478Y-118230142D01*
X156878333Y-117730215D01*
X156656992Y-117925677D01*
X156477135Y-118082284D01*
X156236309Y-118289191D01*
X156036138Y-118459601D01*
X155636625Y-118798063D01*
X155908362Y-118441643D01*
X156103997Y-118196771D01*
X156301745Y-117967320D01*
X156392165Y-117870812D01*
X156535018Y-117701625D01*
X156615918Y-117558788D01*
X156620743Y-117538892D01*
X156568146Y-117448678D01*
X156420558Y-117305610D01*
X156216090Y-117138783D01*
X155992857Y-116977295D01*
X155788969Y-116850241D01*
X155642535Y-116786718D01*
X155633384Y-116785098D01*
X155514517Y-116737709D01*
X155273144Y-116614637D01*
X154920113Y-116421743D01*
X154466258Y-116164897D01*
X154146995Y-115980754D01*
X153736975Y-115742842D01*
X153633851Y-116159783D01*
X153564040Y-116554219D01*
X153521394Y-117027884D01*
X153508028Y-117519257D01*
X153526060Y-117966810D01*
X153562269Y-118240833D01*
X153653165Y-118539336D01*
X153798675Y-118851514D01*
X153971785Y-119130886D01*
X154145485Y-119330970D01*
X154229901Y-119389626D01*
X154400317Y-119415930D01*
X154622351Y-119387464D01*
X154643140Y-119381855D01*
X154930668Y-119303939D01*
X155091260Y-119274613D01*
X155146651Y-119294226D01*
X155118580Y-119363124D01*
X155100276Y-119389173D01*
X154885278Y-119587788D01*
X154607979Y-119722113D01*
X154338020Y-119759412D01*
X154317759Y-119757076D01*
X154047379Y-119650676D01*
X153796893Y-119435129D01*
X153616072Y-119154713D01*
X153601973Y-119120252D01*
X153455286Y-118731075D01*
X153353186Y-118423864D01*
X153291332Y-118158178D01*
X153265382Y-117893566D01*
X153270992Y-117589594D01*
X153303818Y-117205813D01*
X153350661Y-116779729D01*
X153487362Y-115575408D01*
X153128054Y-115288388D01*
X152878227Y-115075346D01*
X153869342Y-115075346D01*
X154328327Y-115389234D01*
X154691969Y-115635549D01*
X155050263Y-115874070D01*
X155378213Y-116088601D01*
X155650827Y-116262951D01*
X155843108Y-116380927D01*
X155928729Y-116426071D01*
X155991478Y-116400486D01*
X155991723Y-116399012D01*
X155955878Y-116318246D01*
X155855468Y-116139550D01*
X155709835Y-115896883D01*
X155659406Y-115815386D01*
X155350897Y-115310415D01*
X155062777Y-114820292D01*
X154805663Y-114364758D01*
X154590179Y-113963551D01*
X154426943Y-113636413D01*
X154326573Y-113403082D01*
X154299055Y-113286796D01*
X154276654Y-113216977D01*
X154230580Y-113237712D01*
X154185935Y-113336278D01*
X154127806Y-113556093D01*
X154064051Y-113863554D01*
X154008243Y-114188154D01*
X153869342Y-115075346D01*
X152878227Y-115075346D01*
X152858283Y-115058339D01*
X152699409Y-114910924D01*
X152570868Y-114791657D01*
X152435454Y-114656733D01*
X152261385Y-114484331D01*
X152138453Y-114376995D01*
X152095804Y-114357319D01*
X152109923Y-114444334D01*
X152153010Y-114659402D01*
X152219927Y-114978036D01*
X152305525Y-115375752D01*
X152404662Y-115828061D01*
X152408045Y-115843363D01*
X152554925Y-116479693D01*
X152715164Y-117125367D01*
X152881900Y-117756560D01*
X153048278Y-118349447D01*
X153207438Y-118880205D01*
X153352525Y-119325005D01*
X153476681Y-119660027D01*
X153556533Y-119833371D01*
X153693738Y-120115851D01*
X153734101Y-120304271D01*
X153681051Y-120424478D01*
X153639153Y-120456398D01*
X153525548Y-120506155D01*
X153492248Y-120500713D01*
X153452999Y-120420879D01*
X153360974Y-120228180D01*
X153229787Y-119951268D01*
X153073053Y-119618784D01*
X153068283Y-119608641D01*
X152717635Y-118923861D01*
X152364837Y-118365193D01*
X151989733Y-117903479D01*
X151682549Y-117604086D01*
X151457494Y-117426942D01*
X151170478Y-117230961D01*
X150861400Y-117039983D01*
X150570165Y-116877842D01*
X150336672Y-116768375D01*
X150229130Y-116735877D01*
X150159162Y-116793283D01*
X150145425Y-116987150D01*
X150186976Y-117308455D01*
X150282877Y-117748179D01*
X150368689Y-118074416D01*
X150461014Y-118436738D01*
X150501271Y-118678635D01*
X150492508Y-118825955D01*
X150463855Y-118881059D01*
X150360487Y-118974940D01*
X150260407Y-118983692D01*
X150144041Y-118893312D01*
X149991820Y-118689802D01*
X149822724Y-118422493D01*
X149647929Y-118147680D01*
X149493661Y-117924963D01*
X149383888Y-117788144D01*
X149355564Y-117763702D01*
X149245654Y-117783130D01*
X149112712Y-117915027D01*
X149108153Y-117921385D01*
X148857603Y-118149578D01*
X148539329Y-118258695D01*
X148202626Y-118232644D01*
X148178346Y-118224906D01*
X147889676Y-118095886D01*
X147542917Y-117894546D01*
X147193763Y-117655736D01*
X146931262Y-117444502D01*
X146781517Y-117316264D01*
X146720738Y-117287527D01*
X146723358Y-117351421D01*
X146733713Y-117391426D01*
X146781043Y-117719826D01*
X146739375Y-117979177D01*
X146623054Y-118148391D01*
X146446418Y-118206378D01*
X146228200Y-118134713D01*
X146029365Y-117983225D01*
X145838331Y-117791549D01*
X145833015Y-117785209D01*
X145710928Y-117646360D01*
X145653512Y-117619775D01*
X145628812Y-117694859D01*
X145625648Y-117716410D01*
X145554411Y-117896768D01*
X145474812Y-118003785D01*
X145355516Y-118088637D01*
X145229172Y-118054871D01*
X145176438Y-118020970D01*
X145032210Y-117925784D01*
X144799448Y-117775746D01*
X144522022Y-117599074D01*
X144444512Y-117550067D01*
X144153347Y-117358265D01*
X143888111Y-117169613D01*
X143697342Y-117018953D01*
X143669719Y-116993924D01*
X143496758Y-116856067D01*
X143405564Y-116842975D01*
X143402575Y-116953671D01*
X143426891Y-117030687D01*
X143467047Y-117305445D01*
X143407263Y-117569483D01*
X143262400Y-117759584D01*
X143254159Y-117765360D01*
X143087505Y-117820187D01*
X142837282Y-117807417D01*
X142490566Y-117723989D01*
X142034430Y-117566851D01*
X141494393Y-117349218D01*
X141086900Y-117177789D01*
X140801321Y-117060153D01*
X140615869Y-116988591D01*
X140508757Y-116955392D01*
X140458199Y-116952846D01*
X140442412Y-116973237D01*
X140441853Y-116976611D01*
X140477810Y-117105188D01*
X140602681Y-117356676D01*
X140814235Y-117727002D01*
X141110249Y-118212093D01*
X141167462Y-118303532D01*
X141369636Y-118627897D01*
X141556167Y-118933097D01*
X141743337Y-119246953D01*
X141947422Y-119597296D01*
X142184700Y-120011946D01*
X142471454Y-120518730D01*
X142675967Y-120882057D01*
X143129441Y-121678153D01*
X143527022Y-122352130D01*
X143880595Y-122922700D01*
X144202040Y-123408595D01*
X144503242Y-123828537D01*
X144733804Y-124124872D01*
X144940560Y-124383302D01*
X145218222Y-124733733D01*
X145541935Y-125144615D01*
X145886848Y-125584405D01*
X146228111Y-126021558D01*
X146236982Y-126032952D01*
X146555617Y-126439685D01*
X146858254Y-126821271D01*
X147125911Y-127154135D01*
X147339608Y-127414714D01*
X147480362Y-127579429D01*
X147496883Y-127597504D01*
X147673300Y-127827344D01*
X147723173Y-128024392D01*
X147656651Y-128231665D01*
X147649584Y-128244638D01*
X147582098Y-128332699D01*
X147503641Y-128326699D01*
X147382618Y-128214033D01*
X147283682Y-128098703D01*
X147092682Y-127876650D01*
X146880245Y-127639149D01*
X146841235Y-127596744D01*
X146716446Y-127456541D01*
X146667269Y-127389544D01*
X146679437Y-127392988D01*
X146661851Y-127352642D01*
X146564105Y-127206261D01*
X146399644Y-126972979D01*
X146181905Y-126671953D01*
X145988975Y-126409524D01*
X145680456Y-125990952D01*
X145314348Y-125491765D01*
X144924428Y-124958165D01*
X144544474Y-124436356D01*
X144295406Y-124093015D01*
X143991742Y-123681897D01*
X143696396Y-123297116D01*
X143429380Y-122963637D01*
X143210727Y-122706426D01*
X143060459Y-122550448D01*
X143053051Y-122543994D01*
X142854415Y-122367575D01*
X142697384Y-122216349D01*
X142645050Y-122158768D01*
X142525455Y-122034346D01*
X142315416Y-121839799D01*
X142212043Y-121748585D01*
X142375619Y-121748585D01*
X142408876Y-121792721D01*
X142453011Y-121759462D01*
X142419754Y-121715327D01*
X142375619Y-121748585D01*
X142212043Y-121748585D01*
X142181054Y-121721241D01*
X142046583Y-121602587D01*
X141750613Y-121350177D01*
X141459156Y-121110031D01*
X141215473Y-120918408D01*
X141019405Y-120757493D01*
X140890945Y-120628793D01*
X140858981Y-120568048D01*
X140815345Y-120502813D01*
X140740955Y-120475222D01*
X140593201Y-120408383D01*
X140413532Y-120282630D01*
X140240578Y-120132271D01*
X140112972Y-119991614D01*
X140069347Y-119894966D01*
X140074542Y-119883387D01*
X140075460Y-119812845D01*
X140049186Y-119803727D01*
X139963119Y-119843887D01*
X139957332Y-119862578D01*
X139895516Y-119864708D01*
X139741617Y-119781321D01*
X139521703Y-119629256D01*
X139261830Y-119425353D01*
X139197653Y-119371630D01*
X139177037Y-119356924D01*
X139397025Y-119356924D01*
X139430283Y-119401059D01*
X139474422Y-119367801D01*
X139441160Y-119323665D01*
X139397025Y-119356924D01*
X139177037Y-119356924D01*
X139123059Y-119318420D01*
X139016292Y-119242260D01*
X138860782Y-119169649D01*
X138851444Y-119167633D01*
X138742260Y-119110021D01*
X138727677Y-119065548D01*
X138672110Y-118992714D01*
X138590217Y-118967309D01*
X138458802Y-118919138D01*
X138425150Y-118878320D01*
X138357564Y-118805811D01*
X138190889Y-118669425D01*
X137955273Y-118493206D01*
X137833763Y-118406602D01*
X137482762Y-118157319D01*
X137238719Y-117981320D01*
X137407669Y-117981320D01*
X137415549Y-118012999D01*
X137474717Y-118096606D01*
X137486631Y-118101911D01*
X137528290Y-118046705D01*
X137531639Y-118029314D01*
X137482601Y-117946535D01*
X137460554Y-117940402D01*
X137407669Y-117981320D01*
X137238719Y-117981320D01*
X137197826Y-117951829D01*
X137095354Y-117877928D01*
X136750337Y-117625293D01*
X136723115Y-117605112D01*
X136461590Y-117414304D01*
X136236167Y-117255841D01*
X136085134Y-117156453D01*
X136059108Y-117141665D01*
X135975781Y-117060194D01*
X135982454Y-117014304D01*
X135972247Y-116972724D01*
X135927656Y-116976730D01*
X135825974Y-116938891D01*
X135633172Y-116816857D01*
X135374766Y-116630486D01*
X135349363Y-116610839D01*
X135553993Y-116610839D01*
X135556023Y-116647658D01*
X135629785Y-116723447D01*
X135716979Y-116746682D01*
X135742483Y-116720863D01*
X135688759Y-116662627D01*
X135633125Y-116627476D01*
X135553993Y-116610839D01*
X135349363Y-116610839D01*
X135303919Y-116575693D01*
X135076277Y-116399634D01*
X134763222Y-116144163D01*
X134461124Y-115883925D01*
X134195498Y-115638781D01*
X134145962Y-115590306D01*
X134038206Y-115467178D01*
X134182393Y-115467178D01*
X134215652Y-115511313D01*
X134259787Y-115478056D01*
X134226529Y-115433919D01*
X134182393Y-115467178D01*
X134038206Y-115467178D01*
X134017986Y-115444073D01*
X133942700Y-115358047D01*
X133748543Y-115084708D01*
X133590343Y-114814185D01*
X133494958Y-114590373D01*
X133478989Y-114500180D01*
X133483736Y-114353469D01*
X133486343Y-114303909D01*
X133433383Y-114186731D01*
X134685980Y-114186731D01*
X134779530Y-114238622D01*
X134980400Y-114312566D01*
X135243743Y-114394862D01*
X135524716Y-114471809D01*
X135778473Y-114529707D01*
X135851293Y-114542733D01*
X136007214Y-114564894D01*
X136019676Y-114547109D01*
X135900304Y-114474778D01*
X135755491Y-114413180D01*
X135536349Y-114343509D01*
X135282162Y-114275080D01*
X135032212Y-114217213D01*
X134825782Y-114179224D01*
X134702156Y-114170433D01*
X134685980Y-114186731D01*
X133433383Y-114186731D01*
X133429892Y-114179008D01*
X133272861Y-114009454D01*
X133240943Y-113983644D01*
X133049833Y-113829107D01*
X132901973Y-113731759D01*
X132821270Y-113631499D01*
X132839165Y-113568834D01*
X132852027Y-113510803D01*
X132771724Y-113517083D01*
X132627434Y-113517805D01*
X132451464Y-113480828D01*
X132298699Y-113423696D01*
X132224021Y-113363944D01*
X132228196Y-113343376D01*
X132188171Y-113287793D01*
X132040838Y-113201747D01*
X131937755Y-113154626D01*
X131743180Y-113058182D01*
X131629353Y-112974584D01*
X131616405Y-112947468D01*
X131685784Y-112928218D01*
X131879872Y-112984136D01*
X132201408Y-113116309D01*
X132653128Y-113325828D01*
X133033592Y-113511814D01*
X133387390Y-113683239D01*
X133636727Y-113790694D01*
X133814514Y-113844775D01*
X133953668Y-113856077D01*
X134058286Y-113841648D01*
X134322279Y-113802307D01*
X134457353Y-113825883D01*
X134482031Y-113896709D01*
X134415433Y-113935958D01*
X134328760Y-113911419D01*
X134188618Y-113884826D01*
X134130782Y-113911316D01*
X134151851Y-113977378D01*
X134270398Y-114048584D01*
X134430106Y-114102187D01*
X134574654Y-114115437D01*
X134612391Y-114105838D01*
X134619615Y-114094599D01*
X135085594Y-114094599D01*
X135118852Y-114138734D01*
X135162987Y-114105475D01*
X135129730Y-114061340D01*
X135085594Y-114094599D01*
X134619615Y-114094599D01*
X134658220Y-114034535D01*
X134662966Y-114027152D01*
X134627992Y-113945273D01*
X134608323Y-113834204D01*
X134726970Y-113791319D01*
X134981582Y-113816656D01*
X135369808Y-113910252D01*
X135447859Y-113932641D01*
X135817890Y-114048439D01*
X136216101Y-114185663D01*
X136610615Y-114331851D01*
X136969550Y-114474534D01*
X137261030Y-114601249D01*
X137453177Y-114699529D01*
X137505099Y-114737083D01*
X137551969Y-114871965D01*
X137538087Y-115063927D01*
X137481229Y-115299425D01*
X136745042Y-115202859D01*
X136415038Y-115147122D01*
X136040598Y-115064176D01*
X135652574Y-114963352D01*
X135281823Y-114853977D01*
X134959193Y-114745382D01*
X134715538Y-114646893D01*
X134581712Y-114567843D01*
X134565886Y-114543964D01*
X134488672Y-114494461D01*
X134376854Y-114485102D01*
X134174347Y-114450736D01*
X134019206Y-114382091D01*
X133902796Y-114307731D01*
X133916566Y-114297700D01*
X134064333Y-114341767D01*
X134210441Y-114383822D01*
X134221273Y-114368303D01*
X134130955Y-114302262D01*
X133968138Y-114232468D01*
X133839109Y-114273006D01*
X133721984Y-114386108D01*
X133710196Y-114536080D01*
X133806404Y-114751761D01*
X133896355Y-114894029D01*
X134013007Y-115100764D01*
X134067988Y-115265711D01*
X134063821Y-115320682D01*
X134064482Y-115391765D01*
X134183705Y-115391405D01*
X134315664Y-115398734D01*
X134337913Y-115483718D01*
X134353678Y-115586412D01*
X134380872Y-115599224D01*
X134480217Y-115640710D01*
X134631159Y-115747542D01*
X134781757Y-115876978D01*
X134880069Y-115986276D01*
X134893295Y-116020890D01*
X134947683Y-116083742D01*
X134982347Y-116092749D01*
X135081712Y-116145449D01*
X135269470Y-116275803D01*
X135514077Y-116461218D01*
X135667857Y-116583699D01*
X135928322Y-116789751D01*
X136147107Y-116953492D01*
X136293796Y-117052636D01*
X136333950Y-117071772D01*
X136365656Y-117126323D01*
X136343470Y-117164226D01*
X136326889Y-117216322D01*
X136367027Y-117205690D01*
X136481821Y-117215844D01*
X136641441Y-117291241D01*
X136797152Y-117398919D01*
X136900213Y-117505926D01*
X136909434Y-117572460D01*
X136907409Y-117612741D01*
X136943122Y-117602077D01*
X137034006Y-117629498D01*
X137218188Y-117730277D01*
X137468752Y-117885707D01*
X137758775Y-118077085D01*
X138061338Y-118285707D01*
X138349523Y-118492868D01*
X138596410Y-118679861D01*
X138775080Y-118827983D01*
X138858612Y-118918531D01*
X138859852Y-118933900D01*
X138882803Y-118984743D01*
X138952130Y-119000633D01*
X139069187Y-119048998D01*
X139268730Y-119168256D01*
X139519975Y-119335936D01*
X139792133Y-119529566D01*
X140054417Y-119726678D01*
X140276042Y-119904797D01*
X140426219Y-120041453D01*
X140474735Y-120111992D01*
X140510804Y-120163805D01*
X140528106Y-120158973D01*
X140636387Y-120171694D01*
X140788061Y-120247515D01*
X140931586Y-120351442D01*
X141015416Y-120448484D01*
X141015055Y-120489552D01*
X141017836Y-120539206D01*
X141062082Y-120536492D01*
X141168009Y-120572099D01*
X141343957Y-120684261D01*
X141550960Y-120841304D01*
X141750053Y-121011556D01*
X141902270Y-121163344D01*
X141968643Y-121264999D01*
X141968854Y-121273515D01*
X142010822Y-121317504D01*
X142036255Y-121310214D01*
X142138843Y-121336822D01*
X142213976Y-121409455D01*
X142317421Y-121520495D01*
X142367566Y-121550149D01*
X142447282Y-121604536D01*
X142602385Y-121738929D01*
X142777378Y-121903259D01*
X142966006Y-122075902D01*
X143053431Y-122130148D01*
X143040919Y-122068755D01*
X142875571Y-121760019D01*
X142653268Y-121361049D01*
X142391050Y-120900899D01*
X142105961Y-120408625D01*
X141815042Y-119913278D01*
X141535331Y-119443919D01*
X141283871Y-119029596D01*
X141077703Y-118699368D01*
X140956154Y-118514270D01*
X140832937Y-118321165D01*
X140760325Y-118180930D01*
X140751513Y-118145309D01*
X140717675Y-118058637D01*
X140624689Y-117880459D01*
X140496307Y-117651782D01*
X140356282Y-117413603D01*
X140228380Y-117206926D01*
X140136344Y-117072755D01*
X140117580Y-117051073D01*
X140060966Y-116945631D01*
X139989958Y-116756675D01*
X139927123Y-116552560D01*
X139895021Y-116401650D01*
X139894850Y-116376270D01*
X139932250Y-116334059D01*
X140037660Y-116335804D01*
X140227274Y-116386371D01*
X140517285Y-116490631D01*
X140923889Y-116653451D01*
X141201591Y-116769101D01*
X141711376Y-116970188D01*
X142167071Y-117124527D01*
X142548907Y-117227120D01*
X142837119Y-117272974D01*
X143011939Y-117257093D01*
X143043897Y-117234608D01*
X143054164Y-117132589D01*
X143032852Y-116921912D01*
X142984571Y-116645975D01*
X142977925Y-116614034D01*
X142921077Y-116339189D01*
X142880448Y-116131339D01*
X142863900Y-116030915D01*
X142863912Y-116027966D01*
X142927788Y-116020838D01*
X143082627Y-116089130D01*
X143294813Y-116213857D01*
X143530728Y-116376033D01*
X143668211Y-116482222D01*
X143979749Y-116724744D01*
X144318818Y-116972645D01*
X144646752Y-117199112D01*
X144924885Y-117377328D01*
X145094658Y-117471505D01*
X145216258Y-117516085D01*
X145231569Y-117462267D01*
X145208422Y-117391929D01*
X145139238Y-117160521D01*
X145087726Y-116910890D01*
X145060982Y-116691569D01*
X145066105Y-116551091D01*
X145081785Y-116525994D01*
X145168766Y-116560520D01*
X145318811Y-116679913D01*
X145413321Y-116770836D01*
X145646043Y-117008376D01*
X145892502Y-117259819D01*
X145949926Y-117318380D01*
X146152090Y-117499735D01*
X146317139Y-117602500D01*
X146417329Y-117611652D01*
X146433970Y-117580491D01*
X146414363Y-117487081D01*
X146358203Y-117303663D01*
X146333235Y-117229608D01*
X146260218Y-116942640D01*
X146222260Y-116648452D01*
X146221152Y-116615879D01*
X146209778Y-116400724D01*
X146188565Y-116253656D01*
X146183031Y-116236947D01*
X146215307Y-116182734D01*
X146279421Y-116180781D01*
X146391589Y-116243418D01*
X146572994Y-116393165D01*
X146788727Y-116600576D01*
X146839520Y-116653328D01*
X147223622Y-117019948D01*
X147610928Y-117320802D01*
X147971602Y-117535558D01*
X148275811Y-117643895D01*
X148298925Y-117647662D01*
X148583890Y-117620824D01*
X148806333Y-117471035D01*
X148929062Y-117225272D01*
X148936060Y-117185522D01*
X149001875Y-117008127D01*
X149125894Y-116971431D01*
X149302722Y-117073354D01*
X149526958Y-117311814D01*
X149636720Y-117455958D01*
X149788783Y-117652970D01*
X149893056Y-117763156D01*
X149930962Y-117767583D01*
X149928799Y-117753503D01*
X149893339Y-117558987D01*
X149855269Y-117277870D01*
X149819569Y-116958772D01*
X149791217Y-116650314D01*
X149775197Y-116401116D01*
X149776079Y-116262495D01*
X149830415Y-116138053D01*
X149957185Y-116100428D01*
X150172558Y-116151386D01*
X150492692Y-116292701D01*
X150614019Y-116354242D01*
X151212573Y-116699249D01*
X151707362Y-117069392D01*
X152150179Y-117505110D01*
X152283091Y-117657563D01*
X152466541Y-117865245D01*
X152606085Y-118005577D01*
X152677425Y-118054660D01*
X152681776Y-118049732D01*
X152649812Y-117929985D01*
X152629705Y-117897989D01*
X152575978Y-117772968D01*
X152517017Y-117562848D01*
X152500659Y-117489189D01*
X152461361Y-117308886D01*
X152393572Y-117007601D01*
X152304404Y-116616551D01*
X152200974Y-116166954D01*
X152101146Y-115736221D01*
X151988396Y-115250311D01*
X151880926Y-114785005D01*
X151786574Y-114374408D01*
X151713182Y-114052623D01*
X151672836Y-113873064D01*
X151587354Y-113549564D01*
X151470353Y-113182904D01*
X151389287Y-112961537D01*
X151287406Y-112688689D01*
X151209727Y-112455068D01*
X151176522Y-112327481D01*
X151146328Y-112182541D01*
X151087584Y-111931369D01*
X151010952Y-111619037D01*
X150978339Y-111489667D01*
X150897064Y-111150739D01*
X150858436Y-110919778D01*
X150860132Y-110755049D01*
X150899835Y-110614818D01*
X150926407Y-110555036D01*
X151026465Y-110390269D01*
X151117124Y-110312784D01*
X151129744Y-110311931D01*
X151183208Y-110389024D01*
G37*
%LPC*%
D13*
X129670000Y-104170000D03*
X129670000Y-101670000D03*
X161175000Y-123850000D03*
X161175000Y-121310000D03*
X129375000Y-91300000D03*
X129375000Y-88760000D03*
X146725000Y-123850000D03*
X146725000Y-121310000D03*
X129670000Y-96920000D03*
X129670000Y-99420000D03*
X142500000Y-88750000D03*
X142500000Y-91250000D03*
D14*
X162765000Y-94385000D03*
X162765000Y-96925000D03*
X162765000Y-99465000D03*
X162765000Y-102005000D03*
X162765000Y-104545000D03*
X162765000Y-107085000D03*
X162765000Y-109625000D03*
X162765000Y-112165000D03*
X170385000Y-112165000D03*
X170385000Y-109625000D03*
X170385000Y-107085000D03*
X170385000Y-104545000D03*
X170385000Y-102005000D03*
X170385000Y-99465000D03*
X170385000Y-96925000D03*
X170385000Y-94385000D03*
D15*
X173475000Y-88525000D03*
D14*
X147700000Y-88545000D03*
X147700000Y-91085000D03*
X147700000Y-93625000D03*
X147700000Y-96165000D03*
X147700000Y-98705000D03*
X147700000Y-101245000D03*
X147700000Y-103785000D03*
X147700000Y-106325000D03*
X155320000Y-106325000D03*
X155320000Y-103785000D03*
X155320000Y-101245000D03*
X155320000Y-98705000D03*
X155320000Y-96165000D03*
X155320000Y-93625000D03*
X155320000Y-91085000D03*
X155320000Y-88545000D03*
D16*
X141000000Y-130000000D03*
D17*
X139000000Y-130000000D03*
D13*
X158400000Y-88450000D03*
X158400000Y-85950000D03*
D18*
X166500000Y-135500000D03*
D19*
X158050000Y-81925000D03*
D20*
X138500000Y-70680000D03*
D21*
X137230000Y-72750000D03*
X135960000Y-70680000D03*
D22*
X131000000Y-72500000D03*
D18*
X135500000Y-135500000D03*
D13*
X130850000Y-116555000D03*
X133390000Y-116555000D03*
D23*
X137000000Y-116500000D03*
D24*
X138000000Y-83000000D03*
D17*
X140000000Y-83000000D03*
X142000000Y-83000000D03*
D25*
X163500000Y-71000000D03*
D23*
X129000000Y-83500000D03*
D19*
X144675000Y-71500000D03*
D13*
X153950000Y-123850000D03*
X153950000Y-121310000D03*
D19*
X154175000Y-79675000D03*
D23*
X169000000Y-116500000D03*
D19*
X169650000Y-88450000D03*
X161850000Y-84450000D03*
D26*
X132200000Y-88820000D03*
D27*
X132200000Y-91360000D03*
X132200000Y-93900000D03*
X132200000Y-96440000D03*
X132200000Y-98980000D03*
X132200000Y-101520000D03*
X132200000Y-104060000D03*
X132200000Y-106600000D03*
X132200000Y-109140000D03*
X132200000Y-111680000D03*
X139820000Y-111680000D03*
X139820000Y-109140000D03*
X139820000Y-106600000D03*
X139820000Y-104060000D03*
X139820000Y-101520000D03*
X139820000Y-98980000D03*
X139820000Y-96440000D03*
X139820000Y-93900000D03*
X139820000Y-91360000D03*
X139820000Y-88820000D03*
D16*
X155850000Y-130000000D03*
D17*
X153850000Y-130000000D03*
D13*
X131500000Y-79370000D03*
X131500000Y-76830000D03*
X141270000Y-76300000D03*
X138730000Y-76300000D03*
D19*
X165725000Y-86600000D03*
D16*
X148425000Y-130000000D03*
D17*
X146425000Y-130000000D03*
D13*
X139500000Y-123850000D03*
X139500000Y-121310000D03*
D16*
X163275000Y-130000000D03*
D17*
X161275000Y-130000000D03*
D13*
X173250000Y-94250000D03*
X173250000Y-91750000D03*
D25*
X156000000Y-71000000D03*
D19*
X148600000Y-73600000D03*
X150250000Y-78750000D03*
D13*
X134075000Y-122200000D03*
X134075000Y-119660000D03*
D23*
X166000000Y-121250000D03*
D22*
X171000000Y-72500000D03*
%LPD*%
M02*
