M48
; DRILL file KiCad 10.0.2 date 2026-05-16T20:23:02
; FORMAT={-:-/ absolute / metric / decimal}
; #@! TF.CreationDate,2026-05-16T20:23:02-04:00
; #@! TF.GenerationSoftware,Kicad,Pcbnew,10.0.2
; #@! TF.FileFunction,Plated,1,2,PTH
FMAT,2
METRIC
; #@! TA.AperFunction,Plated,PTH,ViaDrill
T1C0.300
; #@! TA.AperFunction,Plated,PTH,ComponentDrill
T2C0.700
; #@! TA.AperFunction,Plated,PTH,ComponentDrill
T3C0.750
; #@! TA.AperFunction,Plated,PTH,ComponentDrill
T4C0.800
; #@! TA.AperFunction,Plated,PTH,ComponentDrill
T5C0.813
; #@! TA.AperFunction,Plated,PTH,ComponentDrill
T6C1.100
; #@! TA.AperFunction,Plated,PTH,ComponentDrill
T7C1.118
; #@! TA.AperFunction,Plated,PTH,ComponentDrill
T8C1.600
%
G90
G05
T1
X127.0Y-81.0
X128.0Y-75.5
X130.05Y-112.25
X130.2Y-106.9
X130.25Y-87.25
X130.9Y-105.6
X131.075Y-97.875
X133.0Y-69.0
X133.15Y-127.425
X133.15Y-133.425
X133.5Y-102.4
X134.925Y-89.175
X135.0Y-81.5
X135.2Y-93.5
X135.26Y-97.255
X135.26Y-98.525
X135.3Y-105.0
X136.5Y-121.95
X136.6Y-86.5
X138.0Y-128.0
X141.5Y-78.0
X142.0Y-84.5
X143.5Y-130.5
X143.625Y-112.825
X144.0Y-79.325
X144.5Y-96.0
X144.5Y-99.8
X144.54Y-97.255
X144.54Y-103.605
X144.54Y-106.145
X144.6Y-94.7
X144.6Y-98.5
X145.5Y-84.0
X145.5Y-128.5
X146.3Y-102.535
X147.0Y-78.0
X147.71Y-108.16
X149.893Y-93.607
X150.213Y-83.337
X150.25Y-89.41
X150.785Y-106.335
X151.425Y-118.3
X152.409Y-90.932
X153.0Y-92.9
X153.085Y-98.085
X153.2Y-91.05
X153.275Y-118.3
X154.0Y-128.0
X157.475Y-93.25
X158.725Y-118.525
X158.775Y-120.325
X158.96Y-98.71
X160.475Y-91.025
X160.5Y-86.5
X160.5Y-128.5
X161.5Y-92.5
X163.5Y-90.5
X165.075Y-118.775
X167.335Y-94.835
X167.5Y-77.5
X167.81Y-97.31
X167.885Y-101.31
X168.1Y-109.25
X168.675Y-128.0
X169.475Y-134.275
X169.575Y-69.875
X173.985Y-108.01
X174.135Y-101.735
X174.185Y-97.86
X175.5Y-95.5
T2
X129.0Y-83.5
X137.0Y-116.5
X166.0Y-121.25
X169.0Y-116.5
T3
X135.96Y-71.08
X137.23Y-72.35
X138.5Y-71.08
T4
X129.375Y-88.76
X129.375Y-91.3
X129.67Y-96.92
X129.67Y-99.42
X129.67Y-101.67
X129.67Y-104.17
X130.85Y-116.555
X131.5Y-76.83
X131.5Y-79.37
X133.39Y-116.555
X134.075Y-119.66
X134.075Y-122.2
X138.73Y-76.3
X139.5Y-121.31
X139.5Y-123.85
X141.27Y-76.3
X142.5Y-88.75
X142.5Y-91.25
X146.725Y-121.31
X146.725Y-123.85
X153.95Y-121.31
X153.95Y-123.85
X158.4Y-85.95
X158.4Y-88.45
X161.175Y-121.31
X161.175Y-123.85
X173.25Y-91.75
X173.25Y-94.25
T5
X147.7Y-88.545
X147.7Y-91.085
X147.7Y-93.625
X147.7Y-96.165
X147.7Y-98.705
X147.7Y-101.245
X147.7Y-103.785
X147.7Y-106.325
X155.32Y-88.545
X155.32Y-91.085
X155.32Y-93.625
X155.32Y-96.165
X155.32Y-98.705
X155.32Y-101.245
X155.32Y-103.785
X155.32Y-106.325
X162.765Y-94.385
X162.765Y-96.925
X162.765Y-99.465
X162.765Y-102.005
X162.765Y-104.545
X162.765Y-107.085
X162.765Y-109.625
X162.765Y-112.165
X170.385Y-94.385
X170.385Y-96.925
X170.385Y-99.465
X170.385Y-102.005
X170.385Y-104.545
X170.385Y-107.085
X170.385Y-109.625
X170.385Y-112.165
T6
X138.0Y-83.0
X139.0Y-130.0
X140.0Y-83.0
X141.0Y-130.0
X142.0Y-83.0
X146.425Y-130.0
X148.425Y-130.0
X153.85Y-130.0
X155.85Y-130.0
X161.275Y-130.0
X163.275Y-130.0
T7
X132.2Y-88.82
X132.2Y-91.36
X132.2Y-93.9
X132.2Y-96.44
X132.2Y-98.98
X132.2Y-101.52
X132.2Y-104.06
X132.2Y-106.6
X132.2Y-109.14
X132.2Y-111.68
X139.82Y-88.82
X139.82Y-91.36
X139.82Y-93.9
X139.82Y-96.44
X139.82Y-98.98
X139.82Y-101.52
X139.82Y-104.06
X139.82Y-106.6
X139.82Y-109.14
X139.82Y-111.68
T8
X144.675Y-71.5
X148.6Y-73.6
X150.25Y-78.75
X154.175Y-79.675
X158.05Y-81.925
X161.85Y-84.45
X165.725Y-86.6
X169.65Y-88.45
X173.475Y-88.525
M30
